<svg width="131" height="20" viewBox="0 0 131 20" fill="none" xmlns="http://www.w3.org/2000/svg">
<path d="M8.86354 10.8972C9.53811 9.78301 10.5651 8.9056 11.7898 8.42008C12.4738 8.14893 13.2195 8 14 8C17.3137 8 20 10.6863 20 14C20 17.3137 17.3137 20 14 20C11.9657 20 10.1678 18.9876 9.08281 17.4391C8.75225 16.9674 9.01072 16.3475 9.5089 16.0583C10.1015 15.7144 10.639 15.2859 11.105 14.7895C11.4515 16.0633 12.6164 17 14 17C15.6569 17 17 15.6569 17 14C17 12.3431 15.6569 11 14 11C13 11 12.1877 11.3662 11.1365 13.1028C10.0852 14.8394 8.17814 16 6 16C2.68629 16 0 13.3137 0 10C0 6.68629 2.68629 4 6 4C8.03427 4 9.83208 5.01237 10.9171 6.56078C11.2477 7.03253 10.9892 7.65239 10.491 7.94157C9.89842 8.28554 9.36092 8.71397 8.895 9.21037C8.54838 7.93661 7.38357 7 6 7C4.34315 7 3 8.34315 3 10C3 11.6569 4.34315 13 6 13C7.65685 13 8.18897 12.0114 8.86354 10.8972Z" fill="#0C3FEC"/>
<path d="M16.5995 7.49858C16.8543 7.05764 17.0001 6.54584 17.0001 6C17.0001 4.34315 15.6569 3 14.0001 3C12.6164 3 11.4516 3.93666 11.105 5.21048C10.6391 4.71406 10.1016 4.28562 9.50898 3.94165C9.01079 3.65248 8.75232 3.03263 9.08288 2.56088C10.1679 1.01241 11.9657 0 14.0001 0C17.3138 0 20.0001 2.68629 20.0001 6C20.0001 6.71287 19.8757 7.39671 19.6476 8.03101C19.4265 8.64578 18.6448 8.72247 18.1167 8.33785C17.6511 7.99876 17.1421 7.7157 16.5995 7.49858Z" fill="#0C3FEC"/>
<path d="M38.824 6.8C38.152 5.624 36.64 4.88 35.056 4.88C31.6 4.856 28.888 6.992 28.888 11.072C28.888 15.224 31.48 17.384 34.984 17.36C36.304 17.336 38.152 16.664 38.824 15.272L38.968 17H41.728V5.168H38.92L38.824 6.8ZM35.32 7.496C39.928 7.496 39.928 14.672 35.32 14.672C33.376 14.672 31.816 13.328 31.816 11.072C31.816 8.816 33.376 7.496 35.32 7.496Z" fill="#0C3FEC"/>
<path d="M49.2807 7.616C51.1287 7.616 52.7127 9.008 52.7127 11.072C52.7127 13.208 51.1287 14.552 49.2807 14.552C47.4087 14.552 45.9207 13.136 45.9207 11.072C45.9207 8.936 47.4087 7.616 49.2807 7.616ZM52.9047 0.224001V6.776C52.2087 5.552 50.2647 4.88 49.0167 4.88C45.5607 4.88 42.9927 6.992 42.9927 11.072C42.9927 14.96 45.6087 17.264 49.0887 17.264C50.5287 17.264 51.9927 16.784 52.9047 15.368L53.0967 17H55.8327V0.224001H52.9047Z" fill="#0C3FEC"/>
<path d="M66.5534 5.144L64.9214 9.104L63.1214 14.048L61.2974 9.056L59.6654 5.144H56.4734L61.5374 17.048H64.7054L69.7454 5.144H66.5534Z" fill="#0C3FEC"/>
<path d="M73.3495 5.12V17H70.4215V5.12H73.3495ZM70.1575 1.832C70.1575 4.112 73.6135 4.112 73.6135 1.832C73.6135 -0.447999 70.1575 -0.447999 70.1575 1.832Z" fill="#0C3FEC"/>
<path d="M84.3873 6.392C83.0193 5.192 81.6273 4.832 79.7793 4.832C77.6193 4.832 74.7872 5.792 74.7872 8.528C74.7872 11.216 77.4513 12.032 79.6833 12.2C81.3633 12.296 82.0352 12.752 82.0352 13.568C82.0352 14.432 81.0032 14.888 79.8992 14.864C78.5792 14.84 76.9473 14.384 75.8193 13.208L74.3792 15.296C76.1072 17.096 77.9792 17.408 79.8512 17.408C83.2352 17.408 84.9393 15.608 84.9393 13.52C84.9393 10.376 82.1073 9.872 79.8753 9.728C78.3633 9.632 77.6673 9.2 77.6673 8.432C77.6673 7.688 78.4353 7.256 79.8273 7.256C80.9553 7.256 81.9152 7.52 82.7552 8.312L84.3873 6.392Z" fill="#0C3FEC"/>
<path d="M95.2849 6.8C94.6129 5.624 93.1009 4.88 91.5169 4.88C88.0609 4.856 85.3489 6.992 85.3489 11.072C85.3489 15.224 87.9409 17.384 91.4449 17.36C92.7649 17.336 94.6129 16.664 95.2849 15.272L95.4289 17H98.1889V5.168H95.3809L95.2849 6.8ZM91.7809 7.496C96.3889 7.496 96.3889 14.672 91.7809 14.672C89.8369 14.672 88.2769 13.328 88.2769 11.072C88.2769 8.816 89.8369 7.496 91.7809 7.496Z" fill="#0C3FEC"/>
<path d="M106.702 7.616C108.574 7.616 110.062 8.936 110.062 11.072C110.062 13.136 108.574 14.552 106.702 14.552C104.854 14.552 103.27 13.208 103.27 11.072C103.27 9.008 104.854 7.616 106.702 7.616ZM100.15 0.224001V17H102.886L103.078 15.368C103.99 16.784 105.454 17.264 106.894 17.264C110.374 17.264 112.99 14.96 112.99 11.072C112.99 6.992 110.422 4.88 106.966 4.88C105.718 4.88 103.774 5.552 103.078 6.776V0.224001H100.15Z" fill="#0C3FEC"/>
<path d="M114.326 0.224001V17H117.23V0.224001H114.326Z" fill="#0C3FEC"/>
<path d="M130.833 12.128C131.289 7.256 128.817 4.808 124.857 4.808C121.017 4.808 118.569 7.4 118.569 11C118.569 14.792 120.993 17.312 125.073 17.312C126.873 17.312 128.913 16.688 130.161 15.392L128.289 13.544C127.617 14.24 126.201 14.648 125.121 14.648C123.057 14.648 121.785 13.592 121.593 12.128H130.833ZM121.641 9.704C122.073 8.168 123.369 7.4 124.953 7.4C126.633 7.4 127.833 8.168 128.025 9.704H121.641Z" fill="#0C3FEC"/>
</svg>
