<?xml version="1.0" encoding="UTF-8"?>
<svg width="121px" height="23px" viewBox="0 0 121 23" version="1.1" xmlns="http://www.w3.org/2000/svg" xmlns:xlink="http://www.w3.org/1999/xlink">
    <!-- Generator: Sketch 49.3 (51167) - http://www.bohemiancoding.com/sketch -->
    <title>advisable</title>
    <desc>Created with Sketch.</desc>
    <defs></defs>
    <g id="v2" stroke="none" stroke-width="1" fill="none" fill-rule="evenodd">
        <g id="02-copy-2" transform="translate(-30.000000, -33.000000)" fill="#FFFFFF">
            <path d="M41.6342714,41.2041823 L46.3679397,41.2041823 L46.3679397,55.6250938 L41.9056281,55.6250938 L41.9056281,54.0620912 L41.8453266,54.0620912 C40.8805025,55.2712064 39.4935678,55.8905094 37.7448241,55.8905094 C33.6744724,55.8905094 30.78,52.8824665 30.78,48.4293834 C30.78,44.0057909 33.7046231,40.9092761 37.5337688,40.9092761 C39.1317588,40.9092761 40.5488442,41.5285791 41.6041206,42.7376944 L41.6342714,42.7376944 L41.6342714,41.2041823 Z M38.7096482,51.8502949 C40.4282412,51.8502949 41.8453266,50.4937265 41.8453266,48.4293834 C41.8453266,46.4535121 40.4885427,45.0084718 38.739799,45.0084718 C36.9307538,45.0084718 35.5739698,46.3945308 35.5739698,48.4293834 C35.5739698,50.4642359 36.8704523,51.8502949 38.7096482,51.8502949 Z M58.0965829,33.92 L62.8001005,33.92 L62.8001005,55.6250938 L58.3377889,55.6250938 L58.3377889,54.0620912 L58.2774874,54.0620912 C57.2825126,55.2712064 55.8654271,55.8905094 54.0563819,55.8905094 C50.0161809,55.8905094 47.1217085,52.8824665 47.1217085,48.4293834 C47.1217085,44.0057909 50.0463317,40.9092761 53.8453266,40.9092761 C55.5036181,40.9092761 56.981005,41.5285791 58.0362814,42.7376944 L58.0965829,42.7376944 L58.0965829,33.92 Z M55.0513568,51.8502949 C56.8905528,51.8502949 58.2774874,50.4937265 58.2774874,48.4293834 C58.2774874,46.4535121 56.9508543,45.0084718 55.0513568,45.0084718 C53.2423116,45.0084718 51.8855276,46.3945308 51.8855276,48.4293834 C51.8855276,50.4642359 53.2121608,51.8502949 55.0513568,51.8502949 Z M73.8352764,41.2041823 L78.78,41.2041823 L73.0815075,55.6250938 L68.8001005,55.6250938 L63.0714573,41.2041823 L67.9860302,41.2041823 L70.9106533,50.1103485 L70.9709548,50.1103485 L73.8352764,41.2041823 Z M81.5840201,39.4642359 C79.9558794,39.4642359 78.6292462,38.3730831 78.6292462,36.7805898 C78.6292462,35.1880965 79.9558794,34.0969437 81.5840201,34.0969437 C83.2121608,34.0969437 84.538794,35.1880965 84.538794,36.7805898 C84.538794,38.3730831 83.2121608,39.4642359 81.5840201,39.4642359 Z M79.2322613,55.6250938 L79.2322613,41.2041823 L83.9056281,41.2041823 L83.9056281,55.6250938 L79.2322613,55.6250938 Z M90.6292462,55.92 C88.3076382,55.92 86.2272362,55.2122252 84.5689447,53.767185 L86.8001005,50.6706702 C88.0362814,51.8208043 89.2724623,52.3221448 90.659397,52.3221448 C91.5337688,52.3221448 91.9860302,52.0272386 91.9860302,51.4964075 C91.9860302,51.1425201 91.5337688,50.8181233 89.7247236,50.2872922 C87.2825126,49.5205362 85.1116583,48.3114209 85.1116583,45.4803217 C85.1116583,42.6787131 87.5538693,40.9092761 90.659397,40.9092761 C92.8302513,40.9092761 94.4885427,41.4990885 96.2071357,42.7376944 L93.9759799,46.0406434 C92.9207035,45.0379625 91.6543719,44.536622 90.6292462,44.536622 C90.2372864,44.536622 89.6041206,44.6840751 89.6041206,45.2738874 C89.6041206,45.6277748 90.1468342,45.9816622 91.5337688,46.4830027 C94.7900503,47.6331367 96.538794,48.3704021 96.5689447,51.2604826 C96.5689447,53.9146381 94.6392965,55.92 90.6292462,55.92 Z M107.212161,41.2041823 L111.945829,41.2041823 L111.945829,55.6250938 L107.483518,55.6250938 L107.483518,54.0620912 L107.423216,54.0620912 C106.458392,55.2712064 105.071457,55.8905094 103.322714,55.8905094 C99.2523618,55.8905094 96.3578894,52.8824665 96.3578894,48.4293834 C96.3578894,44.0057909 99.2825126,40.9092761 103.111658,40.9092761 C104.709648,40.9092761 106.126734,41.5285791 107.18201,42.7376944 L107.212161,42.7376944 L107.212161,41.2041823 Z M104.287538,51.8502949 C106.006131,51.8502949 107.423216,50.4937265 107.423216,48.4293834 C107.423216,46.4535121 106.066432,45.0084718 104.317688,45.0084718 C102.508643,45.0084718 101.151859,46.3945308 101.151859,48.4293834 C101.151859,50.4642359 102.448342,51.8502949 104.287538,51.8502949 Z M122.408141,40.9092761 C126.237286,40.9092761 129.131759,44.0057909 129.131759,48.4293834 C129.131759,52.8824665 126.237286,55.8905094 122.197085,55.8905094 C120.357889,55.8905094 118.940804,55.2712064 117.97598,54.0620912 L117.915678,54.0620912 L117.915678,55.6250938 L113.423216,55.6250938 L113.423216,33.92 L118.156884,33.92 L118.156884,42.7376944 L118.217186,42.7376944 C119.272462,41.5285791 120.749849,40.9092761 122.408141,40.9092761 Z M121.232261,51.8502949 C123.071457,51.8502949 124.36794,50.4642359 124.36794,48.4293834 C124.36794,46.3945308 123.011156,45.0084718 121.202111,45.0084718 C119.332764,45.0084718 117.97598,46.4535121 117.97598,48.4293834 C117.97598,50.4937265 119.362915,51.8502949 121.232261,51.8502949 Z M130.187035,55.6250938 L130.187035,33.92 L134.860402,33.92 L134.860402,55.6250938 L130.187035,55.6250938 Z M150.78,48.2819303 C150.78,48.6947989 150.719698,49.3435925 150.659397,49.6384987 L140.649347,49.6384987 C140.981005,51.2604826 142.39809,52.1452011 144.116683,52.1452011 C145.473467,52.1452011 146.679497,51.5553887 147.674472,50.4052547 L150.176985,53.147882 C148.940804,54.6813941 146.679497,55.8905094 143.604121,55.8905094 C139.232261,55.8905094 135.945829,52.8824665 135.945829,48.3998928 C135.945829,44.0352815 139.111658,40.9092761 143.423216,40.9092761 C147.734774,40.9092761 150.78,43.9763003 150.78,48.2819303 Z M143.483518,44.5956032 C142.066432,44.5956032 140.950854,45.4213405 140.649347,46.9253619 L146.166935,46.8958713 C145.865427,45.4803217 144.900603,44.5956032 143.483518,44.5956032 Z" id="advisable"></path>
        </g>
    </g>
</svg>