<svg width="152" height="38" viewBox="0 0 152 38" fill="none" xmlns="http://www.w3.org/2000/svg">
<path d="M125 11H141C142.1 11 143 11.9 143 13V25C143 26.1 142.1 27 141 27H125C123.9 27 123 26.1 123 25V13C123 11.9 123.9 11 125 11Z" stroke="white" stroke-width="2" stroke-linecap="round" stroke-linejoin="round"/>
<path d="M143 13L133 20L123 13" stroke="white" stroke-width="2" stroke-linecap="round" stroke-linejoin="round"/>
<path d="M106 10.0101C105.042 10.6855 103.982 11.2022 102.86 11.5401C102.258 10.8476 101.457 10.3567 100.567 10.134C99.6767 9.91122 98.7395 9.96725 97.8821 10.2945C97.0247 10.6218 96.2884 11.2045 95.773 11.9638C95.2575 12.7231 94.9877 13.6224 95 14.5401V15.5401C93.2426 15.5856 91.5013 15.1959 89.931 14.4055C88.3607 13.6151 87.0103 12.4487 86 11.0101C86 11.0101 82 20.0101 91 24.0101C88.9405 25.408 86.4872 26.109 84 26.0101C93 31.0101 104 26.0101 104 14.5101C103.999 14.2315 103.972 13.9537 103.92 13.6801C104.941 12.6735 105.661 11.4028 106 10.0101V10.0101Z" fill="white"/>
<path d="M62 9H59C57.6739 9 56.4021 9.52678 55.4645 10.4645C54.5268 11.4021 54 12.6739 54 14V17H51V21H54V29H58V21H61L62 17H58V14C58 13.7348 58.1054 13.4804 58.2929 13.2929C58.4804 13.1054 58.7348 13 59 13H62V9Z" fill="white"/>
<path d="M28.8371 20.0358V27H24.7997V20.5022C24.7997 18.8699 24.2158 17.7559 22.7544 17.7559C21.6388 17.7559 20.9749 18.5067 20.6828 19.2329C20.5763 19.4925 20.5489 19.8539 20.5489 20.2173V27H16.5101C16.5101 27 16.5645 15.9949 16.5101 14.8547H20.5485V16.5762C20.5403 16.5891 20.5296 16.603 20.5219 16.6155H20.5485V16.5762C21.085 15.7498 22.0432 14.5693 24.188 14.5693C26.8452 14.5693 28.8371 16.3052 28.8371 20.0358ZM12.2854 9C10.9037 9 10 9.90626 10 11.098C10 12.2638 10.8776 13.1976 12.2318 13.1976H12.2587C13.6672 13.1976 14.5431 12.264 14.5431 11.098C14.5165 9.90626 13.6672 9 12.2854 9ZM10.2399 27H14.2771V14.8547H10.2399V27Z" fill="white"/>
</svg>
