<svg width="21" height="20" viewBox="0 0 21 20" fill="none" xmlns="http://www.w3.org/2000/svg">
<path d="M12.9725 1.23294C12.6606 0.297301 11.6593 -0.211557 10.7237 0.083909C9.78802 0.39579 9.27917 1.39709 9.57463 2.33273L14.1872 16.5151C14.4991 17.3851 15.4511 17.8775 16.3539 17.6149C17.306 17.3358 17.8805 16.3345 17.5686 15.4153C17.5686 15.3825 12.9725 1.23294 12.9725 1.23294Z" fill="#ECB32D"/>
<path d="M5.83235 3.54743C5.52047 2.61178 4.51917 2.10293 3.58353 2.39839C2.64789 2.71027 2.13903 3.71157 2.43449 4.64722L7.04704 18.8296C7.35892 19.6996 8.31098 20.192 9.21379 19.9294C10.1658 19.6503 10.7404 18.649 10.4285 17.7298C10.4285 17.697 5.83235 3.54743 5.83235 3.54743Z" fill="#63C1A0"/>
<path d="M18.7834 12.9695C19.7191 12.6576 20.2279 11.6563 19.9325 10.7207C19.6206 9.78503 18.6193 9.27618 17.6837 9.57164L3.48488 14.2006C2.6149 14.5125 2.12246 15.4645 2.38509 16.3674C2.66415 17.3194 3.66545 17.8939 4.58467 17.582C4.6175 17.582 18.7834 12.9695 18.7834 12.9695Z" fill="#E01A59"/>
<path d="M6.43963 16.9911C7.35886 16.6957 8.55714 16.3017 9.83749 15.8913C9.54202 14.9721 9.14807 13.7738 8.7377 12.4935L5.33984 13.5933L6.43963 16.9911Z" fill="#331433"/>
<path d="M13.5964 14.6602C14.8767 14.2498 16.075 13.8559 16.9942 13.5604C16.6988 12.6412 16.3048 11.4429 15.8944 10.1626L12.4966 11.2624L13.5964 14.6602Z" fill="#D62027"/>
<path d="M16.4526 5.82909C17.3882 5.5172 17.8971 4.5159 17.6016 3.58026C17.2897 2.64462 16.2884 2.13576 15.3528 2.43123L1.17043 7.04378C0.300449 7.35566 -0.191995 8.30771 0.0706417 9.21053C0.349693 10.1626 1.35099 10.7371 2.27022 10.4252C2.30305 10.4252 16.4526 5.82909 16.4526 5.82909Z" fill="#89D3DF"/>
<path d="M4.12518 9.83428C5.04441 9.53882 6.24268 9.14487 7.52304 8.7345C7.11267 7.45414 6.71871 6.25587 6.42325 5.33664L3.02539 6.43643L4.12518 9.83428Z" fill="#258B74"/>
<path d="M11.2653 7.5198C12.5457 7.10943 13.7439 6.71548 14.6632 6.42001C14.2528 5.13966 13.8588 3.94138 13.5634 3.02216L10.1655 4.12194L11.2653 7.5198Z" fill="#819C3C"/>
</svg>
