<svg width="217" height="217" viewBox="0 0 217 217" fill="none" xmlns="http://www.w3.org/2000/svg">
<path d="M32.3147 120.745C34.4115 127.55 40.0725 132.509 44.6043 137.994C49.891 144.393 53.8125 151.817 57.6765 159.196C64.8793 172.942 71.3165 187.293 78.8171 200.818C79.2211 201.543 79.6783 202.306 80.412 202.655C81.033 202.944 81.7326 202.868 82.3876 202.772C88.9801 201.788 95.1111 199.002 100.747 195.542C102.139 194.691 103.611 193.651 104.015 192.007C104.162 191.41 104.134 190.712 103.754 190.206C103.453 189.867 103.079 189.602 102.66 189.43C100.206 188.211 96.5912 187.397 94.5156 185.579C91.7957 183.193 90.3092 178.457 89.0673 175.173C83.5646 160.643 77.1076 146.492 69.7386 132.813C63.0717 120.443 54.9332 107.779 42.5755 101.799" fill="white"/>
<path d="M31.7616 120.896C33.9754 127.89 39.4769 132.845 44.0066 138.351C49.3039 144.784 53.1998 152.217 57.0341 159.572C61.0427 167.26 64.8026 175.075 68.6432 182.848C70.5572 186.733 72.5009 190.606 74.5084 194.444C75.5008 196.357 76.5173 198.26 77.5579 200.152C78.332 201.564 79.0827 203.28 80.8456 203.593C82.6086 203.906 84.7799 203.168 86.4577 202.742C88.3875 202.24 90.281 201.608 92.1251 200.85C95.6213 199.425 99.2577 197.705 102.312 195.463C103.556 194.549 104.712 193.315 104.863 191.703C105.044 189.868 103.764 189.024 102.261 188.364C99.1897 187.02 95.7361 186.31 93.6818 183.433C91.7168 180.681 90.7514 177.323 89.5626 174.197C88.0513 170.216 86.467 166.265 84.8096 162.343C81.4198 154.316 77.7401 146.42 73.7704 138.655C67.212 125.817 59.8752 111.903 47.5452 103.69C46.0931 102.72 44.5745 101.855 43.0007 101.099C42.0671 100.653 41.2441 102.031 42.1819 102.499C54.765 108.8 62.508 121.26 68.9856 133.254C76.7032 147.593 83.4326 162.443 89.1266 177.7C90.1899 180.532 91.3553 183.578 93.5287 185.764C95.8127 188.063 99.1621 188.656 101.995 189.998C106.348 192.061 98.2519 196.112 96.6038 196.99C93.1395 198.836 89.4924 200.356 85.6752 201.307C84.8245 201.518 83.9682 201.7 83.1062 201.854C82.0259 202.045 80.9052 202.341 80.1141 201.388C79.5378 200.69 79.1465 199.791 78.7148 199C78.1959 198.055 77.6827 197.108 77.1751 196.156C75.2314 192.52 73.3473 188.847 71.5099 185.16C67.7777 177.717 64.1688 170.191 60.3729 162.769C56.7576 155.708 53.1212 148.561 48.566 142.049C46.4862 139.072 44.1384 136.341 41.712 133.651C39.328 131.008 36.908 128.335 35.0451 125.294C34.132 123.817 33.4001 122.235 32.8653 120.583C32.642 119.884 31.5383 120.181 31.7616 120.887V120.896Z" fill="#232323"/>
<path d="M30.8513 117.391C33.1714 127.095 39.2556 135.467 45.2739 143.315C47.3622 146.035 50.5904 148.844 51.8281 151.991C53.1615 155.377 53.5039 159.202 54.3907 162.707L57.9208 176.653C58.5588 179.161 59.2627 181.804 61.0554 183.671C64.2007 186.938 69.2577 186.476 73.3897 185.353C77.8556 184.139 82.5086 182.635 86.2556 179.864C89.0202 177.827 94.3941 175.186 93.4095 170.801C92.8353 168.249 90.2898 166.741 88.3886 164.946C84.918 161.674 83.3103 156.889 81.626 152.399C78.602 144.331 74.9336 136.261 70.5401 128.832C64.0794 117.91 56.2387 107.086 44.4679 102.01" fill="#CACCFA"/>
<path d="M30.0285 117.619C31.7297 124.539 35.2323 130.804 39.2707 136.616C41.242 139.451 43.2729 142.307 45.5037 144.946C47.6707 147.498 50.2205 149.837 51.3285 153.105C52.5236 156.619 52.9192 160.368 53.8294 163.951L56.8385 175.845C57.6062 178.88 58.3271 182.225 60.677 184.481C62.7781 186.491 65.7086 187.14 68.5454 187.012C71.6928 186.869 74.7955 185.915 77.7685 184.928C81.0094 183.852 84.0824 182.455 86.8661 180.462C90.4069 177.927 96.2891 174.656 93.8222 169.374C92.5463 166.66 89.5881 165.214 87.7295 162.964C85.5625 160.34 84.3014 157.078 83.1212 153.926C80.4778 146.866 77.5707 139.923 74.0257 133.262C68.0202 121.978 60.4367 110.146 49.2125 103.454C47.8249 102.629 46.3866 101.892 44.9062 101.248C43.9067 100.81 43.0326 102.286 44.0428 102.737C55.503 107.743 63.1439 118.102 69.3791 128.535C73.1376 134.874 76.401 141.494 79.1402 148.335C81.4794 154.107 83.0467 160.959 87.6657 165.427C89.518 167.218 92.6739 168.904 92.6781 171.834C92.6781 174.225 90.3899 175.956 88.6248 177.198C86.3834 178.773 84.1419 180.4 81.6581 181.578C78.6957 182.982 75.476 183.982 72.2904 184.743C69.5854 185.381 66.4848 185.747 63.8627 184.588C60.8046 183.235 59.703 180.09 58.9204 177.083C57.9762 173.451 57.0788 169.808 56.1559 166.171C55.267 162.654 54.5928 159.113 53.789 155.579C53.4211 153.96 52.9809 152.321 52.2451 150.826C51.5858 149.488 50.6586 148.293 49.7059 147.153C47.5793 144.616 45.4399 142.164 43.4622 139.497C39.4068 134.047 35.53 128.301 33.1375 121.898C32.5588 120.346 32.0724 118.762 31.6808 117.153C31.4193 116.09 29.7669 116.536 30.0285 117.608V117.619Z" fill="#CACCFA"/>
<path d="M102.66 189.432C100.206 188.211 96.5911 187.397 94.5155 185.579C92.5803 183.877 91.2703 180.996 90.2283 178.291C89.2473 178.632 88.3009 179.065 87.4021 179.586C86.6259 180.024 85.7965 180.524 85.4881 181.389C84.7757 183.412 87.3744 185.464 87.1894 187.637C87.0554 189.166 85.6051 190.102 84.2377 190.638C81.3965 191.754 78.2513 192.126 75.5824 193.6C75.4116 193.685 75.2546 193.796 75.1167 193.928C76.326 196.244 77.5602 198.541 78.8191 200.818C79.221 201.543 79.6697 202.306 80.4119 202.655C81.0329 202.944 81.7325 202.868 82.3875 202.772C88.98 201.787 95.111 199.002 100.746 195.542C102.139 194.691 103.611 193.651 104.015 192.007C104.162 191.41 104.134 190.712 103.753 190.206C103.453 189.868 103.079 189.603 102.66 189.432V189.432Z" fill="#232323"/>
<path d="M103.092 188.692C100.695 187.529 97.9881 186.937 95.7615 185.453C93.3074 183.824 92.0783 180.696 91.0533 178.063C90.8959 177.655 90.4727 177.298 90.0006 177.463C88.1951 178.101 85.3221 179.124 84.6649 181.162C84.0078 183.199 85.69 184.813 86.2131 186.655C86.9702 189.321 83.2465 190.138 81.3921 190.663C79.1209 191.301 76.3776 191.786 74.5104 193.321C74.2106 193.568 74.2106 194.047 74.3765 194.359C75.3944 196.304 76.43 198.242 77.4834 200.171C78.2724 201.609 79.0337 203.342 80.8264 203.663C82.4214 203.948 84.3864 203.323 85.9303 202.946C87.8697 202.47 89.774 201.86 91.6296 201.122C95.1494 199.741 98.5215 198.01 101.695 195.954C102.986 195.104 104.247 194.055 104.744 192.537C105.295 190.846 104.619 189.479 103.083 188.692C102.105 188.19 101.238 189.668 102.22 190.181C105.674 191.954 99.6107 195.255 98.2093 196.052C95.5134 197.61 92.688 198.933 89.7645 200.005C88.356 200.514 86.9213 200.947 85.4667 201.303C84.738 201.481 84.0043 201.637 83.2656 201.77C82.5639 201.898 81.6516 202.168 80.9477 201.953C80.2437 201.739 79.8844 200.982 79.5483 200.392C79.1443 199.678 78.7551 198.953 78.3638 198.232C77.5132 196.662 76.6739 195.087 75.8459 193.504L75.712 194.542C76.6455 193.777 78.0512 193.419 79.1826 193.075C80.3565 192.718 81.5495 192.437 82.7212 192.067C84.5905 191.497 86.8617 190.75 87.7358 188.824C88.5694 186.986 87.4678 185.266 86.6725 183.645C86.1961 182.663 85.9409 181.693 86.8979 180.921C87.9038 180.111 89.2371 179.55 90.4408 179.124L89.3775 178.527C90.4791 181.361 91.7508 184.481 94.1921 186.444C96.5207 188.309 99.566 188.9 102.205 190.181C103.215 190.65 104.085 189.175 103.092 188.692V188.692Z" fill="#232323"/>
<path d="M92.3102 186.448C92.7257 185.481 93.5569 184.754 94.5708 184.47C94.7536 184.407 94.856 184.213 94.805 184.026C94.754 183.839 94.567 183.724 94.3773 183.762C93.0886 184.024 92.1295 184.972 91.6446 186.168C91.4936 186.546 92.1444 186.825 92.3102 186.448V186.448Z" fill="white"/>
<path d="M95.4554 188.141C95.7138 187.446 96.1849 186.851 96.8015 186.44C97.2035 186.168 96.8377 185.517 96.4166 185.781C95.6235 186.289 95.0301 187.055 94.7366 187.95C94.5771 188.407 95.2938 188.588 95.4554 188.147V188.141Z" fill="white"/>
<path d="M98.4029 188.46L99.5385 187.397C99.866 187.095 99.3747 186.606 99.0515 186.91L97.9265 187.973C97.6075 188.273 98.086 188.747 98.4029 188.451V188.46Z" fill="white"/>
<path d="M43.8875 60.2027C52.4172 57.7018 59.0778 66.927 64.1773 72.0649C66.5166 74.4233 69.0685 76.5733 71.5971 78.719C74.9528 81.5559 79.4527 76.3479 81.8749 74.3085C85.567 71.2018 89.0302 67.8331 92.2378 64.2284C94.0497 62.1932 95.7829 60.0751 97.229 57.7656C98.4454 55.8219 99.4576 53.7442 100.844 51.9153C101.357 51.2391 101.944 50.582 102.718 50.2353C103.492 49.8887 104.493 49.9291 105.089 50.5352C106.518 51.9962 104.489 57.587 108.134 54.7246C111.092 52.4023 113.704 49.3953 116.428 46.7945C116.915 46.3288 117.419 45.8524 118.046 45.6142C118.674 45.3761 119.467 45.4313 119.918 45.9311C120.488 46.5691 120.29 47.5494 120.039 48.3618C119.577 49.8611 117.749 52.7936 117.885 54.2801C118.021 55.7666 120.05 55.6518 120.084 57.3913C120.107 58.5993 119.32 59.654 118.569 60.6025C119.329 59.7625 120.866 60.6599 120.985 61.7849C121.104 62.9099 120.368 63.9285 119.671 64.8196C120.358 64.558 121.16 65.0429 121.464 65.7106C121.768 66.3784 121.693 67.1588 121.527 67.8734C120.909 70.5401 118.927 72.4966 117.342 74.6062C115.36 77.241 112.781 79.4655 110.45 81.7792C106.505 85.6943 102.18 89.267 97.3332 92.0145C89.9645 96.1912 81.2072 98.3731 72.907 96.693C66.574 95.4065 60.9045 91.9996 55.3775 88.6502" fill="white"/>
<path d="M44.0639 60.8109C51.9217 58.797 57.8868 66.4953 62.5653 71.5354C64.088 73.1707 65.7021 74.7125 67.3629 76.2139C68.3553 77.1 69.3556 77.9754 70.3636 78.8403C71.0611 79.4357 71.7416 80.0248 72.6412 80.2863C75.8949 81.2284 79.021 78.1342 81.1731 76.1565C84.6012 73.0006 88.1143 70.0085 91.2957 66.6059C93.0486 64.7568 94.7005 62.8145 96.2443 60.7875C97.7159 58.8247 98.877 56.696 100.142 54.5991C100.765 53.5656 101.418 52.4151 102.32 51.5942C102.856 51.1073 103.998 50.4905 104.538 51.3178C105.034 52.077 104.791 53.4678 104.887 54.3333C104.993 55.2967 105.367 56.3919 106.514 56.4365C108.106 56.5003 109.75 54.5991 110.792 53.6464C112.87 51.7452 114.767 49.659 116.789 47.6919C117.215 47.2858 117.64 46.7754 118.191 46.5308C119.133 46.1055 119.467 46.7031 119.314 47.558C119.139 48.4894 118.652 49.3571 118.25 50.2077C117.593 51.6198 116.402 53.6826 117.238 55.2456C117.621 55.9602 118.318 56.209 118.852 56.7576C119.76 57.6933 118.518 59.199 117.921 59.9645C117.219 60.8598 118.306 62.0252 119.197 61.2405C119.735 60.7599 120.092 62.0359 120.047 62.3251C119.928 63.0885 119.341 63.7733 118.886 64.3666C118.376 65.028 119.214 65.8552 119.901 65.6872C121.451 65.3044 120.443 68.4518 120.194 69.0026C119.679 70.1467 118.918 71.1654 118.142 72.1436C116.585 74.1107 115.041 76.0416 113.251 77.8089C109.476 81.5389 105.678 85.2987 101.342 88.3844C92.9523 94.3538 82.3172 98.0732 72.0202 95.5809C66.1486 94.1582 60.9278 90.9853 55.7666 87.9591C54.8798 87.4381 54.0951 88.7906 54.9627 89.335C60.0538 92.5249 65.3171 95.6808 71.1802 97.2035C76.7093 98.641 82.5469 98.3497 88.025 96.8483C93.7668 95.2767 99.0535 92.3952 103.762 88.8034C106.134 86.9906 108.391 85.0332 110.522 82.9425C112.549 80.9647 114.671 79.0572 116.555 76.9391C117.632 75.729 118.608 74.4233 119.607 73.1495C120.477 72.0394 121.308 70.9038 121.868 69.6023C122.406 68.354 122.844 66.7931 122.308 65.4703C121.867 64.3018 120.621 63.6483 119.409 63.9498L120.426 65.2725C121.434 63.9668 122.504 62.1358 121.417 60.5536C120.605 59.367 119.022 58.9778 117.912 59.9645L119.188 61.2405C120.317 59.7987 121.755 57.6848 120.464 55.8879C120.06 55.3243 119.305 55.0946 118.924 54.5524C118.499 53.9399 119.003 52.9383 119.252 52.3322C119.92 50.6947 121.072 49.0402 121.166 47.2283C121.26 45.123 119.252 44.0384 117.421 44.9082C116.411 45.3888 115.607 46.3118 114.824 47.088C113.87 48.0343 112.938 49.0019 111.99 49.9568C111.088 50.867 110.176 51.7686 109.225 52.6257C108.757 53.051 108.279 53.4657 107.783 53.857C107.583 54.0164 106.769 54.4056 106.626 54.6119C106.641 54.5928 106.229 54.7629 106.648 54.648C106.879 54.5821 106.686 54.9139 106.765 54.6948C106.752 54.5554 106.724 54.4178 106.682 54.2844C106.597 53.7187 106.622 53.1318 106.582 52.5619C106.492 51.3391 106.267 50.0652 105.093 49.4379C103.205 48.432 101.323 49.8377 100.202 51.2816C98.5857 53.3636 97.4735 55.773 96.0274 57.9677C93.0842 62.4335 89.2223 66.3848 85.3263 70.0361C83.625 71.6417 81.8068 73.1261 80.0843 74.7146C78.7636 75.9311 77.4345 77.2006 75.8311 78.0513C75.1399 78.4192 74.3424 78.7361 73.5364 78.6552C72.3945 78.5383 71.5204 77.509 70.6911 76.8157C68.6495 75.1145 66.6314 73.3749 64.7366 71.4992C59.2074 66.0105 52.7192 56.8852 43.7087 59.5903C42.9304 59.8242 43.2537 61.013 44.0447 60.8088L44.0639 60.8109Z" fill="#232323"/>
<path d="M50.3759 112.009C51.4541 119.042 48.5279 125.983 46.8436 132.892C44.8786 140.956 44.5915 149.356 44.3321 157.676C43.8493 173.187 44.3193 188.907 43.4814 204.35C43.4346 205.177 43.3581 206.071 42.8435 206.689C42.4181 207.223 41.7504 207.461 41.1167 207.659C34.7624 209.645 28.0253 209.816 21.4435 209.165C19.8166 209.003 18.0409 208.712 16.9627 207.41C16.5693 206.936 16.2886 206.298 16.4119 205.677C16.5311 205.241 16.7494 204.837 17.0499 204.499C18.7172 202.336 21.6285 200.008 22.696 197.481C24.1039 194.149 23.3744 189.236 23.0597 185.74C21.6704 170.268 21.306 154.72 21.9687 139.2C22.5684 125.164 24.3654 110.214 32.8697 99.4449" fill="white"/>
<path d="M49.8228 112.162C50.9435 120.065 47.1454 127.708 45.5951 135.295C44.0087 143.053 43.7833 151.032 43.5494 158.922C43.3069 167.058 43.3261 175.199 43.2559 183.337C43.2197 187.437 43.1644 191.537 43.0432 195.637C42.9851 197.645 42.9107 199.652 42.8199 201.658C42.7753 202.608 42.7391 203.559 42.6732 204.508C42.5966 205.607 42.3159 206.407 41.2144 206.806C37.5438 208.14 33.4501 208.586 29.5691 208.695C27.6552 208.748 25.7242 208.695 23.8081 208.569C22.1069 208.457 20.0866 208.493 18.5491 207.674C17.7601 207.249 16.8712 206.428 17.3518 205.469C17.7069 204.761 18.4151 204.125 18.9425 203.555C20.0058 202.396 21.1414 201.281 22.1005 200.025C24.0463 197.473 24.4397 194.476 24.3334 191.348C24.2228 187.878 23.7486 184.407 23.4828 180.947C23.1751 176.836 22.9384 172.716 22.7725 168.587C22.4464 160.408 22.406 152.223 22.6513 144.031C23.0553 130.51 23.7146 115.811 30.8217 103.881C31.6534 102.488 32.5674 101.145 33.5586 99.8597C34.1136 99.1388 32.8589 98.1584 32.2826 98.8793C23.4658 109.957 21.7219 124.824 21.1116 138.515C20.7288 147.133 20.6686 155.759 20.9308 164.393C21.1754 172.623 21.8283 180.804 22.5279 189.005C22.8065 192.258 23.0341 195.88 21.0669 198.681C20.0526 200.125 18.749 201.345 17.5644 202.647C16.616 203.689 15.2741 204.986 15.6122 206.526C16.365 209.967 21.084 209.998 23.7975 210.177C27.7673 210.466 31.7568 210.316 35.6937 209.73C37.7086 209.445 39.6933 208.976 41.6227 208.329C43.0943 207.806 43.9407 206.86 44.1533 205.299C44.4255 203.287 44.3979 201.201 44.4723 199.176C44.5517 197.028 44.6127 194.88 44.6552 192.73C44.8317 184.171 44.7785 175.611 44.8785 167.052C44.9742 158.624 45.0273 150.115 45.9971 141.745C46.5117 137.513 47.3586 133.328 48.5299 129.228C49.608 125.36 50.7755 121.483 51.1094 117.462C51.2634 115.593 51.2042 113.713 50.9329 111.858C50.8287 111.131 49.7271 111.433 49.8292 112.162H49.8228Z" fill="#232323"/>
<path d="M50.1929 108.34C52.3472 118.082 50.5396 128.279 48.5555 137.962C47.8664 141.32 46.1928 145.25 46.4544 148.631C46.7372 152.246 48.1004 155.849 48.834 159.387L51.7581 173.474C52.2855 176.005 52.8044 178.693 52.0048 181.149C50.6034 185.462 45.8547 187.259 41.6483 188.054C37.0995 188.905 32.2572 189.596 27.6765 188.743C24.3058 188.105 18.3195 188.105 17.2796 183.72C16.6777 181.168 18.311 178.705 19.236 176.26C20.9245 171.794 20.2781 166.792 19.8293 162.012C19.0212 153.433 18.7916 144.573 19.4955 135.967C20.529 123.32 22.8491 110.157 31.213 100.453" fill="#CACCFA"/>
<path d="M49.3654 108.568C50.888 115.633 50.3564 122.916 49.191 129.989C48.636 133.366 48.0554 136.782 47.1452 140.082C46.3435 142.989 45.3397 145.962 45.6332 149.014C45.9607 152.444 47.1346 155.7 47.8853 159.043C48.6998 162.671 49.4016 166.326 50.1586 169.969C50.8476 173.289 52.2044 177.161 51.2878 180.547C50.5818 183.158 48.3978 184.866 46.0054 185.895C43.3854 187.02 40.4762 187.465 37.6627 187.856C34.2287 188.363 30.7378 188.348 27.3083 187.811C23.4549 187.197 16.6753 186.725 18.2405 181.021C18.6658 179.503 19.4293 178.112 19.9971 176.649C20.5712 175.119 20.9332 173.518 21.0731 171.89C21.3985 168.598 20.9923 165.297 20.6861 162.012C19.9759 154.795 19.7719 147.538 20.0757 140.293C20.6372 128.184 22.2619 115.065 29.067 104.712C29.9082 103.438 30.8272 102.218 31.8188 101.057C32.5312 100.223 31.3255 99.0047 30.6067 99.8447C22.2449 109.646 19.7886 122.635 18.7105 135.116C18.0856 142.701 18.0593 150.323 18.6318 157.911C18.8912 161.563 19.4229 165.212 19.4824 168.876C19.5377 170.68 19.3655 172.483 18.9699 174.244C18.5573 175.928 17.7748 177.449 17.1283 179.048C16.1118 181.557 15.8523 184.462 17.9002 186.533C19.4335 188.079 21.6983 188.66 23.776 189.011C26.4343 189.468 29.1648 189.957 31.8571 189.989C35.4383 190.032 39.0727 189.487 42.5667 188.741C47.9002 187.601 53.1784 184.583 53.2741 178.501C53.3017 176.732 52.9423 174.971 52.5872 173.246C52.1874 171.311 51.7862 169.377 51.3835 167.445C50.6116 163.73 49.9438 159.974 48.9699 156.306C48.0469 152.827 46.8539 149.258 47.5046 145.626C48.1086 142.258 49.2357 138.993 49.8992 135.631C51.3283 128.373 52.4979 120.93 51.8408 113.514C51.6791 111.699 51.4049 109.896 51.0199 108.115C50.7881 107.037 49.1357 107.494 49.3675 108.57L49.3654 108.568Z" fill="#CACCFA"/>
<path d="M50.5755 67.8032C51.492 69.8745 53.4102 69.8129 54.8287 71.2781C56.0977 72.6378 56.6295 74.5281 56.2556 76.35C55.96 77.6855 55.2476 78.8849 54.784 80.1779C53.0827 84.8883 54.8584 90.0347 55.692 94.9705C56.1174 97.465 57.4061 99.7363 55.339 101.933C54.1758 103.169 52.5255 103.817 50.9008 104.311C43.3804 106.567 35.3263 106.284 27.9824 103.507C26.849 103.081 25.7027 102.558 24.8797 101.667C23.1104 99.7533 23.3422 96.776 23.7888 94.2092C25.2774 85.6114 27.9867 79.6952 27.3508 70.991" fill="white"/>
<path d="M50.0185 68.1243C50.5289 69.2961 51.4008 69.9787 52.4832 70.5997C53.7974 71.3546 54.8501 72.1904 55.3137 73.7024C55.8241 75.359 55.2776 76.8434 54.6098 78.3639C53.9335 79.809 53.4872 81.351 53.2871 82.934C52.9192 86.2834 53.7336 89.6455 54.3908 92.9098C54.7034 94.4708 55.0096 96.0232 55.3562 97.5777C55.7241 99.2301 55.5498 100.597 54.1802 101.735C52.9766 102.735 51.4008 103.207 49.927 103.622C48.2543 104.091 46.548 104.432 44.8232 104.64C41.4093 105.053 37.9531 104.959 34.5666 104.362C32.9579 104.078 31.3706 103.684 29.8158 103.183C28.3463 102.707 26.5897 102.203 25.5158 101.021C23.4806 98.7814 24.529 94.9259 25.0607 92.3165C25.7731 88.814 26.7471 85.371 27.4489 81.8664C28.1835 78.2889 28.4367 74.6292 28.2017 70.9846C28.1272 69.8915 26.4132 69.883 26.4876 70.9846C26.9768 78.2278 24.6758 85.0202 23.2701 92.023C22.681 94.9599 21.8772 98.4837 23.4615 101.257C25.0777 104.083 29.1225 105.012 32.0466 105.723C38.7794 107.352 46.6946 107.252 53.1339 104.479C54.6226 103.841 56.0857 102.858 56.8491 101.384C57.5254 100.074 57.4361 98.6538 57.132 97.2545C56.3494 93.6584 55.3648 90.0113 55.0245 86.3386C54.8267 84.212 54.9479 82.0663 55.7327 80.0524C56.4344 78.2533 57.3765 76.5988 57.1596 74.5977C56.9852 72.973 56.2345 71.361 54.9437 70.3253C53.6528 69.2897 51.9771 69.0324 51.1158 67.4842C50.7117 66.7505 49.6995 67.397 50.0164 68.1222L50.0185 68.1243Z" fill="#232323"/>
<path d="M52.649 127.552C53.5443 126.431 54.4247 125.321 54.9882 123.988C55.5518 122.655 55.7538 121.236 55.8665 119.822C56.1217 116.583 56.26 113.23 56.2089 109.991C56.194 109.053 54.8479 109.081 54.7692 109.991C54.5161 112.945 54.5565 115.928 54.4226 118.888C54.3545 120.309 54.2312 121.727 53.7973 123.086C53.3635 124.445 52.5809 125.694 51.809 126.904C51.4879 127.405 52.2662 128.033 52.6596 127.552H52.649Z" fill="#232323"/>
<path d="M17.0562 204.507C18.7234 202.345 21.6347 200.016 22.7023 197.49C23.7039 195.118 23.6231 191.95 23.3807 189.06C24.4126 188.939 25.4536 188.917 26.4898 188.994C27.3787 189.049 28.342 189.138 28.9949 189.783C30.5175 191.291 29.0757 194.272 30.1922 196.143C30.9811 197.462 32.693 197.673 34.1583 197.558C37.2014 197.322 40.1936 196.282 43.2389 196.445C43.4301 196.449 43.6198 196.48 43.8024 196.537C43.7216 199.148 43.6195 201.753 43.477 204.352C43.4303 205.179 43.3537 206.073 42.8391 206.691C42.4137 207.225 41.746 207.463 41.1123 207.661C34.758 209.647 28.0209 209.818 21.4391 209.167C19.8122 209.005 18.0365 208.714 16.9583 207.412C16.5649 206.938 16.2842 206.3 16.4075 205.679C16.5307 205.244 16.7527 204.843 17.0562 204.507V204.507Z" fill="#232323"/>
<path d="M17.6557 205.114C19.4569 202.83 21.9281 200.967 23.2465 198.325C24.6565 195.501 24.4778 192.114 24.2312 189.058L23.3805 189.908C24.6113 189.75 25.8569 189.744 27.0893 189.889C28.3419 190.061 28.8395 190.74 28.8905 191.956C28.9692 193.798 28.5439 195.846 30.0219 197.273C31.4467 198.655 33.652 198.5 35.4596 198.255C36.7547 198.081 38.0328 197.813 39.3194 197.594C40.606 197.375 42.2477 197.028 43.5726 197.349L42.9389 196.541C42.8878 198.19 42.8269 199.837 42.756 201.481C42.7205 202.305 42.6801 203.127 42.6348 203.946C42.5986 204.603 42.6348 205.45 42.269 206.026C41.833 206.7 40.8335 206.876 40.119 207.076C39.4045 207.276 38.7112 207.459 37.9924 207.621C36.3904 207.984 34.7676 208.248 33.1331 208.412C30.0325 208.707 26.9125 208.744 23.8058 208.52C22.1599 208.41 15.427 208.078 17.7833 204.948C18.4447 204.065 16.9582 203.21 16.2947 204.082C15.2548 205.464 15.3079 207.004 16.5456 208.263C17.6089 209.345 19.1209 209.741 20.5862 209.937C24.4831 210.448 28.424 210.536 32.3399 210.198C34.3281 210.038 36.3032 209.744 38.2518 209.318C39.8128 208.973 41.9883 208.68 43.2004 207.553C44.4126 206.426 44.3084 204.627 44.3828 203.125C44.4934 200.933 44.5799 198.736 44.6423 196.533C44.6399 196.149 44.3842 195.813 44.0149 195.708C41.5587 195.114 38.7112 196.001 36.289 196.414C34.4218 196.733 30.9852 197.419 30.611 194.731C30.3643 192.956 31.0554 190.878 29.7603 189.368C28.3312 187.703 25.2945 187.982 23.3656 188.201C22.9403 188.247 22.4682 188.554 22.515 189.051C22.7425 191.858 23.0296 195.159 21.624 197.721C20.3267 200.088 18.0959 201.796 16.4414 203.889C15.7673 204.758 16.9731 205.979 17.6557 205.114V205.114Z" fill="#232323"/>
<path d="M91.0917 62.9546C89.471 68.2126 87.2391 73.2623 84.4418 78.0003C82.9681 80.4799 82.3663 80.7649 79.5209 80.0014C76.8107 79.2606 74.1639 78.3048 71.6057 77.1433C71.3334 77.0361 71.0789 76.8884 70.8507 76.7052C70.317 76.2309 70.1851 75.4292 70.334 74.7274C70.4828 74.0257 70.8678 73.4089 71.2357 72.7965C74.3128 67.6926 76.5628 62.2634 78.7617 56.7428C78.9488 56.2728 79.1487 55.7837 79.5315 55.4519C80.4396 54.6651 81.8325 55.1202 82.9341 55.6093L88.6759 58.1612C89.7541 58.644 90.9386 59.2373 91.3235 60.3537C91.5979 61.1959 91.3533 62.1103 91.0917 62.9546Z" fill="#CACCFA"/>
<path d="M90.5366 62.8015C89.0529 67.2119 87.1643 71.4755 84.8947 75.5377C84.4183 76.4011 83.9377 77.2645 83.4061 78.0896C83.102 78.566 82.7447 79.1955 82.1982 79.4294C81.6516 79.6633 81.0136 79.4804 80.4969 79.3613C79.4059 79.1104 78.3299 78.7701 77.2666 78.4214C76.2033 78.0726 75.1123 77.6813 74.049 77.2517C73.1622 76.8902 71.3078 76.4543 71.193 75.3378C71.0973 74.4021 72.0181 73.3388 72.469 72.5881C73.0715 71.5673 73.6457 70.5303 74.1915 69.4769C76.3054 65.4236 77.862 61.164 79.7207 57.0022C80.2757 55.7646 81.1349 55.9389 82.2726 56.3962C83.4911 56.8874 84.6799 57.4595 85.8878 58.0039C87.0085 58.5079 88.1973 58.946 89.2606 59.5669C90.5685 60.3304 90.5514 61.3171 90.1538 62.6845C89.7965 63.918 91.6934 64.4326 92.0677 63.214C92.4335 62.0295 92.7057 60.7366 92.0847 59.5818C91.5828 58.6333 90.6705 58.0145 89.7327 57.5509C88.4291 56.9129 87.0723 56.3579 85.7432 55.7667C84.5374 55.2308 83.3231 54.5524 82.0429 54.2121C81.0222 53.9421 79.9163 53.9357 79.0465 54.5907C78.1108 55.2903 77.7982 56.5408 77.3835 57.5679C76.2926 60.2942 75.1761 63.0099 73.9321 65.6703C72.7157 68.2669 71.1675 70.6805 69.9149 73.2452C69.4216 74.2511 69.1685 75.3888 69.6321 76.4543C70.0957 77.5197 71.1207 77.8812 72.1202 78.3065C74.7147 79.3975 77.4197 80.4331 80.18 81.0265C81.7473 81.3603 83.1041 81.22 84.1674 79.9249C86.0005 77.6941 87.2637 74.7509 88.4206 72.1266C89.6903 69.186 90.7749 66.1688 91.6679 63.0928C91.8593 62.3932 90.7662 62.1018 90.5366 62.8015V62.8015Z" fill="#CACCFA"/>
<path d="M25.5201 196.754C24.544 195.884 23.2808 195.478 21.9985 195.805C21.5306 195.92 21.7369 196.584 22.192 196.511C23.1952 196.337 24.2246 196.613 25.0055 197.266C25.3585 197.564 25.871 197.067 25.5201 196.754V196.754Z" fill="white"/>
<path d="M23.5126 199.695C22.8517 199.022 21.9789 198.598 21.0414 198.493C20.6161 198.445 20.514 199.18 20.9415 199.242C21.7096 199.343 22.4255 199.687 22.9852 200.222C23.3318 200.554 23.8549 200.033 23.5126 199.695V199.695Z" fill="white"/>
<path d="M20.6544 201.128L19.1658 200.663C18.7405 200.531 18.5597 201.198 18.9829 201.328L20.4715 201.781C20.8968 201.909 21.0648 201.26 20.6501 201.128H20.6544Z" fill="white"/>
<path d="M34.8027 60.9874C27.2341 68.7708 17.4815 79.3995 19.1041 90.1367C19.6238 93.5365 20.6451 96.8404 22.1345 99.9404C25.7094 107.417 32.8143 113.306 40.9613 115.039C44.9274 115.89 49.2997 116.283 53.2169 115.222C58.1364 113.903 62.6783 111.449 66.4784 108.058C66.7783 107.785 67.076 107.509 67.3652 107.224C69.8065 104.842 72.3904 101.85 74.2192 98.9749C75.8844 96.357 77.4453 93.9263 81.035 94.1411C81.7623 94.1837 82.5768 94.324 83.1467 93.8711C84.0526 93.1523 83.5422 91.7125 82.9638 90.7109C84.1037 91.6105 85.9559 91.5084 86.8831 90.3919C87.8103 89.2755 87.4722 87.3126 86.1643 86.6853C87.6168 87.3743 89.5031 86.3131 89.9539 84.7713C90.4048 83.2295 89.6222 81.5027 88.342 80.5181C89.6902 80.8605 90.9237 79.3294 90.8173 77.9407C90.711 76.552 89.7349 75.4037 88.7545 74.4169C86.26 71.9054 83.37 69.7214 80.0653 68.4497C78.2406 67.7458 73.4941 67.8989 74.1576 64.7706C74.2341 64.4091 74.3957 64.0412 74.2937 63.6882C74.081 62.929 72.9794 62.9801 72.2394 63.2629C68.3817 64.6962 65.3683 67.7288 62.6463 70.823C60.0405 73.7775 57.5779 76.8512 55.2585 80.0439C53.2042 82.8744 51.1967 85.7049 49.4614 88.7459C49.1849 89.2287 46.1779 95.2363 45.793 95.1576C44.6063 94.4793 42.971 93.9646 41.9906 93.031C41.0102 92.0975 40.3808 90.3366 39.7237 89.1053C36.5338 83.1509 35.9957 80.0588 36.3615 73.309" fill="white"/>
<path d="M34.3028 60.4877C28.4951 66.3805 22.3939 72.7284 19.4677 80.633C18.0845 84.3398 17.7994 88.3668 18.6468 92.2314C19.5293 96.4698 21.1838 100.659 23.6613 104.221C28.3994 111.026 35.5979 115.28 43.7683 116.409C48.4107 117.047 52.7809 116.577 57.1383 114.837C61.1735 113.238 64.8577 110.867 67.9839 107.856C69.8875 106.006 71.6483 104.016 73.2515 101.901C74.5806 100.151 75.5908 98.0477 77.1538 96.491C77.7767 95.839 78.5715 95.3767 79.4463 95.1576C80.5713 94.8982 81.7324 95.3023 82.8382 95.0088C85.1477 94.3963 84.6076 91.8189 83.7463 90.2473L82.4916 91.502C84.0887 92.6355 86.5938 92.4547 87.7443 90.7535C88.831 89.1457 88.3142 86.8341 86.6214 85.8814L85.9069 87.5827C87.7379 88.3206 89.8688 87.2424 90.6556 85.4944C91.5509 83.5017 90.5897 81.1837 88.9883 79.8738L88.0845 81.4241C89.6433 81.6814 90.9916 80.7861 91.5254 79.2975C92.1293 77.6174 91.3 75.9566 90.2345 74.6742C87.7446 71.7298 84.6077 69.4008 81.0689 67.8691C79.9822 67.4055 78.8934 67.2141 77.7429 66.9695C76.939 66.7994 75.4355 66.5889 75.0761 65.6936C74.8209 65.0556 75.3101 64.3453 75.2144 63.6839C75.1282 63.0207 74.6654 62.4675 74.0277 62.2655C72.5391 61.7551 70.7889 62.7738 69.5406 63.484C66.0785 65.4533 63.3735 68.5007 60.8215 71.4907C58.0229 74.7614 55.42 78.1831 52.934 81.6984C51.0612 84.2881 49.368 87.003 47.8663 89.8241C47.3283 90.8598 46.7881 91.8954 46.216 92.9141C45.9885 93.3181 45.7588 93.7264 45.5036 94.1135C45.4462 94.2028 45.3229 94.3751 45.325 94.3814C45.3356 94.4729 44.5722 94.7685 45.6185 94.3432C46.2331 94.0922 45.7907 94.1305 45.4292 93.9519C44.5211 93.5138 43.5004 93.148 42.7327 92.476C42.0266 91.8593 41.6162 90.9576 41.2185 90.1367C40.336 88.2972 39.3237 86.5215 38.5794 84.6203C37.1397 80.9562 37.0015 77.19 37.1695 73.3004C37.2163 72.2499 35.6064 72.2605 35.5426 73.3004C35.347 76.5244 35.2917 79.7866 36.1423 82.9297C36.993 86.0728 38.5879 89.1776 40.168 92.0273C40.9591 93.4542 42.0458 94.3347 43.5025 95.0364C44.3957 95.4618 45.7142 96.5655 46.601 95.6744C47.1858 95.079 47.5792 94.2028 47.979 93.484C48.5085 92.527 49.0168 91.5594 49.5208 90.5897C50.9677 87.8867 52.5984 85.2861 54.4013 82.8063C56.8724 79.3145 59.469 75.9183 62.2697 72.6752C64.7281 69.8213 67.3162 66.8824 70.6507 65.0322C71.3376 64.6516 72.1733 64.139 72.9687 64.037C73.545 63.9647 73.3749 64.0923 73.2643 64.5388C73.1868 64.8588 73.1567 65.1884 73.1749 65.5171C73.2345 66.591 73.8937 67.431 74.8103 67.9563C75.8736 68.5539 77.1092 68.7495 78.2873 68.9813C79.9056 69.3003 81.3496 69.9766 82.7659 70.8229C84.6152 71.9541 86.3223 73.3027 87.8506 74.8401C88.5822 75.5653 89.3711 76.3287 89.7284 77.324C90.0027 78.0789 89.8007 79.8376 88.5928 79.6398C87.7889 79.508 86.8915 80.5373 87.689 81.1923C88.6502 81.9791 89.4626 83.2402 89.0628 84.5331C88.9 85.0671 88.5214 85.5087 88.0185 85.7511C87.5156 85.9935 86.9342 86.0145 86.4152 85.8091C85.4284 85.4136 84.8032 87 85.7006 87.5104C86.0956 87.74 86.3715 88.1297 86.4568 88.5786C86.542 89.0274 86.4283 89.4912 86.1451 89.8496C85.4433 90.6726 84.2311 90.4876 83.4315 89.939C82.6319 89.3903 81.7622 90.443 82.1768 91.1937C82.5915 91.9444 83.221 93.1246 81.9961 93.3033C81.0987 93.433 80.1778 93.1905 79.2549 93.367C77.7812 93.6499 76.5116 94.5069 75.527 95.6191C74.3999 96.8951 73.5875 98.3837 72.6199 99.7787C71.3098 101.617 69.8684 103.358 68.3072 104.989C62.5483 111.111 54.5374 115.554 45.9289 114.914C38.135 114.335 31.0428 110.873 26.1239 104.742C23.6379 101.648 21.9196 98.0009 20.8266 94.2007C19.7335 90.4004 19.3677 86.6172 20.4735 82.7447C22.8596 74.3956 29.4372 67.599 35.2938 61.4787C35.9318 60.8237 34.9344 59.8305 34.2943 60.4813L34.3028 60.4877Z" fill="#232323"/>
<path d="M32.8142 60.2559C27.3127 62.5653 23.2041 67.531 21.0137 73.0814C18.8233 78.6318 18.3831 84.7351 18.7064 90.6939C18.8871 94.0326 19.4337 97.3374 20.6203 100.453C20.8469 100.956 20.9864 101.494 21.0329 102.044C21.0456 102.573 20.8776 103.09 20.7968 103.613C20.2928 106.922 23.1701 108.672 26.1133 108.778C26.645 108.798 27.2277 108.761 27.6211 108.406C27.9422 108.117 28.0677 107.677 28.1953 107.266C29.6073 102.697 32.5264 98.7399 36.4762 96.0423C37.7267 95.1916 39.0983 94.4707 40.5891 94.2198C41.763 94.0199 43.1559 94.0326 43.8683 93.0778C44.6147 92.0783 44.0937 90.5897 43.2006 89.7199C42.3074 88.8501 41.1186 88.3461 40.1659 87.5401C36.1254 84.1227 36.0871 78.1023 36.338 73.2919" fill="white"/>
<path d="M32.6272 59.5754C26.0007 62.3017 21.5242 68.3391 19.4422 75.0592C18.1897 79.0997 17.741 83.3529 17.741 87.5764C17.7516 91.753 18.128 95.9956 19.4954 99.9681C19.8718 101.055 20.2014 101.81 20.0015 102.981C19.8527 103.849 19.7676 104.683 19.9739 105.55C20.2929 106.903 21.2499 108.007 22.4322 108.696C23.7452 109.456 25.2577 109.801 26.7705 109.684C28.7716 109.482 28.9822 107.664 29.5883 106.108C30.96 102.615 33.2783 99.5731 36.2828 97.3247C37.8565 96.1572 39.4982 95.3087 41.4483 95.0301C42.9688 94.8174 44.6169 94.3921 45.0635 92.6908C45.542 90.8768 44.2724 89.2606 42.888 88.276C41.1867 87.0639 39.6981 86.1218 38.6837 84.2121C36.9527 80.9286 37.0526 76.9008 37.1696 73.292C37.2036 72.2287 35.6193 72.2585 35.5427 73.292C35.1174 79.0572 35.4874 85.6412 40.8231 89.1118C41.6737 89.6604 44.5255 91.4999 42.8986 92.727C42.2989 93.1778 41.3611 93.1523 40.6487 93.265C39.8426 93.392 39.0563 93.6229 38.3094 93.9519C35.3322 95.2449 32.7463 97.6437 30.8004 100.21C29.7991 101.527 28.9528 102.954 28.2783 104.464C27.9784 105.142 27.7041 105.831 27.4702 106.535C27.3383 106.933 27.2575 107.564 26.8471 107.79C26.5408 107.96 25.9263 107.843 25.5711 107.802C24.2951 107.649 22.8767 107.116 22.1281 105.997C21.1563 104.542 22.1409 103.02 21.8708 101.465C21.7305 100.655 21.3519 99.8936 21.0925 99.1259C20.7723 98.1543 20.5047 97.1661 20.2908 96.1657C19.8878 94.2324 19.6431 92.2694 19.5592 90.2963C19.3614 86.4216 19.4805 82.5023 20.2461 78.6893C21.7475 71.21 26.0007 64.0774 33.1716 60.8578C33.8925 60.5345 33.3694 59.2607 32.6272 59.5669V59.5754Z" fill="#232323"/>
<path d="M46.0246 40.7381C46.8621 40.3304 47.7964 40.1633 48.7233 40.2554C49.5234 40.3072 50.2811 40.6332 50.869 41.1783C51.4283 41.7397 51.7197 42.6074 51.456 43.3559C51.309 43.7392 51.0737 44.0824 50.7691 44.3576C49.8196 45.2545 48.5599 45.7491 47.2538 45.7377C45.9544 45.7195 44.7007 45.2555 43.7024 44.4235" fill="#232323"/>
<path d="M46.4034 41.393C47.4369 40.9464 48.7575 40.8188 49.774 41.3824C50.9777 42.0501 50.8373 43.2602 49.8314 44.0215C48.06 45.3464 45.8313 44.8722 44.1406 43.6834C43.3496 43.1305 42.3628 44.3958 43.1029 45.0295C44.4434 46.2279 46.2341 46.7925 48.0196 46.5798C49.6018 46.3672 51.4221 45.4421 52.1282 43.9301C52.7959 42.4925 52.0474 40.8422 50.7395 40.0639C49.1764 39.1325 47.2242 39.3557 45.6356 40.0852C44.7446 40.4977 45.5208 41.7716 46.3991 41.393H46.4034Z" fill="#232323"/>
<path d="M35.396 49.5081C35.768 51.451 36.2899 53.3621 36.957 55.2244C37.5184 56.779 38.0203 58.2208 37.9416 59.9029C37.9121 60.467 37.8539 61.0291 37.7672 61.5872C37.6779 62.1975 37.3695 62.9631 37.7204 63.5203C38.1287 64.1583 39.0325 64.7303 39.6343 65.1918C40.3357 65.7394 41.0708 66.2423 41.8354 66.6974C42.4088 67.065 43.0348 67.3432 43.6919 67.5226C44.3542 67.7012 45.0588 67.6348 45.676 67.3354C46.7266 66.7719 47.1412 65.447 47.0881 64.2582C47.0349 63.0695 46.6224 61.919 46.4501 60.7472C46.3453 60.2163 46.3686 59.6681 46.5182 59.148C46.8903 58.0592 48.2854 57.7359 49.1147 57.0767C50.0403 56.345 50.7484 55.3743 51.1626 54.2696C52.0601 51.8282 51.5178 49.0148 50.1631 46.7946C49.6038 45.8922 48.9345 45.0628 48.1705 44.3256C45.6311 41.8145 41.7889 41.1671 38.5668 42.7073C36.4083 43.7535 34.6602 45.7419 35.396 49.5081V49.5081Z" fill="white"/>
<path d="M34.7368 49.6889C34.9611 51.125 35.2758 52.5455 35.6788 53.9421C36.1042 55.3818 36.7421 56.7875 36.9846 58.2782C37.2228 59.6775 36.9399 60.9684 36.7464 62.3464C36.5593 63.6755 37.2547 64.473 38.235 65.2577C40.0575 66.6889 42.4308 68.8219 44.9359 68.4987C47.5304 68.1626 48.2428 65.4534 47.8898 63.2247C47.7175 62.1444 46.7776 60.156 47.5665 59.1714C47.8877 58.7695 48.4895 58.5611 48.9254 58.3207C49.4024 58.0479 49.8438 57.7172 50.2397 57.3361C52.0388 55.5944 52.7427 53.0829 52.4513 50.631C51.8729 45.7717 47.7835 41.359 42.8242 40.9741C40.4637 40.7891 37.8905 41.5738 36.1637 43.2283C34.354 44.9636 34.0775 47.4049 34.505 49.7654C34.7176 50.9244 36.4657 50.4289 36.2679 49.2784C35.9638 47.5134 36.1977 45.7334 37.5758 44.4766C38.8836 43.2814 40.7657 42.7604 42.5159 42.8327C46.7797 43.0092 50.4056 47.1412 50.6288 51.3051C50.7373 53.3254 49.9653 55.4371 48.2003 56.5599C46.6798 57.5275 45.3187 58.2059 45.4357 60.2751C45.5293 61.9104 47.2369 65.4789 45.189 66.5507C44.1257 67.1036 42.8285 66.2593 41.9502 65.7234C41.0372 65.1538 40.1535 64.5384 39.3026 63.8797C38.6391 63.3735 38.3477 63.1588 38.4923 62.3124C38.5795 61.7935 38.6688 61.2831 38.722 60.76C38.8532 59.5431 38.7588 58.3124 38.4434 57.1298C37.7395 54.5014 36.6613 52.0047 36.0404 49.3401C35.8511 48.4576 34.5943 48.8382 34.7368 49.6889V49.6889Z" fill="#232323"/>
<path d="M34.7368 49.6889C34.9611 51.125 35.2758 52.5455 35.6788 53.9421C36.1042 55.3818 36.7421 56.7875 36.9846 58.2782C37.2228 59.6775 36.9399 60.9684 36.7464 62.3464C36.5593 63.6755 37.2547 64.473 38.235 65.2577C40.0575 66.6889 42.4308 68.8219 44.9359 68.4987C47.5304 68.1626 48.2428 65.4534 47.8898 63.2247C47.7175 62.1444 46.7776 60.156 47.5665 59.1714C47.8877 58.7695 48.4895 58.5611 48.9254 58.3207C49.4024 58.0479 49.8438 57.7172 50.2397 57.3361C52.0388 55.5944 52.7427 53.0829 52.4513 50.631C51.8729 45.7717 47.7835 41.359 42.8242 40.9741C40.4637 40.7891 37.8905 41.5738 36.1637 43.2283C34.354 44.9636 34.0775 47.4049 34.505 49.7654C34.7176 50.9244 36.4657 50.4289 36.2679 49.2784C35.9638 47.5134 36.1977 45.7334 37.5758 44.4766C38.8836 43.2814 40.7657 42.7604 42.5159 42.8327C46.7797 43.0092 50.4056 47.1412 50.6288 51.3051C50.7373 53.3254 49.9653 55.4371 48.2003 56.5599C46.6798 57.5275 45.3187 58.2059 45.4357 60.2751C45.5293 61.9104 47.2369 65.4789 45.189 66.5507C44.1257 67.1036 42.8285 66.2593 41.9502 65.7234C41.0372 65.1538 40.1535 64.5384 39.3026 63.8797C38.6391 63.3735 38.3477 63.1588 38.4923 62.3124C38.5795 61.7935 38.6688 61.2831 38.722 60.76C38.8532 59.5431 38.7588 58.3124 38.4434 57.1298C37.7395 54.5014 36.6613 52.0047 36.0404 49.3401C35.8511 48.4576 34.5943 48.8382 34.7368 49.6889V49.6889Z" fill="#232323"/>
<path d="M48.9213 47.139C48.0026 47.2858 47.1201 47.743 47.1796 48.802C47.2213 49.234 47.3942 49.6429 47.6751 49.9738C47.8686 50.2205 48.2195 50.4289 48.3769 50.6883C48.5895 50.7755 48.6129 50.901 48.462 51.0456C48.3146 51.1517 48.162 51.2504 48.0047 51.3412C47.5071 51.6453 47.9431 52.3747 48.4598 52.1174C49.0978 51.7963 49.9484 51.2519 49.4147 50.4565C49.1722 50.0886 48.7363 49.8781 48.4386 49.5633C48.1812 49.289 47.8367 48.8531 47.9643 48.4362C48.1132 47.9471 48.6767 47.8493 49.0914 47.7621C49.5061 47.6749 49.3232 47.0752 48.9213 47.139V47.139Z" fill="#232323"/>
<path d="M45.0295 50.0185L45.123 50.0929C45.1015 50.067 45.0823 50.0393 45.0656 50.01V49.8271L45.4484 49.6931L45.4803 49.7165C45.4803 49.7165 45.4229 49.6442 45.4548 49.691C45.4867 49.7378 45.4548 49.691 45.4548 49.6761C45.4548 49.6612 45.4739 49.7229 45.476 49.7335C45.4826 49.7801 45.4606 49.8261 45.4202 49.8502C45.3799 49.8743 45.329 49.8719 45.291 49.8441C45.2591 49.8228 45.2655 49.808 45.2485 49.7697C45.2145 49.6889 45.2379 49.7527 45.2357 49.7931C45.2336 49.8335 45.2357 49.8228 45.2357 49.8377C45.2357 49.8526 45.2357 49.8654 45.2357 49.8377C45.2357 49.8101 45.3952 49.6782 45.2953 49.7378C45.1953 49.7973 45.442 49.7378 45.4484 49.7378L45.4824 49.7527L45.3804 49.7101C45.3166 49.6867 45.2506 49.6697 45.1868 49.6527C45.0402 49.6148 44.8851 49.668 44.7926 49.7879C44.7 49.9077 44.6878 50.0712 44.7615 50.2035C44.8987 50.4865 45.2125 50.638 45.5194 50.5696C45.8264 50.5013 46.0461 50.2309 46.0502 49.9164C46.0851 49.6399 45.9608 49.3674 45.7291 49.2125C45.5304 49.0764 45.272 49.0637 45.061 49.1798C44.85 49.2959 44.7223 49.5209 44.7309 49.7616C44.7396 50.0023 44.883 50.2176 45.1018 50.3183C45.2174 50.3904 45.3607 50.4027 45.4869 50.3514C45.6132 50.3 45.7072 50.1913 45.7397 50.0589C45.7709 49.9178 45.7359 49.7701 45.6448 49.6579C45.5537 49.5457 45.4164 49.4812 45.2719 49.4826C45.1424 49.4857 45.0269 49.5648 44.9773 49.6844C44.9276 49.804 44.953 49.9416 45.0422 50.0355L45.0295 50.0185Z" fill="#232323"/>
<path d="M49.6952 48.9552C49.7242 48.9811 49.7548 49.0052 49.7867 49.0275C49.7675 49.0019 49.7484 48.9743 49.7314 48.9466V48.7638L50.1142 48.6277L50.1461 48.6532C50.1461 48.6532 50.0865 48.5809 50.1184 48.6277C50.1503 48.6744 50.1184 48.6277 50.1184 48.6106C50.1184 48.5936 50.1376 48.6574 50.1397 48.6702C50.1462 48.7168 50.1242 48.7627 50.0839 48.7869C50.0435 48.811 49.9926 48.8086 49.9547 48.7808C49.9228 48.7574 49.927 48.7425 49.9121 48.7063C49.8781 48.6255 49.8994 48.6893 49.8994 48.7297C49.8983 48.7446 49.8983 48.7595 49.8994 48.7744C49.8994 48.8042 49.8994 48.7999 49.8994 48.7744C49.8994 48.7489 50.061 48.6149 49.9611 48.6744C49.8611 48.734 50.1078 48.6744 50.1142 48.6744L50.1482 48.6893L50.044 48.6468C49.9812 48.6245 49.9173 48.6053 49.8526 48.5894C49.706 48.5515 49.5509 48.6047 49.4583 48.7245C49.3658 48.8444 49.3536 49.0079 49.4273 49.1402C49.5688 49.4127 49.8763 49.5557 50.1759 49.4882C50.4755 49.4208 50.6921 49.16 50.7032 48.8531C50.7374 48.5766 50.6143 48.3041 50.3843 48.147C50.1863 48.0331 49.9427 48.0334 49.745 48.1478C49.5473 48.2622 49.4257 48.4734 49.426 48.7018C49.4263 48.9301 49.5484 49.141 49.7463 49.255C49.8631 49.3224 50.0046 49.3319 50.1294 49.2807C50.2542 49.2295 50.3483 49.1235 50.3843 48.9934C50.4145 48.8524 50.3792 48.7052 50.2883 48.5932C50.1974 48.4812 50.0606 48.4165 49.9164 48.4171C49.787 48.4213 49.672 48.5009 49.6225 48.6205C49.573 48.7402 49.5981 48.8778 49.6867 48.9722L49.6952 48.9552Z" fill="#232323"/>
<path d="M42.4649 58.7248C44.2257 59.4797 46.4161 59.5861 48.111 58.5313C48.9128 58.0315 48.4066 56.6748 47.4497 56.9661C45.9376 57.4254 44.5766 57.7636 42.9838 57.5211C42.3224 57.4191 41.7227 58.4037 42.4755 58.7248H42.4649Z" fill="#232323"/>
<path d="M44.2448 48.9786C44.6892 48.6043 45.3676 48.6957 45.9014 48.6936C46.4352 48.6915 46.4246 47.9153 45.9014 47.8621C45.1231 47.7813 44.3043 47.8749 43.7876 48.5214C43.6613 48.6476 43.6613 48.8523 43.7876 48.9786C43.9138 49.1048 44.1185 49.1048 44.2448 48.9786Z" fill="#232323"/>
<path d="M37.9182 54.4376C37.6141 53.6869 37.2377 52.9872 37.0463 52.1791C36.8932 51.5411 36.974 50.7628 37.4822 50.3332C37.9437 49.9441 38.6476 49.9441 39.1835 50.2099C39.7194 50.4757 40.7274 51.3072 40.872 51.9452C40.9619 51.1741 40.8267 50.3934 40.4829 49.6974C40.1341 48.9913 39.2452 48.1769 39.5578 47.3241C39.898 46.3948 41.2229 46.3097 42.0246 46.3182C44.0641 46.3416 45.9291 46.3501 47.8792 45.8078C49.8293 45.2655 51.5943 45.2294 53.0213 43.5643C53.3786 43.1389 53.6805 42.6307 53.6593 42.0756C53.621 40.6253 52.0133 40.6529 51.2605 39.9299C50.3311 39.0346 49.808 37.916 48.6979 37.1207C46.6215 35.6377 44.052 35.0151 41.527 35.3832C37.6417 35.9914 34.2966 38.9985 33.0057 42.7009C32.6825 43.6259 32.4868 44.6382 32.0041 45.4995C31.4661 46.4586 30.7026 46.4458 29.752 46.8839C27.702 47.8217 25.7966 49.1849 24.4993 51.0541C22.915 53.336 22.3727 56.4472 23.5594 58.9566C24.4738 60.8833 26.3069 62.2762 28.3272 62.9631C29.7577 63.4257 31.2591 63.6302 32.7612 63.5671C34.1158 63.5309 35.6767 63.852 36.8761 63.0375C37.8289 62.3889 38.2053 61.1725 38.3648 60.0326C38.5684 58.6017 38.544 57.1475 38.2925 55.7242C38.2141 55.2831 38.0886 54.8518 37.9182 54.4376V54.4376Z" fill="#232323"/>
<path d="M38.6071 54.2482C38.3371 53.5358 37.4566 52.043 37.8458 51.2561C38.3477 50.2439 39.815 51.5602 40.0213 52.1833C40.3446 53.1616 41.6801 52.9404 41.7694 51.9451C41.846 51.1651 41.7397 50.378 41.4589 49.6463C41.2675 49.1529 40.217 47.9748 40.5551 47.5197C40.8592 47.1114 41.9991 47.2581 42.4371 47.2624C43.4823 47.289 44.5281 47.257 45.5696 47.1667C47.2355 46.967 48.8802 46.619 50.4842 46.1268C51.926 45.7142 53.3083 44.9337 54.1143 43.6238C54.8076 42.5009 54.731 41.0718 53.6464 40.2382C53.2211 39.9043 52.698 39.7619 52.2301 39.4897C51.5921 39.1111 51.1668 38.4264 50.6947 37.8564C48.6064 35.2875 45.0124 34.0902 41.763 34.4879C38.6964 34.8643 35.9446 36.5932 34.0711 39.0239C33.0525 40.3403 32.4166 41.7885 31.8892 43.3579C31.6085 44.1916 31.432 45.2081 30.5728 45.6206C29.8604 45.9651 29.1034 46.1842 28.3973 46.5627C25.4711 48.13 22.9681 50.7011 22.2515 54.0292C21.5582 57.2595 22.6768 60.426 25.3329 62.4101C26.8597 63.5181 28.6502 64.2066 30.526 64.407C31.5426 64.5282 32.5527 64.4899 33.5713 64.5176C34.4645 64.541 35.3853 64.5899 36.2551 64.3432C38.0882 63.8264 38.9219 62.189 39.2324 60.4324C39.5875 58.3866 39.5832 56.1494 38.8262 54.1908C38.4008 53.0765 36.5826 53.5528 37.0186 54.6885C37.6246 56.2515 37.6884 57.9889 37.5226 59.6456C37.3482 61.3894 36.5975 62.6228 34.7303 62.6675C31.7531 62.7461 28.459 62.6866 26.0644 60.6855C23.6699 58.6843 23.2807 55.4158 24.612 52.6639C25.9645 49.876 28.5717 48.4256 31.2895 47.256C32.5293 46.7243 33.0673 45.6121 33.4459 44.3659C33.8712 42.9815 34.2689 41.7247 35.0961 40.5147C36.6613 38.2286 39.2196 36.5145 42.0012 36.1998C43.5656 36.0301 45.147 36.2759 46.5861 36.9122C47.9833 37.5289 48.885 38.4412 49.8079 39.6215C50.152 40.1104 50.5719 40.5412 51.052 40.8975C51.439 41.1527 51.8877 41.2802 52.2854 41.5142C53.706 42.3648 51.3901 43.8534 50.548 44.166C48.9995 44.7101 47.3954 45.081 45.7653 45.2719C44.1809 45.4505 42.5626 45.2251 40.991 45.4526C39.8299 45.6206 38.6348 46.3033 38.5795 47.6069C38.5476 48.332 38.9346 48.9679 39.3195 49.5506C39.8173 50.2454 40.0558 51.0927 39.9937 51.9451L41.7417 51.7091C41.1718 50.1226 39.109 48.6043 37.412 49.4017C35.1365 50.465 36.5847 53.2296 37.3078 54.7969C37.6395 55.5221 38.8942 55.0053 38.6071 54.2482V54.2482Z" fill="#232323"/>
<path d="M23.0426 97.7989C21.6752 99.0025 20.6523 100.659 20.5183 102.499C20.463 103.266 21.5965 103.349 21.8134 102.675C22.2834 101.187 22.8767 99.8808 24.0548 98.8111C24.7417 98.188 23.7316 97.1928 23.0426 97.7989V97.7989Z" fill="#232323"/>
<path d="M80.4076 170.356C82.6533 169.142 84.967 167.354 86.126 165.021C86.4641 164.338 85.6156 163.598 85.0372 164.181C83.2955 165.935 81.7558 167.709 79.6569 169.072C78.8573 169.591 79.5612 170.811 80.4076 170.348V170.356Z" fill="#232323"/>
<path d="M27.5635 174.899C25.7113 174.846 23.9079 174.293 22.3449 173.297C21.4049 172.708 20.6202 174.135 21.4942 174.758C23.3058 176.049 25.551 176.579 27.7486 176.234C28.5311 176.124 28.3015 174.922 27.5678 174.899H27.5635Z" fill="#232323"/>
<path d="M86.9915 61.6106C86.6229 61.9993 86.581 62.5946 86.8915 63.0311C87.2145 63.5484 87.8873 63.7199 88.4184 63.4203C88.8648 63.1251 89.056 62.5661 88.8842 62.0593C88.819 61.8438 88.6979 61.6493 88.5333 61.4957C88.2687 61.2603 87.9034 61.1739 87.5614 61.2661C87.2366 61.3565 87.0116 61.6519 87.0106 61.9891C87.0234 62.2911 87.2233 62.6611 87.5614 62.7121C87.7145 62.7355 87.487 62.6696 87.487 62.6675C87.487 62.6654 87.655 62.793 87.5019 62.6675C87.3487 62.542 87.5678 62.7674 87.4423 62.6079C87.3168 62.4485 87.4785 62.7249 87.4019 62.5378C87.3253 62.3506 87.4019 62.5378 87.4019 62.559L87.3828 62.4102C87.3849 62.4307 87.3849 62.4513 87.3828 62.4718L87.4062 62.323C87.4062 62.34 87.4062 62.3591 87.3913 62.3783L87.4487 62.2443C87.4104 62.3102 87.4338 62.2804 87.5231 62.1571C87.4359 62.24 87.6996 62.0486 87.589 62.1103C87.6454 62.0717 87.7121 62.051 87.7804 62.0508C87.8613 62.0508 87.874 62.0401 87.8187 62.0508C87.9612 62.0763 88.0037 62.0827 87.9421 62.0657C87.8804 62.0486 87.9208 62.0657 88.0484 62.1146C87.9357 62.0168 88.0824 62.1337 88.0909 62.155L88.042 62.1061L88.1186 62.2018C88.1059 62.182 88.0945 62.1614 88.0845 62.1401L88.1335 62.2549C88.1143 62.1805 88.1143 62.2124 88.1335 62.3528C88.1335 62.2996 88.1335 62.3102 88.1207 62.3847C88.1079 62.4591 88.1058 62.4718 88.1207 62.4187C88.1001 62.4961 88.0581 62.5661 87.9995 62.6207C88.1297 62.4844 88.2054 62.3051 88.2121 62.1167C88.2111 61.8285 88.0371 61.5691 87.7707 61.4589C87.5044 61.3487 87.1979 61.4094 86.9936 61.6127L86.9915 61.6106Z" fill="#232323"/>
<path d="M84.5227 62.4336C85.4351 62.4336 85.4372 61.0151 84.5227 61.0151C83.6083 61.0151 83.6083 62.4336 84.5227 62.4336Z" fill="#232323"/>
<path d="M112.073 61.7743C111.326 58.8779 109.563 55.9219 106.911 54.395C106.061 53.9016 105.042 55.1138 105.825 55.8049C107.907 57.6444 109.676 59.501 110.652 62.1677C110.973 63.0439 112.313 62.7079 112.073 61.7743Z" fill="#232323"/>
<path d="M50.5821 119.488C50.0228 124.739 49.0169 130.027 47.9579 135.197C46.9477 140.12 45.1741 145.084 46.3778 150.124C46.9498 152.516 47.7856 154.845 48.3959 157.229C49.0254 159.691 49.5486 162.178 49.9654 164.689C50.5736 168.366 50.9457 172.104 51.3732 175.807C51.69 178.552 52.1196 182.897 48.8106 183.981C47.7218 184.339 48.1726 186.019 49.287 185.71C52.4301 184.849 53.4339 181.883 53.4679 178.905C53.5083 175.63 52.8299 172.26 52.462 169.008C51.8866 163.868 50.8685 158.787 49.4188 153.822C48.6575 151.23 47.6878 148.667 47.7877 145.922C47.8877 143.176 48.749 140.412 49.3104 137.709C49.925 134.732 50.446 131.742 50.8713 128.739C51.3073 125.657 51.522 122.572 51.8219 119.486C51.8984 118.691 50.6671 118.703 50.5821 119.486V119.488Z" fill="#232323"/>
<path d="M41.3248 177.244L42.4838 176.857C42.8019 176.755 42.9874 176.425 42.9091 176.1C42.8143 175.776 42.478 175.587 42.152 175.675L40.993 176.06C40.6749 176.162 40.4894 176.492 40.5677 176.817C40.6635 177.14 40.9989 177.329 41.3248 177.242V177.244Z" fill="#232323"/>
<path d="M34.7942 118.586C33.3671 122.555 32.7693 126.774 33.0376 130.982C33.1631 132.973 33.548 134.895 33.9584 136.843C34.1711 137.826 34.3837 138.836 34.3093 139.846C34.2391 140.946 33.7287 141.728 33.246 142.672C32.893 143.344 32.6463 144.057 32.7824 144.822C32.9291 145.656 33.6968 146.273 33.7819 147.094C33.867 147.914 33.1864 148.842 32.8419 149.573C32.4421 150.368 32.2091 151.237 32.1572 152.125C32.087 153.826 32.6995 155.455 32.9334 157.118C33.129 158.498 33.2247 159.896 33.3034 161.284C33.509 164.415 33.5359 167.555 33.3842 170.688C33.3289 171.634 34.8941 171.868 35.06 170.914C35.5193 168.264 35.4321 165.542 35.3279 162.867C35.2195 160.102 35.0238 157.337 34.4199 154.626C34.1689 153.509 33.9159 152.35 34.237 151.223C34.4879 150.334 35.0493 149.552 35.3705 148.684C35.6467 148.011 35.7206 147.272 35.5831 146.558C35.3917 145.767 34.5198 145.046 34.5666 144.242C34.6134 143.438 35.3662 142.636 35.6533 141.903C35.9761 141.023 36.1073 140.085 36.0382 139.151C35.9234 137.22 35.245 135.374 34.892 133.483C34.0022 128.616 34.3778 123.601 35.9829 118.92C36.2402 118.159 35.0557 117.857 34.7878 118.591L34.7942 118.586Z" fill="white"/>
<path d="M56.9535 133.056C59.258 135.239 60.8957 138.032 61.6766 141.109C62.0509 142.598 62.0126 144.197 62.5762 145.626C62.8633 146.351 63.3609 146.87 63.7607 147.517C64.2392 148.289 64.186 149.218 64.3859 150.069C64.7645 151.644 65.7682 153.061 66.4891 154.494C67.3398 156.195 68.1224 157.943 68.8284 159.713C69.477 161.314 70.081 162.935 70.6637 164.561C71.2697 166.263 71.761 168.017 72.5925 169.616C73.0433 170.482 74.2363 169.848 74.0811 168.978C73.7494 167.158 73.0178 165.401 72.3798 163.662C71.7418 161.922 71.089 160.17 70.3766 158.45C69.6833 156.78 68.9475 155.128 68.133 153.512C67.3185 151.895 66.3424 150.451 66.0319 148.663C65.9422 147.929 65.7026 147.221 65.328 146.583C64.8453 145.83 64.2413 145.271 63.9649 144.395C63.48 142.864 63.3694 141.252 62.8229 139.716C61.7835 136.834 60.0564 134.248 57.7913 132.184C57.2214 131.663 56.375 132.499 56.9407 133.035L56.9535 133.056Z" fill="white"/>
<path d="M47.2071 53.5529C46.813 53.6484 46.3992 53.5085 46.1438 53.1935C45.8291 52.7682 45.1549 53.1319 45.425 53.6189C45.8503 54.378 46.7222 54.5397 47.4729 54.1781C47.8196 54.0123 47.5771 53.4402 47.2114 53.5572L47.2071 53.5529Z" fill="#232323"/>
<path d="M180.092 40.7763C179.611 48.7064 175.279 56.7449 168.089 60.4899C160.791 64.2944 151.638 62.0742 145.76 56.6216C142.372 53.4742 140.563 49.2104 139.988 44.6616C139.414 40.1128 139.852 35.2152 141.794 31.0195C145.118 23.8401 152.469 18.3641 160.542 18.3917C163.519 18.3917 166.199 19.4784 168.77 20.8905C171.162 22.2047 173.448 23.6869 175.228 25.7816C178.797 29.9477 180.332 35.3513 180.083 40.7806C180.03 41.8821 181.744 41.88 181.797 40.7806C182.038 35.7299 180.798 30.6345 177.897 26.4536C176.366 24.2461 174.415 22.3616 172.155 20.9075C169.852 19.4189 167.341 18.0344 164.695 17.2646C156.025 14.7403 146.619 20.1079 141.928 27.2596C139.274 31.3129 138.126 36.0063 138.07 40.8188C138.011 45.9418 139.204 51.337 142.385 55.4541C147.627 62.2443 157.571 65.934 165.861 63.2672C175.35 60.2134 181.219 50.3779 181.81 40.7784C181.868 39.6747 180.166 39.6768 180.092 40.7763Z" fill="#232323"/>
<path d="M160.176 63.2949C166.909 63.2949 172.638 59.5393 176.37 54.1292C175.874 53.3803 175.304 52.6829 174.669 52.0473C172.987 50.3588 170.841 49.1955 168.632 48.313C167.509 47.8664 166.265 47.4049 165.68 46.3501C165.395 45.8376 165.304 45.2379 165.027 44.7233C164.008 42.8093 161.491 43.3452 159.762 43.6047C157.922 43.8833 155.026 43.2772 153.911 45.138C153.458 45.8929 153.38 46.8244 152.937 47.5857C152.038 49.1296 150.024 49.4996 148.316 50.0185C146.19 50.6693 144.201 51.8261 142.745 53.4976C142.613 53.6486 142.485 53.806 142.362 53.9655C146.247 59.7732 153.848 63.2949 160.176 63.2949V63.2949Z" fill="#CACCFA"/>
<path d="M160.176 64.1519C167.171 64.0881 173.178 60.1837 177.111 54.5631C177.272 54.2972 177.272 53.9634 177.111 53.6975C175.233 50.9329 172.581 49.0552 169.523 47.7601C168.81 47.4602 168.056 47.2156 167.396 46.8201C166.571 46.3289 166.348 45.6632 166.01 44.8126C165.589 43.6638 164.597 42.8196 163.396 42.5882C162.184 42.3415 160.976 42.5775 159.781 42.7434C158.586 42.9093 157.316 42.7944 156.093 42.9858C154.93 43.1666 153.818 43.6578 153.188 44.7063C152.806 45.3442 152.682 46.08 152.404 46.7606C152.093 47.5112 151.508 47.9855 150.788 48.3236C149.214 49.0594 147.462 49.3018 145.896 50.0738C144.299 50.8512 142.893 51.9734 141.781 53.3594C141.556 53.6444 141.418 54.0633 141.647 54.3972C145.699 60.3517 153.025 64.0924 160.2 64.1519C161.301 64.1519 161.304 62.4506 160.2 62.4379C153.654 62.3847 146.832 58.9736 143.128 53.5338L142.994 54.5716C143.9 53.4253 145.031 52.4765 146.317 51.7836C147.593 51.0924 148.961 50.7692 150.328 50.3226C151.489 49.9441 152.642 49.4273 153.407 48.4384C154.173 47.4496 154.128 45.7058 155.228 45.0359C156.178 44.4532 157.512 44.5872 158.579 44.5531C159.647 44.5191 160.706 44.2703 161.782 44.2086C162.329 44.1767 162.922 44.164 163.437 44.3745C164.217 44.6935 164.385 45.3655 164.668 46.1013C165.142 47.3411 166.037 48.1046 167.23 48.6532C170.514 50.1419 173.555 51.4731 175.656 54.5737V53.6975C172.073 58.8184 166.563 62.3804 160.2 62.4379C159.077 62.4485 159.075 64.1625 160.176 64.1519V64.1519Z" fill="#232323"/>
<path d="M160.899 40.5891C163.206 39.6202 164.778 37.4452 164.976 34.9515C165.238 32.3443 164.304 29.3607 161.941 28.0103C159.132 26.4047 155.851 26.5536 153.724 29.1927C151.77 31.6149 151.3 35.1599 152.776 37.9394C154.284 40.7784 158.073 42.3478 160.989 40.738C161.839 40.2659 161.263 38.907 160.325 39.1664C157.599 39.9235 154.751 38.4838 154.103 35.6469C153.49 32.961 154.966 29.1204 158.065 28.8716C159.366 28.7674 161.042 29.3968 161.941 30.3602C162.705 31.1895 163.073 32.5655 163.175 33.6607C163.387 35.9872 162.339 38.3243 160.198 39.4025C159.409 39.8108 160.108 40.9421 160.899 40.5891V40.5891Z" fill="#232323"/>
<path d="M160.41 48.9276C161.869 48.8978 163.332 48.7851 164.727 48.3342C165.623 48.045 165.242 46.8137 164.347 46.9519C163.032 47.1646 161.737 47.4389 160.41 47.5623C159.56 47.641 159.517 48.9446 160.41 48.9276Z" fill="#232323"/>
<path d="M154.256 29.7839C156.021 30.4516 157.801 31.1236 159.666 31.4171C161.531 31.7106 163.511 31.5979 165.195 30.7536C165.604 30.5409 166.033 30.2475 166.099 29.7945C166.201 29.0842 165.387 28.61 164.691 28.4441C163.794 28.2273 162.867 28.1633 161.948 28.2548C162.626 28.086 163.269 27.798 163.847 27.4042C164.121 27.2171 164.406 26.947 164.37 26.6174C164.334 26.2877 164.041 26.1112 163.766 25.9794C161.64 24.9161 159.075 25.0543 156.795 25.7497C155.791 26.0559 154.794 26.4791 154.031 27.2107C153.267 27.9422 152.816 29.0374 153.061 30.0582" fill="#232323"/>
<path d="M154.092 30.3772C157.58 31.8233 161.501 33.2545 165.204 31.6702C166.403 31.1577 167.543 29.9965 166.628 28.6653C165.676 27.2872 163.439 27.2511 161.95 27.3553L162.188 29.1204C163.422 28.7801 166.016 27.7317 165.095 25.9921C164.283 24.4759 161.48 24.2292 159.991 24.2696C156.823 24.3525 151.187 26.0496 152.206 30.2921C152.44 31.2661 154.101 31.0875 153.994 30.0497C153.722 27.4765 156.561 26.6089 158.62 26.2601C159.746 26.0508 160.903 26.0696 162.022 26.3154C162.316 26.3856 163.336 26.8555 163.402 26.6046C163.3 26.9916 162.039 27.2915 161.701 27.3872C160.759 27.6551 160.899 29.2352 161.939 29.1523C162.377 29.1182 165.459 29.0183 165.004 29.8902C164.827 30.2283 163.66 30.458 163.302 30.5409C162.744 30.6687 162.174 30.74 161.601 30.7536C159.109 30.8259 156.731 29.9923 154.407 29.1948C153.639 28.9332 153.367 30.088 154.079 30.3836L154.092 30.3772Z" fill="#232323"/>
<path d="M153.018 29.2033C152.142 28.678 151.09 28.7993 150.52 29.7222C149.865 30.7855 150.294 31.9977 150.926 32.9525V31.9296C149.863 33.3374 150.577 35.0259 151.528 36.2594C152.189 37.11 153.795 36.6847 153.425 35.4576C153.174 34.6198 153.15 33.7883 153.112 32.9185C153.078 32.1742 152.927 31.3618 153.178 30.6473C153.491 29.7647 152.295 29.2033 151.689 29.7775C150.913 30.5069 151.036 31.5553 151.051 32.5421C151.081 33.7096 151.066 34.8813 151.417 36.0127L153.152 35.0026C152.674 34.3943 152.187 33.6904 152.668 32.9546C152.896 32.559 152.836 32.0602 152.521 31.7297C152.297 31.5328 152.129 31.2795 152.036 30.996C151.917 30.6317 152.078 30.4311 152.521 30.3942C153.227 30.6558 153.635 29.5755 153.023 29.2076L153.018 29.2033Z" fill="#232323"/>
<path d="M164.883 30.4537C165.072 30.9926 164.833 31.5886 164.323 31.8467C163.858 32.0593 163.685 32.8015 163.966 33.2098C164.357 33.7755 164.349 34.305 164.017 34.9111C163.519 35.8128 164.78 36.9016 165.506 36.0552C166.46 34.9745 166.538 33.3773 165.695 32.2082L165.538 33.4161C166.431 32.2996 166.658 31.2895 166.086 29.954C165.795 29.2692 164.666 29.7562 164.889 30.458L164.883 30.4537Z" fill="#232323"/>
<path d="M134.328 76.4755C142.447 77.3857 150.547 78.1066 158.715 78.4128C166.822 78.7169 175.058 78.9126 183.156 78.332C184.318 78.2491 184.347 76.4925 183.156 76.5031C175.001 76.5861 166.875 76.8817 158.715 76.6839C150.59 76.4883 142.421 76.1097 134.328 75.3505C133.602 75.2825 133.619 76.3968 134.328 76.4755V76.4755Z" fill="#232323"/>
<path d="M134.593 88.8098C137.732 89.8051 141.086 90.3261 144.335 90.8152C147.585 91.3043 150.817 91.6658 154.077 91.8636C160.697 92.2889 167.396 92.1932 173.978 91.3362C175.177 91.1789 175.231 89.2926 173.978 89.4074C167.488 90.0092 161.006 90.3069 154.483 89.9837C151.238 89.8242 147.993 89.5435 144.769 89.1331C141.475 88.7077 138.232 87.9975 134.946 87.5317C134.121 87.4148 133.751 88.5504 134.593 88.8077V88.8098Z" fill="#232323"/>
<path d="M182.1 91.3617H183.163C183.585 91.3617 183.926 91.0199 183.926 90.5983C183.926 90.1766 183.585 89.8348 183.163 89.8348H182.1C181.68 89.8348 181.34 90.1747 181.34 90.594C181.34 91.0133 181.68 91.3532 182.1 91.3532V91.3617Z" fill="#232323"/>
<path d="M134.551 100.997C139.402 101.737 144.308 102.173 149.224 101.837C150.237 101.769 150.256 100.198 149.224 100.245C144.437 100.457 139.642 100.474 134.887 99.8192C134.123 99.715 133.783 100.882 134.561 100.993L134.551 100.997Z" fill="#232323"/>
<path d="M162.645 103.7L165.474 103.713C166.414 103.713 166.416 102.25 165.474 102.254L162.645 102.267C161.722 102.267 161.72 103.696 162.645 103.7Z" fill="#232323"/>
<path d="M120.328 35.413C120.671 28.5469 120.991 21.6801 121.287 14.8126C121.345 13.5601 120.934 10.8338 122.331 10.2745C123.027 9.99587 124.011 10.0618 124.754 10.0044C125.732 9.91648 126.712 9.83212 127.695 9.75131C131.06 9.47486 134.425 9.23597 137.79 9.03465C151.249 8.23079 164.781 8.18401 178.255 8.60933C181.627 8.71991 184.998 8.86877 188.367 9.05592C189.911 9.14098 191.454 9.23242 192.998 9.33025C193.841 9.38412 194.682 9.44083 195.523 9.50037C196.356 9.55779 197.377 9.50037 198.128 9.92569C199.08 10.4659 199.348 11.6801 199.47 12.6903C199.667 14.3107 199.618 15.9865 199.64 17.6155C199.684 20.9734 199.64 24.3292 199.572 27.6849C199.306 41.2654 199.197 54.8437 199.146 68.4242C199.095 82.0047 199.07 95.6 198.898 109.187C198.819 115.52 198.536 121.864 198.557 128.197C198.557 131.691 198.883 135.18 198.927 138.676C198.978 142.47 198.927 146.456 197.747 150.096C197.305 151.453 196.639 152.861 195.51 153.773C193.66 155.279 190.717 155.832 188.43 156.24C185.419 156.776 182.344 156.878 179.286 156.931C175.926 156.998 172.567 156.998 169.208 156.931C162.491 156.798 155.786 156.397 149.093 155.727C145.775 155.396 142.5 154.834 139.195 154.352C136.046 153.892 132.903 153.609 129.728 153.41C126.591 153.212 123.456 152.901 120.483 151.815C118.995 151.272 117.932 150.647 117.785 148.944C117.638 147.313 117.649 145.652 117.596 144.014C117.162 130.527 117.162 117.036 117.596 103.541C117.702 100.168 117.832 96.7973 117.985 93.4288C118.044 92.1528 116.052 92.1528 115.99 93.4288C115.302 107.606 115.103 121.798 115.392 136.005C115.463 139.519 115.562 143.031 115.688 146.543C115.743 148.019 115.631 149.677 116.275 151.047C116.828 152.216 117.895 152.897 119.039 153.386C122 154.639 125.207 155.087 128.397 155.317C131.769 155.566 135.119 155.762 138.47 156.249C141.873 156.74 145.26 157.329 148.678 157.68C152.16 158.037 155.648 158.316 159.143 158.518C166.176 158.934 173.219 159.059 180.271 158.892C183.361 158.813 186.463 158.641 189.502 158.041C191.927 157.563 194.806 156.876 196.769 155.277C199.491 153.059 200.227 149.11 200.597 145.813C201.067 141.713 200.899 137.56 200.707 133.447C200.495 128.745 200.605 124.09 200.692 119.375C200.96 105.083 201.022 90.7875 201.067 76.4925C201.111 62.1975 201.145 47.9004 201.392 33.6054C201.452 30.0944 201.535 26.5876 201.564 23.0702C201.59 19.7272 201.698 16.314 201.401 12.9816C201.188 10.4914 200.193 8.18188 197.468 7.76932C194.14 7.26745 190.663 7.27382 187.297 7.1122C173.113 6.4083 158.903 6.42533 144.72 7.16324C137.63 7.53965 130.544 7.98836 123.476 8.65186C122.312 8.76244 121.06 8.86452 120.407 9.98311C119.72 11.157 119.92 12.8625 119.867 14.1619L119.42 24.9948C119.278 28.4611 119.156 31.9317 119.031 35.4002C119.001 36.2254 120.269 36.219 120.307 35.4002L120.328 35.413Z" fill="#CACCFA"/>
<path d="M139.502 144.933C141.565 145.655 143.859 145.019 145.256 143.338C145.869 142.589 146.268 141.662 145.947 140.695C145.667 139.844 144.771 139.319 143.946 139.825C141.902 141.077 144.371 143.599 145.773 144.035C148.359 144.839 150.622 143.185 152.525 141.635L151.149 140.824C150.785 141.983 151.342 143.183 152.357 143.819C153.78 144.71 155.519 144.22 157.035 143.955C160.975 143.286 164.983 143.117 168.966 143.451C170.042 143.536 170.029 141.864 168.966 141.777C166.011 141.531 163.04 141.56 160.091 141.864C158.713 142.009 157.346 142.215 155.985 142.464C155.134 142.621 152.172 143.047 152.727 141.262C152.993 140.412 151.94 139.986 151.351 140.463C150.307 141.313 149.154 142.285 147.789 142.549C146.845 142.732 145.547 142.498 145.024 141.592C144.886 141.352 144.914 140.863 144.463 141.362C144.374 141.462 144.35 141.883 144.25 142.043C143.955 142.531 143.543 142.938 143.053 143.229C142.093 143.831 140.916 143.974 139.84 143.621C138.989 143.355 138.672 144.633 139.48 144.924L139.502 144.933Z" fill="#232323"/>
<path d="M149.911 150.724C152.006 150.994 154.136 150.758 156.121 150.035C156.959 149.718 156.642 148.418 155.744 148.665C153.852 149.218 151.878 149.434 149.911 149.303C148.995 149.233 149.024 150.615 149.911 150.715V150.724Z" fill="#232323"/>
</svg>
