<svg width="164" height="164" viewBox="0 0 164 164" fill="none" xmlns="http://www.w3.org/2000/svg">
<path d="M15.9184 89.6182C12.9752 87.4884 10.6538 84.6116 9.19385 81.2849C8.83705 80.47 8.58311 79.3964 9.23403 78.7905C9.77566 78.2874 10.6291 78.4192 11.3507 78.5864C22.4725 81.1579 33.3002 84.5989 44.4189 87.0949C57.5979 90.0538 71.0116 90.0666 84.3915 88.6201C88.5703 88.1685 92.5883 87.1335 96.7171 86.4279C100.735 85.7416 104.774 85.1421 108.771 84.2566C120.416 81.6675 131.751 77.8421 142.583 72.8455C143.146 73.5414 142.788 74.57 142.394 75.3736C140.147 79.935 137.361 84.2102 134.096 88.1074C132.657 89.8271 131.145 91.9856 129.398 93.3565C127.275 94.9924 124.987 96.4026 122.572 97.5642C114.498 101.524 105.433 103.122 96.5355 103.874C76.5202 105.557 56.3649 104.097 36.8007 99.5491" fill="#232323"/>
<path d="M16.1626 89.2003C13.5885 87.2755 11.5153 84.7596 10.118 81.8651C9.83188 81.2784 8.99293 79.8255 9.67759 79.2405C10.0103 78.956 10.6098 79.0878 10.9907 79.165C11.6046 79.2903 12.2154 79.4526 12.8245 79.6005C14.0502 79.8962 15.2744 80.2021 16.4969 80.5182C18.9383 81.145 21.3716 81.804 23.8017 82.4661C33.4642 85.1116 43.1588 88.0335 53.1154 89.3353C63.072 90.6371 73.1331 90.4604 83.0913 89.4591C88.0109 88.964 92.7988 87.7956 97.667 86.9775C102.535 86.1595 107.424 85.343 112.241 84.1698C121.617 81.8786 130.779 78.7868 139.626 74.9284C140.734 74.4462 141.837 73.9517 142.934 73.4449L141.969 73.1926C142.452 73.8837 141.892 74.7853 141.568 75.4347C141.139 76.2865 140.693 77.1281 140.23 77.9596C139.34 79.5539 138.382 81.1075 137.357 82.6204C136.277 84.2126 135.125 85.7534 133.901 87.2427C132.81 88.5655 131.778 89.946 130.624 91.2157C128.139 93.948 124.662 95.8268 121.347 97.3713C117.916 98.9785 114.293 100.145 110.615 101.026C103.164 102.812 95.4571 103.413 87.8181 103.708C79.7672 104.02 71.7046 103.827 63.6779 103.13C54.6877 102.358 45.7632 100.952 36.9711 98.9222C36.1514 98.7326 35.801 99.9942 36.6223 100.186C52.8874 103.981 69.5753 105.656 86.2703 105.168C94.2227 104.927 102.265 104.364 110.044 102.606C113.785 101.781 117.439 100.603 120.957 99.0878C122.773 98.3 124.536 97.3948 126.235 96.3781C127.852 95.4041 129.493 94.3353 130.849 93.0142C132.286 91.6159 133.464 89.9702 134.742 88.4289C136.097 86.7927 137.378 85.0955 138.569 83.3372C139.772 81.5627 140.884 79.7281 141.9 77.8406C142.678 76.3941 144.311 74.1232 143.186 72.4854C142.981 72.1608 142.56 72.0499 142.222 72.2315C133.188 76.3942 123.8 79.7409 114.17 82.2315C109.231 83.5173 104.25 84.4671 99.2227 85.2996C94.1954 86.1322 89.2002 87.4019 84.1263 87.9467C73.9174 89.0396 63.5718 89.2758 53.3709 87.9644C43.1025 86.6449 33.1347 83.5398 23.1556 80.8847C20.6355 80.2145 18.1122 79.5555 15.5792 78.9319C14.3128 78.6201 13.0415 78.3174 11.7653 78.0238C10.8766 77.8213 9.86724 77.6044 9.04275 78.1283C7.27483 79.2534 8.66184 81.7365 9.38348 83.0447C10.4042 84.8904 11.6994 86.5704 13.2247 88.0271C13.9916 88.7549 14.8102 89.4263 15.6741 90.036C16.1884 90.4009 16.6528 89.5667 16.1562 89.2003H16.1626Z" fill="#232323"/>
<path d="M64.6647 74.6391C69.422 72.577 85.0135 69.2308 89.7708 67.1688C92.0707 66.1723 94.5345 65.1534 97.0032 65.5825C100.261 66.1482 102.561 69.0556 104.171 71.9422C107.225 77.4179 108.938 83.514 110.107 89.6342C110.663 92.5529 111.648 95.9794 111.572 98.956C111.503 101.777 109.184 103.16 106.724 104.08C100.693 106.331 94.3099 107.492 87.8727 107.508C86.3394 107.508 84.7676 107.442 83.35 106.855C81.0999 105.926 79.5715 103.855 78.0205 101.976C74.3095 97.4757 69.152 93.3613 63.3372 93.7792" fill="white"/>
<path d="M64.9316 75.0972C67.4067 74.0364 70.0891 73.3871 72.6783 72.6864C76.0358 71.7719 79.4077 70.9185 82.7619 69.9927C85.4266 69.2598 88.0656 68.4996 90.6211 67.4212C92.8889 66.4569 95.4138 65.5665 97.8535 66.4071C99.7821 67.0692 101.283 68.6571 102.421 70.2901C105.121 74.1747 106.738 78.8468 107.96 83.3807C108.602 85.7449 109.06 88.1396 109.546 90.5392C110.014 92.8455 110.621 95.1438 110.785 97.4983C110.854 98.4787 110.918 99.5282 110.476 100.438C110.106 101.152 109.551 101.754 108.869 102.182C107.027 103.408 104.721 104.014 102.62 104.62C97.7625 106.022 92.7297 106.726 87.6735 106.709C86.4665 106.709 85.2514 106.65 84.0927 106.278C83.0864 105.927 82.1697 105.358 81.407 104.613C79.8545 103.167 78.6539 101.388 77.2154 99.8352C74.353 96.7494 70.7127 93.9255 66.4794 93.146C65.442 92.9503 64.3839 92.8887 63.3308 92.9628C62.3038 93.0384 62.2862 94.6343 63.3308 94.57C67.8583 94.3241 71.8329 96.7847 74.9734 99.8384C76.5533 101.373 77.8471 103.136 79.3225 104.761C80.912 106.512 82.7796 107.792 85.1598 108.128C87.7201 108.488 90.4186 108.275 92.9805 108.024C95.5663 107.773 98.1317 107.344 100.658 106.738C103.127 106.14 105.616 105.414 107.947 104.395C109.687 103.633 111.34 102.466 112.016 100.623C112.381 99.6263 112.349 98.5334 112.27 97.4903C112.163 96.2481 111.98 95.0136 111.722 93.7937C111.24 91.3829 110.734 88.9561 110.187 86.5517C109.062 81.5919 107.455 76.7285 105.03 72.2476C103.019 68.5254 99.8995 64.5749 95.1984 64.9381C92.9596 65.1117 90.9956 66.1113 88.9416 66.9037C87.7185 67.3762 86.4601 67.7619 85.2048 68.1364C81.8297 69.1425 78.408 70.0233 75.0023 70.9394C71.9487 71.7606 68.866 72.5466 65.8831 73.6089C65.38 73.7873 64.8818 73.9802 64.39 74.1923C63.7664 74.4607 64.3048 75.372 64.9252 75.1068L64.9316 75.0972Z" fill="#232323"/>
<path d="M58.2134 78.3726C51.3989 80.2032 48.26 86.6802 48.8917 93.3565C49.0524 95.0521 49.3738 96.7718 50.2337 98.244C50.981 99.5297 52.098 100.566 53.3115 101.425C58.0447 104.772 64.1745 104.903 69.7788 105.282C76.1466 105.706 82.6621 105.3 88.7084 103.125C91.3266 102.185 93.9093 100.86 95.6628 98.6988C97.4162 96.5371 98.17 93.3951 96.9293 90.9039C94.7885 86.603 89.1986 85.3446 84.8753 84.5555C79.7756 83.6265 76.7203 84.2131 71.5548 84.2196" fill="white"/>
<path d="M58.0928 77.9162C55.0233 78.73 52.3662 80.6566 50.6387 83.3212C48.9415 85.9634 48.2279 89.1778 48.3146 92.2974C48.3741 94.2357 48.6618 96.2495 49.5104 98.0094C50.3478 99.7452 51.8199 101.094 53.4014 102.15C56.6062 104.286 60.449 105.068 64.2147 105.465C72.5721 106.328 81.3056 106.581 89.287 103.591C92.8051 102.275 96.2719 100.15 97.6444 96.4745C98.2696 94.8063 98.3966 92.868 97.7441 91.1885C97.1526 89.6697 96.0742 88.4048 94.7868 87.426C92.2635 85.4974 89.0411 84.6938 85.981 84.0991C84.0958 83.7151 82.1831 83.4818 80.261 83.4016C78.3998 83.3389 76.5371 83.4353 74.6775 83.5109C73.6329 83.5543 72.5882 83.588 71.5419 83.5976C70.7383 83.5976 70.7383 84.8481 71.5419 84.8497C75.1613 84.8625 78.7904 84.4816 82.4017 84.8641C84.0531 85.0531 85.6916 85.3407 87.3085 85.7256C88.7464 86.0322 90.1525 86.4729 91.5081 87.0419C94.2018 88.2264 96.873 90.417 96.8762 93.6105C96.8762 97.3071 93.9977 99.9718 90.9183 101.502C87.3825 103.257 83.3532 104.142 79.4477 104.556C75.486 104.972 71.5387 104.801 67.5737 104.556C64.0154 104.334 60.3863 104.051 57.0208 102.788C55.3069 102.152 53.7272 101.202 52.3632 99.9847C50.9022 98.6603 50.0424 97.0242 49.6518 95.0988C48.4529 89.1971 50.4554 82.4356 56.1433 79.6472C56.8503 79.3066 57.5874 79.0328 58.3452 78.8291C58.9318 78.6684 58.6827 77.7539 58.0928 77.9162Z" fill="#232323"/>
<path d="M69.7033 90.8236C71.8859 90.9602 74.0668 91.1611 76.2333 91.4665C78.3581 91.7703 80.4378 92.2572 82.548 92.6333C82.9193 92.6992 83.0816 92.164 82.7088 92.0579C80.6339 91.4761 78.4432 91.1788 76.3105 90.8975C74.1193 90.6065 71.9144 90.43 69.7049 90.3688C69.4124 90.3688 69.4172 90.8027 69.7049 90.8204L69.7033 90.8236Z" fill="#F9CCC9"/>
<path d="M75.7464 111.49C61.6544 111.706 47.5448 111.571 33.4625 110.976C30.9537 110.87 27.2266 110.902 25.2337 109.141C22.5722 106.788 20.3751 103.557 18.3966 100.634C14.3545 94.6599 11.1916 88.1379 8.39504 81.5082C8.24718 81.1594 8.09771 80.7881 8.14914 80.4137C8.20057 80.0392 8.53326 79.6744 8.90613 79.7322C9.279 79.7901 9.45258 80.1485 9.62134 80.4571C10.8557 82.7071 13.1668 84.1295 15.4073 85.3719C17.8052 86.6994 20.2465 87.945 22.7313 89.1086C24.9556 90.1501 27.5095 91.6801 29.9508 92.0803C34.5394 92.8325 39.1263 93.9318 43.7904 94.3947C60.1768 96.0131 76.6962 95.711 93.0125 93.4947C101.852 92.2973 110.669 90.7528 119.282 88.3966C126.481 86.4262 133.193 83.6747 138.569 78.305C140.126 76.7594 141.527 75.0642 142.752 73.2439C142.923 72.9884 143.234 72.6991 143.483 72.8807C143.591 72.9891 143.649 73.1366 143.644 73.2889C143.983 76.5162 142.747 80.0006 141.579 82.9482C140.324 86.1112 139.168 89.459 137.583 92.4773C136.118 95.2754 134.885 98.313 132.935 100.849C131.386 102.865 129.064 105.547 126.645 106.407C124.04 107.333 121.243 107.444 118.548 107.959C104.454 110.65 90.0633 111.272 75.7464 111.49Z" fill="white"/>
<path d="M75.7464 111.012C64.6133 111.172 53.4754 111.111 42.3456 110.775C39.5597 110.692 36.7782 110.591 34.001 110.472C32.0193 110.388 29.983 110.411 28.0543 109.917C25.8428 109.353 24.3963 107.701 22.9772 106.004C21.4037 104.122 20.0264 102.079 18.6635 100.041C15.7994 95.7529 13.3726 91.1852 11.2141 86.5083C10.6516 85.2922 10.1051 84.068 9.57475 82.8358C9.33206 82.2733 9.06687 81.7108 8.85633 81.1418C8.78938 81.0042 8.74334 80.8574 8.71972 80.7063L8.83222 80.5681C8.91579 80.3768 8.99294 80.3832 9.04116 80.5841C9.21473 80.7272 9.32884 81.092 9.45903 81.2881C10.6644 83.1106 12.5127 84.3707 14.3722 85.4443C16.6223 86.7413 18.9431 87.929 21.2832 89.0557C23.4979 90.1229 25.6853 91.3717 28.0125 92.1753C29.2131 92.5899 30.4667 92.749 31.7091 92.9789C33.0302 93.2183 34.3465 93.4755 35.6644 93.7246C38.2745 94.2196 40.891 94.6889 43.5397 94.967C54.4662 96.0916 65.4653 96.3367 76.4311 95.6998C87.2818 95.0776 98.0743 93.6812 108.726 91.5211C113.768 90.5038 118.832 89.3514 123.712 87.704C127.968 86.2656 132.101 84.3562 135.697 81.632C137.583 80.2056 139.31 78.5805 140.849 76.7847C141.622 75.8825 142.347 74.941 143.022 73.9641C143.126 73.8395 143.218 73.7049 143.295 73.5623L143.152 73.4337C142.992 73.2328 142.955 73.2633 143.032 73.5237C142.977 73.768 143.064 74.1007 143.066 74.3578C143.064 75.0285 143.011 75.6981 142.905 76.3604C142.519 78.8725 141.553 81.2367 140.637 83.5928C139.673 86.0534 138.776 88.5398 137.638 90.9232C135.549 95.282 133.487 99.7387 130.05 103.214C129.267 104.044 128.372 104.762 127.392 105.348C126.372 105.926 125.194 106.205 124.052 106.434C121.481 106.953 118.869 107.26 116.291 107.72C105.523 109.617 94.5731 110.34 83.649 110.676C81.0132 110.757 78.3763 110.818 75.7383 110.857C74.9171 110.87 74.9139 112.143 75.7383 112.143C86.9887 111.97 98.2568 111.568 109.424 110.087C112.185 109.721 114.936 109.297 117.675 108.792C120.308 108.31 123.027 108.106 125.615 107.413C127.931 106.793 129.724 105.47 131.352 103.736C132.991 101.995 134.399 100.051 135.541 97.9499C136.767 95.6886 137.939 93.3517 139.012 91.0132C140.126 88.588 141.032 86.0775 142.006 83.5944C142.948 81.1836 143.876 78.7616 144.21 76.182C144.296 75.5428 144.336 74.8983 144.33 74.2534C144.33 73.7712 144.366 73.1203 144.113 72.6847C143.884 72.297 143.417 72.1195 142.988 72.2572C142.445 72.4372 142.154 72.9981 141.849 73.4369C139.003 77.495 135.264 80.8462 130.92 83.2328C126.707 85.5697 122.1 87.0274 117.458 88.2424C106.581 91.0759 95.3398 92.8438 84.1408 93.8934C72.8041 94.9517 61.4005 95.0947 50.0408 94.3209C47.1913 94.1264 44.3288 93.9223 41.4986 93.5173C38.7502 93.1315 36.0341 92.5819 33.3018 92.0708C31.9839 91.8249 30.6307 91.669 29.3337 91.3427C28.0367 91.0165 26.8554 90.4781 25.6789 89.8962C23.2938 88.7326 20.8926 87.5996 18.5365 86.3781C16.3555 85.253 14.0154 84.1376 12.1302 82.5369C11.2269 81.7702 10.6098 80.9104 9.98137 79.9204C9.4751 79.1248 8.46256 78.821 7.83897 79.6986C7.16073 80.6548 7.9579 81.9117 8.34845 82.8214C8.87776 84.0546 9.42099 85.2804 9.97815 86.4986C11.1032 88.9367 12.2813 91.3443 13.5622 93.7005C16.0035 98.2006 18.7872 102.64 22.0579 106.584C23.4626 108.278 24.983 110.049 27.1318 110.763C29.0604 111.394 31.1289 111.415 33.1299 111.489C44.5506 111.905 55.9698 112.132 67.3986 112.06C70.1844 112.042 72.9675 112.011 75.748 111.966C76.3619 111.96 76.3652 111.002 75.7464 111.012Z" fill="#232323"/>
<path d="M21.5356 108.266C25.1977 108.915 28.9678 108.09 32.0242 105.971C36.5485 110.311 44.5073 110.357 49.0814 106.066C50.7644 108.976 53.8135 110.828 57.1713 110.98C60.529 111.132 63.7332 109.564 65.6725 106.818C68.3373 108.675 71.4585 110.005 74.713 110.055C77.9676 110.105 81.3218 108.733 83.1926 106.077C86.2543 108.76 90.6886 108.998 94.7645 109.101C96.767 109.15 98.8034 109.197 100.734 108.662C102.664 108.127 104.501 106.912 105.304 105.075C108.683 107.458 112.777 108.61 116.902 108.337C120.078 108.117 123.631 106.569 124.377 103.475C124.17 104.335 128.095 105.457 128.651 105.55C130.49 105.85 132.378 105.596 134.073 104.822C135.261 104.271 136.926 101.986 138.045 101.992C139.862 102 141.206 105.431 141.558 106.78C142.81 111.581 141.386 116.81 138.57 120.896C135.754 124.981 131.675 128.041 127.363 130.496C111.491 139.531 92.5192 140.933 74.2646 141.535C64.7307 141.857 55.1566 142.003 45.6806 140.893C38.985 140.11 31.9246 138.464 27.2669 133.591C21.5083 127.569 20.9763 118.406 20.7738 110.076" fill="white"/>
<path d="M19.1119 95.6082C26.2494 97.7747 33.6136 99.1441 41.0051 100.075C49.2588 101.094 57.5651 101.631 65.8814 101.682C74.2703 101.763 82.6579 101.416 91.0116 100.644C98.7261 99.9252 106.421 98.8451 113.995 97.2138C120.232 95.8702 126.449 94.1746 132.317 91.6529C132.922 91.3925 133.523 91.1247 134.12 90.8493C134.472 90.6886 134.165 90.163 133.814 90.327C128.225 92.9596 122.225 94.705 116.222 96.1129C108.816 97.8406 101.275 98.9962 93.7213 99.7934C85.4683 100.656 77.1768 101.099 68.8788 101.121C60.5956 101.17 52.316 100.76 44.0781 99.893C36.5339 99.0798 29.009 97.8342 21.6818 95.8413C20.8653 95.6195 20.0515 95.387 19.2404 95.1437C18.9318 95.0505 18.8001 95.5311 19.107 95.6259L19.1119 95.6082Z" fill="#F9CCC9"/>
<path d="M21.4085 108.736C25.2658 109.473 29.0443 108.591 32.3616 106.545L31.558 106.441C36.1948 111.298 44.8158 111 49.5988 106.582L48.4561 106.434C50.2856 109.51 53.5164 111.484 57.0884 111.707C60.6997 111.907 64.2131 110.1 66.3105 107.19L65.3044 107.453C68.2681 109.499 71.8409 110.976 75.5005 110.778C78.7647 110.602 81.9035 109.131 83.8354 106.452L82.6718 106.601C85.1887 108.765 88.4384 109.461 91.6721 109.706C93.3773 109.837 95.1003 109.89 96.8151 109.867C98.6361 109.85 100.48 109.66 102.167 108.935C103.774 108.242 105.221 107.066 105.959 105.446L104.933 105.714C107.667 107.624 110.858 108.778 114.181 109.059C117.016 109.305 120.147 108.937 122.527 107.251C123.774 106.368 124.726 105.161 125.112 103.67L123.848 104.003C127.906 107.844 135.112 107.006 138.181 102.344C138.755 101.474 137.354 100.661 136.786 101.529C134.3 105.338 128.221 106.057 124.917 102.934C124.725 102.748 124.45 102.676 124.191 102.745C123.933 102.813 123.729 103.012 123.654 103.268C122.861 106.344 119.247 107.487 116.421 107.607C112.592 107.753 108.821 106.634 105.69 104.424C105.382 104.208 104.822 104.346 104.665 104.694C102.861 108.625 97.847 108.445 94.2147 108.34C90.6162 108.236 86.5789 108.019 83.7133 105.552C83.548 105.396 83.3212 105.322 83.0956 105.351C82.87 105.38 82.6695 105.51 82.5496 105.703C80.8749 108.037 77.9659 109.247 75.1485 109.322C71.8473 109.401 68.7197 108.037 66.0437 106.192C65.6949 105.95 65.2546 106.153 65.0376 106.455C63.1879 108.968 60.2048 110.389 57.0884 110.243C54.0668 110.083 51.2446 108.287 49.7129 105.7C49.5966 105.508 49.3991 105.379 49.1764 105.35C48.9536 105.321 48.7299 105.396 48.5686 105.552C46.4021 107.558 43.4706 108.548 40.5326 108.533C37.578 108.515 34.7275 107.439 32.4966 105.502C32.2941 105.33 31.9341 105.213 31.693 105.398C28.9061 107.537 25.1035 108.344 21.6689 107.797C21.0614 107.701 20.7898 108.617 21.4101 108.736H21.4085Z" fill="#232323"/>
<path d="M83.0655 43.2569C81.3662 42.0718 80.1706 40.295 79.7129 38.2745C79.2211 36.108 79.6454 33.8001 78.7903 31.6947C78.6353 31.3824 78.5219 31.0512 78.4528 30.7095C78.411 30.3639 78.5171 29.9701 78.8144 29.7901C79.2838 29.5041 79.8752 29.8785 80.4216 29.8705C81.3152 29.856 81.8376 28.8901 82.5624 28.3662C83.0301 28.0286 83.6023 27.8727 84.16 27.7233C85.0212 27.4687 85.9016 27.2844 86.7926 27.172C87.7863 27.088 88.787 27.1421 89.7659 27.3327C92.2715 27.786 95.6595 30.3736 94.0523 33.2633C93.8433 33.6394 93.5316 33.9062 93.3548 34.2919C93.1339 34.819 93.0531 35.3942 93.1201 35.9618C93.1764 36.595 93.3387 37.2138 93.4142 37.8438C93.6046 39.484 93.1997 41.138 92.2731 42.5047" fill="white"/>
<path d="M83.2971 42.8615C82.1849 42.0273 81.3154 40.8043 80.7706 39.533C80.1727 38.1395 80.1068 36.64 80.0265 35.1549C79.9977 34.4463 79.9268 33.7401 79.8143 33.0399C79.7489 32.6531 79.6549 32.2717 79.5331 31.8988C79.4045 31.5162 79.1441 31.1096 79.1023 30.7062C79.0605 30.3028 79.2438 30.335 79.5845 30.4025C79.8611 30.475 80.1443 30.5192 80.4299 30.5342C81.084 30.5342 81.6289 30.1598 82.0885 29.7306C82.5482 29.3015 82.913 28.8547 83.5141 28.6201C84.2437 28.3609 84.9929 28.1604 85.7545 28.0206C87.2277 27.6884 88.7603 27.7276 90.2145 28.1347C91.9937 28.6699 94.5106 30.4828 93.6137 32.6349C93.453 33.0142 93.1766 33.297 92.9548 33.6329C92.7203 33.9959 92.5638 34.4037 92.4951 34.8303C92.3505 35.6516 92.4951 36.4568 92.6446 37.2668C92.9724 38.958 92.6412 40.7106 91.7189 42.1655C91.2688 42.8888 92.3617 43.4995 92.8439 42.8245C93.8215 41.4218 94.2765 39.7208 94.1297 38.0174C94.0509 37.1704 93.7793 36.3362 93.7986 35.4812C93.8179 34.541 94.4672 34.0556 94.8208 33.252C96.0117 30.5551 93.7246 28.1202 91.3765 27.1206C89.9397 26.5082 88.2473 26.3314 86.7028 26.5034C85.7584 26.6263 84.825 26.8224 83.9111 27.09C83.1637 27.2941 82.4646 27.5513 81.878 28.0624C81.473 28.4127 81.0197 29.1601 80.4315 29.1874C80.0763 29.2083 79.7131 29.0267 79.3547 29.009C78.9444 28.9727 78.5381 29.113 78.2377 29.3947C77.6864 29.9428 77.7475 30.7753 78.0175 31.4375C78.3768 32.274 78.6081 33.1599 78.7037 34.0653C78.8902 35.9939 78.7938 37.9322 79.554 39.7628C80.2252 41.3624 81.3735 42.7162 82.8423 43.6394C83.3486 43.9608 83.7664 43.1925 83.3052 42.8486L83.2971 42.8615Z" fill="#232323"/>
<path d="M62.8149 67.8889C66.0004 70.3865 69.3305 72.8712 73.2183 74.0059C75.7352 74.7371 78.3871 74.8673 81.0068 74.832C83.767 74.7928 86.5217 74.5738 89.2534 74.1762C90.777 73.9528 92.3231 73.6651 93.678 72.9355C95.7947 71.7944 97.246 69.6552 97.9853 67.3681C98.7246 65.0811 98.8226 62.6349 98.7696 60.2322C98.6602 55.0917 97.8855 49.9871 96.4649 45.0457C95.1679 40.5552 91.5613 40.1421 87.2813 40.5857C85.6082 40.7593 79.6198 41.2672 79.5668 43.776C79.5282 45.4491 80.4009 47.3295 80.7497 48.9705L82.1431 55.4925C79.8866 53.836 77.6901 52.1029 75.5536 50.2932C73.8034 48.8275 72.0901 47.2958 70.0409 46.3202C67.9917 45.3447 65.5118 45.0152 63.4739 46.0084" fill="#F9CCC9"/>
<path d="M62.437 68.2664C65.2143 70.4635 68.0622 72.6316 71.365 73.9832C74.9234 75.4426 78.8048 75.5631 82.5977 75.4201C84.6132 75.344 86.6211 75.172 88.6215 74.9042C90.4023 74.6663 92.2136 74.4027 93.8337 73.5831C96.7122 72.1253 98.3933 69.0556 99.0185 65.9955C99.7787 62.27 99.4669 58.2713 99.0185 54.5233C98.7919 52.6043 98.4817 50.6965 98.0751 48.8065C97.699 47.0578 97.3438 45.2015 96.5981 43.5654C94.4669 38.8836 88.6135 39.5827 84.4187 40.2883C83.332 40.4489 82.2675 40.7342 81.2461 41.1385C80.4055 41.4921 79.5216 42 79.1117 42.8566C78.4897 44.1584 79.1599 45.9231 79.5505 47.196C80.1066 49.0106 80.4634 50.8653 80.8588 52.72C81.0677 53.7004 81.2772 54.6818 81.4872 55.6644L82.4515 54.9186C80.8057 53.7068 79.1916 52.4553 77.609 51.1642C76.1207 49.9476 74.6919 48.6522 73.1571 47.4934C70.3268 45.3606 66.5836 43.8081 63.1522 45.4812C62.4354 45.8315 63.0622 46.8601 63.7726 46.5419C67.0642 45.0681 70.5791 47.0755 73.0944 49.1134C75.9873 51.4471 78.7839 53.8579 81.7733 56.0598C82.2763 56.4294 82.8533 55.8219 82.7376 55.314C82.3486 53.4925 81.9592 51.671 81.5691 49.8495C81.222 48.2198 80.6337 46.6528 80.3059 45.0279C80.1114 44.0636 80.0391 43.3629 80.8925 42.7907C81.6736 42.2668 82.6251 42.0096 83.5315 41.8023C85.3721 41.3905 87.2487 41.1612 89.1342 41.1176C91.214 41.0598 93.5187 41.3651 94.8334 43.1716C95.6932 44.3513 95.9889 45.8476 96.3377 47.2346C96.777 48.9843 97.1354 50.7522 97.4129 52.5384C97.9594 56.0501 98.2728 59.6968 98.0397 63.2504C97.8388 66.304 96.934 69.4959 94.5296 71.5596C93.3017 72.6123 91.7604 73.088 90.1902 73.3773C88.4025 73.6919 86.5993 73.9113 84.7884 74.0347C81.2123 74.3063 77.4499 74.4558 73.9414 73.5927C70.698 72.7891 67.834 71.0051 65.1709 69.0459C64.4926 68.5461 63.824 68.0334 63.157 67.5159C62.6218 67.1012 61.8584 67.8373 62.4017 68.2729L62.437 68.2664Z" fill="#F9CCC9"/>
<path d="M66.1819 127.775C67.7891 125.255 67.8437 124.903 69.0459 122.17C69.5972 120.914 70.0777 119.361 69.2629 118.258C68.9865 117.884 68.5782 117.599 68.395 117.172C68.2118 116.744 68.2857 116.266 68.3838 115.817C68.9881 113.032 70.4249 110.513 71.8039 108.016C79.5956 93.9367 86.1739 79.1986 91.7332 64.099C91.9517 63.5059 92.1703 62.8534 91.963 62.2571C91.0163 59.5249 88.9961 65.0617 88.7148 65.6789C87.6573 68.005 86.5939 70.3296 85.5245 72.6525C83.4271 77.2025 81.2976 81.738 79.0957 86.2382C74.6551 95.3221 69.9218 104.273 64.6036 112.876C64.0925 113.704 63.5573 114.549 62.7682 115.126C61.5548 116.005 59.946 116.09 58.5895 116.733C54.1986 118.834 54.1311 124.723 51.0742 128" fill="white"/>
<path d="M66.5709 128.001C67.6391 126.306 68.5782 124.533 69.3803 122.698C69.8528 121.656 70.3447 120.518 70.2305 119.347C70.1871 118.801 69.9867 118.28 69.6536 117.845C69.2566 117.331 68.7889 117.042 68.8676 116.325C69.0107 115.007 69.6005 113.643 70.1534 112.448C70.7207 111.208 71.3813 110.013 72.0467 108.823C73.4396 106.321 74.7998 103.8 76.1274 101.259C81.4228 91.0188 86.1587 80.4986 90.3141 69.7451C90.8499 68.3726 91.3738 66.9968 91.886 65.6178C92.3215 64.4574 93.0367 63.1347 92.5481 61.8875C92.3103 61.2784 91.8136 60.7094 91.0936 60.8573C90.5263 60.973 90.1293 61.46 89.8079 61.91C89.0894 62.9306 88.6298 64.136 88.1589 65.2851C88.0769 65.4812 88.1974 65.1983 88.138 65.3333C87.9917 65.6548 87.8423 65.9762 87.696 66.2977C87.3746 67.008 87.0494 67.7179 86.7204 68.4272C86.099 69.7837 85.4754 71.1386 84.8496 72.4918C79.8673 83.26 74.7018 93.9511 68.85 104.274C67.4163 106.806 65.9393 109.312 64.4189 111.791C63.7551 112.874 63.1251 114.118 61.9727 114.756C60.9136 115.343 59.66 115.484 58.5494 115.957C54.7162 117.593 53.8178 121.844 52.0933 125.205C51.6924 126.029 51.1827 126.795 50.5777 127.484C49.9541 128.164 50.9682 129.183 51.5934 128.5C52.8712 127.106 53.641 125.406 54.3707 123.678C55.0843 121.994 55.7722 120.182 57.0193 118.81C57.6372 118.113 58.4071 117.568 59.2694 117.217C60.3768 116.781 61.5709 116.608 62.6317 116.047C63.7567 115.454 64.4864 114.44 65.1405 113.382C65.9056 112.156 66.6497 110.915 67.3906 109.671C73.2296 99.8206 78.363 89.5812 83.228 79.2147C84.4741 76.5628 85.7063 73.904 86.9245 71.2382C87.8374 69.2421 88.7921 67.2588 89.6279 65.2305C89.8593 64.6696 90.11 64.1054 90.3961 63.5494C90.642 63.0752 90.9024 62.5288 91.3122 62.1913C91.354 62.1575 91.4343 62.1607 91.354 62.1575C91.4858 62.1575 91.0759 62.1768 91.2029 62.135C91.1659 62.1479 91.1611 62.0691 91.2495 62.2363C91.368 62.4669 91.4113 62.7288 91.3733 62.9852C91.2993 63.5895 90.9908 64.2067 90.7802 64.7724C90.5306 65.4475 90.2788 66.1209 90.0248 66.7927C86.0594 77.3525 81.5445 87.6977 76.4986 97.7859C75.2396 100.296 73.9453 102.788 72.6156 105.259C71.3299 107.659 69.9043 110.007 68.85 112.522C68.3678 113.673 67.913 114.899 67.7554 116.143C67.6615 116.685 67.7714 117.243 68.064 117.709C68.3855 118.191 68.903 118.512 69.0782 119.099C69.3996 120.184 68.8001 121.397 68.3919 122.373C68.0238 123.252 67.6799 124.141 67.2572 124.997C66.8345 125.854 66.3154 126.704 65.8027 127.532C65.4957 128.025 66.264 128.467 66.5758 127.985L66.5709 128.001Z" fill="#232323"/>
<path d="M62.3456 44.6214C61.1386 43.9785 59.3996 44.5427 58.101 44.9766C56.8023 45.4106 55.6644 46.2334 54.6583 47.1624C51.8698 49.7339 43.5092 58.8419 43.3228 62.6671C43.1395 66.4151 46.8457 67.3649 45.4571 71.0325C44.6857 73.0673 47.9065 72.479 47.1495 74.5186C46.6143 75.965 46.2173 77.4742 46.1723 79.0187C46.1643 79.3273 46.0679 79.967 46.2157 80.245C46.5693 80.9168 47.7217 79.7371 48.2922 79.4414C49.2323 78.9706 50.1982 78.5532 51.1852 78.191C53.027 77.4758 54.8817 76.7735 56.7798 76.2479C61.6886 74.8954 66.8502 74.7405 71.8313 75.7963C73.3999 76.1258 73.9913 75.1534 74.2099 73.5462C74.3594 72.4533 74.1714 71.3427 73.9238 70.2675C72.6381 64.6809 69.7451 59.5716 68.3806 54.0043" fill="#F9CCC9"/>
<path d="M62.6058 44.1778C60.9826 43.3742 58.8932 44.0299 57.3262 44.6953C55.891 45.3044 54.6936 46.3138 53.5862 47.3906C51.7033 49.2362 49.9185 51.1793 48.2391 53.2119C46.4712 55.335 44.6727 57.5931 43.4737 60.1003C43.0189 61.0534 42.6573 62.045 42.691 63.1154C42.7376 64.5619 43.3869 65.7689 44.1375 66.9599C44.8318 68.0544 45.3558 69.1055 44.9781 70.4234C44.7997 71.047 44.5425 71.6159 44.827 72.2556C45.0343 72.7201 45.4393 73.0126 45.862 73.2697C46.1594 73.4513 46.5724 73.6362 46.611 73.8901C46.6383 74.0733 46.5226 74.3353 46.4503 74.533C46.2478 75.1019 46.0629 75.6757 45.9167 76.2623C45.685 77.2594 45.5456 78.2757 45.5004 79.2983C45.4586 79.9685 45.4795 80.8605 46.2863 81.0662C46.9662 81.235 47.6139 80.695 48.1218 80.3253C48.8723 79.7821 49.7563 79.4398 50.6129 79.099C52.6894 78.2729 54.7916 77.4661 56.9405 76.8699C61.3951 75.645 66.0662 75.4254 70.6161 76.227C71.4197 76.37 72.2828 76.6657 73.0976 76.4118C73.7743 76.1996 74.2227 75.658 74.4943 75.0232C75.2738 73.1524 74.798 71.0148 74.303 69.136C73.1925 64.9219 71.2686 60.9859 69.8864 56.8634C69.5522 55.8653 69.2436 54.856 68.9928 53.8338C68.7919 53.0302 67.5464 53.3694 67.7457 54.1778C68.7261 58.1572 70.4602 61.8811 71.8504 65.7223C72.5448 67.6397 73.231 69.6374 73.5219 71.6689C73.6537 72.5802 73.8434 75.2128 72.3631 75.216C71.9629 75.216 71.5595 75.0859 71.169 75.0135C70.629 74.9139 70.089 74.8303 69.5457 74.758C68.4386 74.607 67.3244 74.5136 66.2076 74.4783C64.1096 74.4192 62.0107 74.5602 59.9395 74.8994C57.84 75.2565 55.7771 75.8025 53.7759 76.5307C51.8569 77.2138 49.8479 77.8824 48.0478 78.8451C47.7931 78.9886 47.5488 79.1497 47.3165 79.3273C47.2265 79.3915 46.5579 79.7451 46.5451 79.8094C46.476 79.8898 46.5612 79.9509 46.8006 79.991C46.7814 80.0055 46.8006 79.6824 46.7814 79.7933C46.7968 79.6331 46.8032 79.4721 46.8006 79.3112C46.8296 78.8435 46.8456 78.3774 46.9115 77.9129C47.0741 76.8815 47.339 75.8688 47.7023 74.8898C47.9016 74.3289 48.0237 73.7438 47.7183 73.1926C47.4982 72.7876 47.1124 72.5208 46.7267 72.2877C46.4631 72.127 46.0597 71.9197 46.0019 71.7429C45.9681 71.5634 45.9935 71.3779 46.0742 71.2141C46.2036 70.8521 46.2983 70.4786 46.357 70.0987C46.4484 69.4804 46.4007 68.8495 46.2172 68.252C45.8588 67.1061 45.0665 66.1852 44.5152 65.1357C43.9913 64.1392 43.7936 62.9933 44.0796 61.9647C44.3529 60.9795 44.864 60.0617 45.3895 59.1906C46.0847 58.0555 46.8401 56.9584 47.6525 55.9039C49.3005 53.7505 51.0629 51.6871 52.9321 49.7226C53.5911 49.0219 54.2613 48.3324 54.9604 47.6718C56.2163 46.4548 57.7618 45.578 59.4509 45.1244C60.2866 44.893 61.2654 44.6808 62.0851 45.0778C62.6766 45.3639 63.1989 44.4848 62.6042 44.189L62.6058 44.1778Z" fill="#232323"/>
<path d="M71.0405 65.8349C73.5847 64.6857 76.3668 64.1666 79.1328 63.7841C80.2289 63.633 81.3266 63.5012 82.4308 63.4257C82.9033 63.3919 83.4176 63.3807 83.8049 63.6523C84.0283 63.813 84.1826 64.0428 84.3851 64.2245C85.0505 64.8255 85.7946 64.6005 86.5821 64.7452C87.3054 64.8786 88.1074 65.2611 88.7454 65.6211C90.5372 66.6365 91.8797 68.2907 92.5047 70.2531C92.6927 70.8509 92.8084 71.5099 92.5866 72.0949C92.3649 72.6799 91.7011 73.1364 91.108 72.9355C91.4386 73.2358 91.576 73.6943 91.4651 74.1269C91.3543 74.5595 91.0133 74.8954 90.579 74.9997C90.1448 75.104 89.6884 74.9597 89.3931 74.6246C89.8435 75.3363 89.7225 76.2679 89.1055 76.841C88.4528 77.376 87.5056 77.3479 86.8859 76.7751C87.0306 77.4485 86.4664 78.1171 85.8075 78.3148C85.1485 78.5125 84.4349 78.3533 83.7792 78.1412C82.6156 77.7667 81.8731 77.1335 80.8862 76.5533C79.9798 76.0229 79.7982 76.7285 78.9994 77.2974C77.2909 78.5173 75.0858 78.8162 73.0527 79.0734" fill="white"/>
<path d="M71.2654 66.2221C72.998 65.4619 74.8382 64.9926 76.6945 64.6599C78.5906 64.3058 80.506 64.0643 82.4306 63.9367C82.8115 63.9142 83.2439 63.8724 83.5653 64.1215C83.8867 64.3706 84.0684 64.6872 84.4123 64.8849C85.0938 65.2787 85.8732 65.126 86.6093 65.2899C88.1555 65.6355 89.6277 66.6978 90.6129 67.9145C91.1761 68.6091 91.607 69.4012 91.8842 70.2514C92.0288 70.6982 92.1622 71.1835 92.0738 71.6528C92.0031 72.0257 91.7026 72.4564 91.2702 72.3391C91.002 72.274 90.7229 72.393 90.5842 72.6316C90.4454 72.8702 90.48 73.1716 90.6691 73.3725C90.8288 73.5174 90.8947 73.739 90.8401 73.9476C90.7855 74.1562 90.6194 74.3171 90.4092 74.3651C90.199 74.4131 89.9796 74.3403 89.8398 74.1761C89.3368 73.6683 88.4737 74.3208 88.845 74.9444C89.4364 75.9344 88.2792 77.1623 87.3438 76.3185C86.8295 75.8541 86.177 76.3185 86.2622 76.947C86.3458 77.5432 85.4939 77.7666 85.0712 77.7506C84.3823 77.6955 83.7134 77.4921 83.1105 77.1543C82.5576 76.8634 82.0465 76.5018 81.5161 76.1723C81.034 75.8701 80.5036 75.5937 79.9218 75.7737C79.4043 75.9344 79.0764 76.4166 78.6633 76.738C78.1298 77.1257 77.5394 77.4282 76.9131 77.6348C75.6675 78.0736 74.3528 78.2552 73.0558 78.4272C72.2394 78.5349 72.2201 79.8335 73.0558 79.7306C74.5602 79.5474 76.0966 79.3578 77.5206 78.8097C78.2183 78.5557 78.876 78.2028 79.4734 77.7618C79.7144 77.577 79.9427 77.2636 80.2014 77.1189C80.4602 76.9743 80.6032 77.1527 80.8636 77.3134C82.1253 78.0945 83.3628 78.9367 84.8912 79.0556C86.3474 79.1697 87.7376 78.1716 87.5158 76.6159L86.4358 77.2459C87.286 78.0077 88.6151 78.1154 89.5103 77.352C90.4056 76.5885 90.5325 75.2835 89.9459 74.3176L88.951 75.0842C89.655 75.7833 90.8652 75.8685 91.5933 75.1437C92.3213 74.4188 92.2362 73.215 91.5499 72.5111L90.9472 73.5445C91.7965 73.7417 92.6702 73.3301 93.059 72.5497C93.5412 71.6352 93.2712 70.5455 92.9112 69.6422C92.2276 67.9072 91.0167 66.4305 89.4493 65.4201C88.6344 64.901 87.6813 64.4237 86.7267 64.2485C86.3008 64.1697 85.87 64.1986 85.4409 64.144C84.8462 64.0669 84.61 63.6361 84.1744 63.3002C83.4239 62.72 82.376 62.9193 81.5033 63.0061C80.3702 63.117 79.2387 63.2697 78.1153 63.4481C75.6113 63.8451 73.133 64.4124 70.817 65.4603C70.2898 65.6982 70.7479 66.4648 71.2686 66.235L71.2654 66.2221Z" fill="#232323"/>
<path d="M82.7666 65.3607C84.0106 65.1083 85.3092 65.3028 86.5644 65.1855C87.0144 65.1437 87.2073 64.414 86.6801 64.3256C85.9923 64.2099 85.2947 64.2597 84.5908 64.2967C83.8972 64.3089 83.2061 64.3826 82.5255 64.5169C81.9743 64.6455 82.2041 65.4732 82.7586 65.3607H82.7666Z" fill="#232323"/>
<path d="M62.2781 44.901C59.7291 44.4542 57.0724 44.9701 54.7242 46.0502C52.3761 47.1302 50.3044 48.7503 48.4433 50.5503C43.2504 55.5632 38.2922 63.1283 37.7185 70.515C37.5835 72.2652 37.8101 74.0267 38.1765 75.7432C38.6474 77.9418 39.3739 80.1357 40.7368 81.9245C42.7152 84.5185 45.8911 86.0164 49.1199 86.4841C52.3488 86.9518 55.6452 86.4841 58.8178 85.7175C63.5436 84.5817 68.0949 82.8145 72.3488 80.4635C72.91 80.2764 73.2483 79.7052 73.1428 79.1231C73.0973 74.2931 72.6706 69.4742 71.8666 64.7114C71.3427 65.1935 50.5423 69.721 49.848 69.8367" fill="#F9CCC9"/>
<path d="M62.4275 44.3562C55.5825 42.9884 49.541 47.9981 45.3719 52.8261C41.1771 57.6798 37.6943 63.6779 37.0579 70.1614C36.8747 72.0257 37.0788 73.8917 37.45 75.7207C37.7565 77.3593 38.2723 78.9517 38.9849 80.4587C40.3687 83.2713 42.8293 85.253 45.7271 86.3587C48.9817 87.6027 52.5433 87.5754 55.9393 87.0402C59.4574 86.4873 62.9242 85.449 66.2253 84.1472C67.8936 83.4899 69.533 82.757 71.1289 81.9421C71.8297 81.5837 72.6316 81.2575 73.2376 80.748C73.9078 80.1855 73.8804 79.3915 73.866 78.5879C73.8074 74.8295 73.5181 71.0782 72.9997 67.3552C72.8658 66.4059 72.719 65.4587 72.5593 64.5137C72.4613 63.9254 71.7236 63.8869 71.3507 64.1922C71.4166 64.1376 71.5243 64.0315 71.4102 64.1263C71.558 64.0122 71.5387 64.0781 71.3973 64.1263C71.2366 64.1794 71.0646 64.2308 70.8975 64.279C70.3446 64.4397 69.7885 64.5779 69.2308 64.7178C67.5127 65.1501 65.7866 65.5519 64.0604 65.9489C60.2278 66.8339 56.3898 67.6938 52.5465 68.5284C51.5821 68.739 50.6178 69.001 49.6535 69.1713C48.7808 69.3208 49.1505 70.6516 50.0216 70.5021C50.0489 70.5021 50.0762 70.4908 50.1051 70.4876C49.8319 70.531 50.1405 70.4876 50.2658 70.4587C50.4362 70.4282 50.6066 70.3928 50.7769 70.3607C51.3459 70.2498 51.91 70.126 52.4757 70.0055C54.2233 69.6294 55.9682 69.2485 57.7104 68.8627C61.587 68.0029 65.4651 67.1446 69.3192 66.19C69.9621 66.0293 70.6162 65.8685 71.2575 65.6853C71.6416 65.576 72.0611 65.4812 72.3729 65.2224L71.1643 64.901C71.7467 68.4118 72.1223 71.9537 72.2893 75.5085C72.3311 76.3593 72.3606 77.2105 72.3777 78.0624C72.3857 78.4674 72.4195 78.8852 72.3938 79.2887C72.3681 79.6921 72.1093 79.7483 71.7895 79.9235C70.3928 80.6917 68.956 81.3941 67.495 82.0354C64.4363 83.3729 61.2575 84.417 58.0013 85.1533C54.7869 85.8814 51.3877 86.296 48.1379 85.5696C45.425 84.9621 42.765 83.5686 41.1305 81.2591C40.285 80.0195 39.6527 78.6474 39.2597 77.1993C38.7696 75.5737 38.4729 73.896 38.3758 72.2009C38.2408 69.1954 39.0621 66.1626 40.2192 63.4111C41.4527 60.5474 43.0518 57.8555 44.9766 55.4024C49.0749 50.0987 55.0264 44.5169 62.27 45.4748C62.8984 45.5567 63.0415 44.4879 62.4195 44.3642L62.4275 44.3562Z" fill="#F9CCC9"/>
<path d="M57.1302 47.3231C57.6638 49.1862 58.913 50.7624 60.605 51.7075C61.505 52.2009 62.569 52.5786 63.5976 52.3022C64.5892 52.037 65.3542 51.2623 66.0341 50.5343C66.4986 50.0392 65.7705 49.3064 65.2883 49.7885C64.7371 50.3414 64.1456 50.9521 63.3758 51.182C62.5143 51.4391 61.6079 51.0212 60.8798 50.5889C59.5357 49.7888 58.5028 48.5565 57.9499 47.0932C57.765 46.587 56.9727 46.7847 57.1302 47.3182V47.3231Z" fill="#232323"/>
<path d="M53.8177 62.9499C53.1501 64.7525 52.653 66.6138 52.3327 68.5092C52.2872 68.6938 52.3416 68.8887 52.476 69.0232C52.6105 69.1576 52.8054 69.212 52.99 69.1665C57.855 68.1476 62.7264 67.0965 67.5352 65.8316C68.6164 65.5717 69.683 65.2541 70.7303 64.8801C70.9971 64.7789 71.3378 64.676 71.5612 64.4864C71.5415 64.503 71.5163 64.5116 71.4905 64.5105C71.5258 64.5105 71.4069 64.4783 71.3989 64.4799C71.4583 64.4574 71.5082 64.5683 71.4503 64.504C71.4776 64.5346 71.6384 64.713 71.55 64.5989C72.143 65.3655 72.3536 66.4825 72.5657 67.4468C72.8847 68.8955 73.1224 70.3609 73.2777 71.8361C73.4761 73.5356 73.5871 75.2442 73.6104 76.955C73.6104 77.5979 73.6104 78.2408 73.5541 78.8837C73.5436 79.0868 73.5173 79.2889 73.4754 79.488C73.4577 79.5796 73.4336 79.6712 73.4111 79.7612C73.4015 79.8014 73.387 79.8384 73.3757 79.8769C73.3243 80.0376 73.4127 79.8062 73.3757 79.8914C73.0334 80.6002 74.0925 81.2238 74.4365 80.5118C74.8592 79.6358 74.8303 78.5237 74.8399 77.5754C74.8426 76.0626 74.7648 74.5508 74.6069 73.0463C74.4461 71.4166 74.234 69.7869 73.9206 68.1797C73.6811 66.9534 73.4079 65.6902 72.8646 64.5571C72.5223 63.8403 71.8521 63.0463 70.981 63.4931C70.7563 63.6238 70.5214 63.7361 70.2787 63.829C69.7869 64.0106 69.2838 64.1633 68.7824 64.3112C65.7287 65.208 62.6203 65.9184 59.5201 66.6272C57.2518 67.1457 54.9808 67.6488 52.7071 68.1363L53.3629 68.7921C53.6768 66.8962 54.1675 65.0339 54.8286 63.2295C55.0617 62.5867 54.0508 62.3215 53.8177 62.9499Z" fill="#232323"/>
<path d="M63.8611 26.9968C64.8528 26.7107 65.9633 26.6111 66.9727 26.865C67.6493 27.0354 68.6168 27.2813 69.062 27.8567C69.4473 28.3727 69.5288 29.0548 69.2758 29.6471C69.9878 29.4542 70.7544 30.0473 70.9248 30.7914C71.0951 31.5355 70.7641 32.3327 70.2353 32.8631C70.703 32.6718 71.2816 32.7024 71.6609 33.0447C72.0402 33.387 72.1125 34.0797 71.738 34.4285C72.4532 34.1071 73.3292 34.7323 73.4834 35.523C73.6377 36.3137 73.215 37.1302 72.6059 37.6333C71.5371 38.5092 70.4233 38.2761 69.2035 38.0351C68.1813 37.8358 67.0514 38.0929 66.0051 38.0109C63.424 37.8117 60.8508 36.9952 58.7615 35.3751" fill="#232323"/>
<path d="M63.9736 27.4018C65.2127 27.0804 69.5586 27.2122 68.6473 29.4735C68.4432 29.9798 69.0186 30.3575 69.4509 30.2771C69.8833 30.1968 70.2304 30.6629 70.2754 31.0438C70.3349 31.5436 70.0633 32.0081 69.729 32.3552C69.2468 32.8374 69.729 33.8017 70.4281 33.5574C70.6322 33.4867 70.8974 33.3967 71.0983 33.5285C71.2076 33.5976 71.333 33.7921 71.2253 33.9142C70.7801 34.4141 71.1996 35.3928 71.9325 35.1309C72.3953 34.9701 72.7714 35.3896 72.7827 35.8396C72.8003 36.4616 72.3005 37.0402 71.7749 37.307C71.1947 37.6011 70.5358 37.532 69.917 37.4211C69.1233 37.2669 68.314 37.2076 67.5062 37.2443C66.0135 37.3282 64.5174 37.1554 63.0832 36.7332C61.6206 36.3057 60.3815 35.5889 59.1134 34.7644C58.4464 34.3289 57.6509 35.3398 58.2552 35.875C59.6936 37.1511 61.6303 37.9386 63.477 38.3726C64.4376 38.6095 65.421 38.7416 66.4101 38.7664C67.4773 38.7792 68.4705 38.6571 69.5313 38.8435C70.4265 39.0042 71.333 39.083 72.1944 38.7278C73.0612 38.3714 73.7431 37.6738 74.0797 36.7991C74.4118 35.9803 74.2693 35.0454 73.7084 34.3626C73.1812 33.7519 72.331 33.4337 71.5515 33.7197L72.2603 34.9364C72.8306 34.3103 72.8613 33.3625 72.3326 32.7008C71.7926 32.0225 70.8379 31.8747 70.052 32.164L70.7528 33.3662C71.4728 32.5722 71.9164 31.4375 71.5194 30.388C71.173 29.3909 70.1435 28.8028 69.1086 29.0107L69.9122 29.8143C70.4394 28.4015 69.6036 27.1061 68.2729 26.6143C67.6091 26.3685 66.9126 26.2223 66.206 26.1804C65.3381 26.1322 64.5747 26.3411 63.7566 26.5838C63.2375 26.7349 63.4545 27.5304 63.98 27.3874L63.9736 27.4018Z" fill="#232323"/>
<path d="M58.2843 35.6869C58.0371 37.0317 58.2257 38.4202 58.8227 39.6503C59.067 40.1453 59.5411 40.6596 59.652 41.1996C59.7452 41.6496 59.6793 42.2732 59.6198 42.7233C59.5688 43.0935 59.4991 43.461 59.4109 43.8242C59.3177 44.2196 59.0702 44.7081 59.2711 45.0955C59.5025 45.5407 60.0666 45.965 60.4315 46.3041C60.8639 46.7033 61.3207 47.0753 61.7992 47.4179C62.1557 47.6908 62.552 47.9077 62.9741 48.0608C63.4012 48.215 63.8695 48.2104 64.2936 48.0479C65.0168 47.7361 65.364 46.8859 65.3961 46.1C65.4283 45.3141 65.2193 44.5362 65.1695 43.7503C65.1314 43.3947 65.1777 43.0351 65.3045 42.7008C65.6099 42.0048 66.5485 41.8698 67.1319 41.4825C67.7824 41.0523 68.3031 40.4527 68.6378 39.7483C69.3659 38.191 69.1682 36.3057 68.3984 34.766C68.0818 34.1389 67.6876 33.5541 67.2251 33.0254C65.9554 31.556 64.0224 30.8381 62.1014 31.1225C60.3222 31.4037 58.9111 33.432 58.4321 35.0569C58.3743 35.2707 58.3228 35.478 58.2843 35.6869Z" fill="white"/>
<path d="M57.7826 35.552C57.3989 37.2749 57.7071 39.0797 58.6408 40.5777C58.8465 40.9087 59.0314 41.2125 59.0442 41.6111C59.0502 42.0506 59.0109 42.4895 58.9269 42.921C58.7887 43.6924 58.3081 44.5876 58.6537 45.3575C58.9751 46.0743 59.7289 46.6191 60.3043 47.1254C60.9905 47.7297 61.7507 48.3533 62.6042 48.686C64.2194 49.3112 65.7543 48.3372 66.05 46.6706C66.2107 45.7512 65.9905 44.8673 65.9102 43.956C65.8813 43.6346 65.8202 43.1829 66.0355 42.9033C66.2123 42.6718 66.5981 42.5577 66.8552 42.4436C68.2989 41.7942 69.3461 40.495 69.6742 38.9464C70.4007 35.5953 68.2278 31.8425 65.0134 30.6982C63.3804 30.1148 61.4936 30.1968 60.0985 31.2848C58.7983 32.3006 57.9079 33.8917 57.5961 35.5021C57.4258 36.3877 58.7758 36.7702 58.9574 35.8766C59.1927 34.6765 59.7828 33.5746 60.6514 32.7136C61.5707 31.82 62.7569 31.624 63.988 31.91C66.7009 32.5352 68.7774 35.6243 68.3001 38.3887C68.0703 39.7226 67.2683 40.6741 66.05 41.2157C65.5678 41.4263 65.1034 41.6754 64.8012 42.119C64.3528 42.7763 64.4042 43.596 64.5007 44.3482C64.6132 45.2321 65.0889 47.6735 63.464 47.4629C62.7922 47.3761 62.1783 46.8506 61.664 46.4504C61.365 46.2173 61.0838 45.9682 60.7993 45.7143C60.5148 45.4603 60.0873 45.2128 59.9282 44.8898C59.7884 44.6117 59.9716 44.2935 60.0439 44.0042C60.1451 43.5833 60.2208 43.1566 60.2705 42.7265C60.3702 41.9229 60.4071 41.1354 60.015 40.4009C59.6228 39.6664 59.1776 39.0878 58.9655 38.2842C58.7405 37.4404 58.6858 36.5602 58.8047 35.695C58.8803 35.1084 57.8999 34.9798 57.7826 35.552Z" fill="#232323"/>
<path d="M61.288 39.3272C61.2074 39.2753 61.1411 39.2041 61.0951 39.1199C60.891 38.7615 60.9746 38.2826 60.7207 37.9338C60.4346 37.5433 60.1019 37.0466 59.6503 36.8377C59.1585 36.6095 58.4625 36.775 58.2697 37.2829C58.1954 37.5211 58.1921 37.7757 58.26 38.0158C58.41 38.6379 58.6255 39.2424 58.9029 39.819C59.0765 40.1935 59.4365 40.6066 59.1376 41.0261C58.9234 41.2953 58.5694 41.411 58.2375 41.3202C57.9124 41.2223 57.6412 40.9959 57.487 40.6934C57.098 40.8718 56.6303 40.9521 56.2462 40.7625C55.8621 40.5728 55.6403 40.0408 55.8862 39.6889C55.7358 39.8769 55.4812 39.9464 55.2562 39.8608C55.0387 39.7736 54.8484 39.6299 54.7049 39.4446C54.5204 39.2517 54.3805 39.0207 54.2951 38.7679C54.2147 38.4883 54.2517 37.8583 54.6824 37.9917C54.152 37.7972 53.6313 37.577 53.1122 37.3488C52.5534 37.0979 52.2057 36.5301 52.2362 35.9184C52.2764 35.2369 52.7602 34.6326 53.3709 34.3305C52.7462 33.8011 52.6107 32.8907 53.0541 32.2024C53.4976 31.5141 54.3825 31.2611 55.1228 31.6111C54.8294 31.0507 54.6554 30.4356 54.6117 29.8046C54.594 29.173 54.8078 28.5188 55.2899 28.1058C55.7721 27.6927 56.5435 27.6236 57.0337 28.019C56.8692 27.3006 57.2762 26.5744 57.9749 26.3399C58.6736 26.1053 59.4363 26.4388 59.7387 27.1109C59.5651 26.7284 61.5468 26.3475 61.7573 26.3555C62.5818 26.3893 63.1813 26.8843 63.9029 27.209C65.1887 27.7859 66.2767 28.9528 65.8701 30.4732C65.6773 31.1964 66.1112 31.3973 66.1659 32.1013C66.2076 32.6525 65.7399 33.1395 65.2128 33.3115C64.6856 33.4835 64.1151 33.4128 63.567 33.342C63.7034 33.8305 63.5208 34.3521 63.1096 34.6489C62.6983 34.9456 62.1457 34.9545 61.7252 34.6712C62.0672 35.8989 62.2243 37.1708 62.1912 38.4449C62.2015 38.6668 62.1562 38.8878 62.0595 39.0878C61.865 39.4205 61.5307 39.4831 61.288 39.3272Z" fill="#232323"/>
<path d="M61.6174 38.9978C61.3104 38.7278 61.3956 38.1074 61.1979 37.7474C60.9972 37.3898 60.7496 37.0607 60.4618 36.7686C59.88 36.182 58.9848 35.965 58.2535 36.4199C57.3728 36.9759 57.5721 38.0801 57.8533 38.9207C58.009 39.39 58.198 39.8476 58.419 40.29C58.4978 40.4507 58.7276 40.6886 58.4592 40.7079C58.2744 40.7207 58.1281 40.4973 58.0494 40.3671C57.916 40.1453 57.5833 39.9653 57.3213 40.0714C57.241 40.1036 56.2766 40.3511 56.4583 40.02C56.8086 39.3771 55.9568 38.6731 55.4297 39.226C55.3975 39.2598 55.0246 38.7857 54.9957 38.7262C54.9794 38.6773 54.9567 38.6308 54.9282 38.588C54.9282 38.5462 54.9282 38.506 54.9282 38.4658C54.9282 38.3051 54.7916 38.3549 54.5168 38.6265C54.866 38.7228 55.2273 38.5178 55.3236 38.1685C55.4199 37.8192 55.2148 37.458 54.8655 37.3617C54.2966 37.1511 53.2117 36.9438 52.953 36.3234C52.6942 35.703 53.2149 35.163 53.7051 34.8962C53.8771 34.7957 53.9927 34.6211 54.0181 34.4235C54.0436 34.226 53.9761 34.0278 53.8353 33.8869C52.924 33.0335 53.8626 31.7879 54.9604 32.2411C55.5373 32.4774 55.8893 31.7413 55.6852 31.2993C55.3766 30.6323 55.105 29.8528 55.3734 29.1296C55.5856 28.559 56.177 28.2038 56.7154 28.588C57.2249 28.948 57.7488 28.3549 57.6637 27.8583C57.5029 26.8843 58.7807 26.6593 59.1921 27.4469C59.5361 28.1026 60.5454 27.6445 60.367 26.9518C60.4891 27.434 60.0102 27.5047 60.4248 27.3327C60.5948 27.268 60.7687 27.2143 60.9456 27.172C61.132 27.1238 61.32 27.082 61.5081 27.0467C61.5756 27.0338 61.6447 27.0177 61.7138 27.0113C61.8231 27.0033 61.6254 27.0113 61.7363 27.0113C62.2731 27.0274 62.7456 27.3504 63.2053 27.5915C63.6649 27.8326 64.1793 28.0415 64.5843 28.408C64.9473 28.7078 65.1978 29.122 65.2947 29.5828C65.3814 30.1245 65.105 30.6307 65.2175 31.1772C65.2995 31.5758 65.7173 32.0804 65.4104 32.4629C65.0005 32.9724 64.1246 32.8053 63.5749 32.7426C63.1603 32.696 62.9112 33.1669 62.9899 33.5108C63.1233 34.1087 62.5335 34.4623 62.0256 34.1746C61.8198 34.0619 61.5668 34.0815 61.3808 34.2247C61.1949 34.3678 61.1111 34.6073 61.1674 34.8352C61.3606 35.5263 61.4934 36.2329 61.5643 36.947C61.5965 37.2792 61.6147 37.6129 61.619 37.9483C61.619 37.9901 61.5836 38.8387 61.5756 38.8355C60.9182 38.514 60.3397 39.496 61.0002 39.8207C61.4261 40.0296 61.8906 40.0328 62.2683 39.7146C62.6781 39.3675 62.7505 38.858 62.7681 38.3501C62.7925 37.0585 62.6329 35.77 62.294 34.5234L61.4358 35.1839C62.8822 36.0148 64.4669 34.7773 64.1568 33.1878L63.411 33.9351C64.3239 34.0637 65.2898 34.165 66.0693 33.5671C66.7183 33.091 66.9761 32.2443 66.7026 31.4874C66.6045 31.1852 66.4599 30.9779 66.5049 30.6548C66.5659 30.2145 66.6447 29.8303 66.574 29.3819C66.4418 28.6478 66.0651 27.9799 65.5052 27.487C64.9137 26.947 64.1953 26.64 63.4962 26.2704C62.8678 25.9377 62.1895 25.6436 61.4679 25.7497C60.7141 25.8606 58.8353 26.1547 59.1262 27.2894L60.2995 26.7943C59.8159 25.872 58.737 25.4338 57.7472 25.7577C56.7283 26.1129 56.2477 27.1833 56.4165 28.199L57.3663 27.4678C56.3634 26.7542 55.0005 27.2106 54.3818 28.199C53.6457 29.3755 54.0378 30.7802 54.5762 31.9422L55.2995 31.0004C54.2766 30.6033 53.1154 30.9734 52.511 31.8892C51.9292 32.8085 52.1494 34.0605 52.924 34.7934L53.0542 33.7824C52.0738 34.308 51.3683 35.4073 51.6608 36.542C51.9983 37.8438 53.403 38.2071 54.5136 38.6314L54.8623 37.3665C53.7775 37.1801 53.3853 38.3131 53.7533 39.1794C54.1584 40.1309 55.4473 41.1273 56.357 40.1614L55.3204 39.3594C55.0096 39.9228 55.1143 40.6245 55.5759 41.0727C56.132 41.624 56.9822 41.595 57.6572 41.3138L56.9372 41.0164C57.3937 41.7574 58.2808 42.2443 59.1326 41.8329C59.5492 41.644 59.8373 41.2518 59.8928 40.7979C59.9411 40.2739 59.6469 39.8544 59.43 39.4044C59.1718 38.9136 58.9789 38.3911 58.8562 37.8503C58.8176 37.6285 58.7791 37.4565 58.9944 37.3424C59.1879 37.271 59.4045 37.3037 59.5682 37.4292C59.9557 37.6881 60.2515 38.0627 60.4136 38.4996C60.5422 38.9335 60.5743 39.3546 60.952 39.6568C61.4181 40.02 62.0706 39.4092 61.6174 38.9978Z" fill="#232323"/>
<path d="M67.9787 36.0341H67.953L68.0462 36.0213H68.0173L68.1105 36.0341H68.0848L68.1683 36.0695C68.1563 36.0646 68.1449 36.0581 68.1346 36.0502L68.2037 36.1048L68.186 36.0855L68.2407 36.1546C68.236 36.1477 68.2322 36.1401 68.2294 36.1321L68.2632 36.2141V36.2013L68.276 36.2945C68.2744 36.2854 68.2744 36.2762 68.276 36.2672L68.2632 36.3588C68.2624 36.3502 68.2624 36.3416 68.2632 36.333L68.2278 36.415C68.2311 36.407 68.2355 36.3994 68.2407 36.3925L68.1876 36.4616C68.1922 36.4541 68.1982 36.4476 68.2053 36.4423L68.1362 36.4954C68.1421 36.4891 68.1492 36.4842 68.1571 36.4809L68.0767 36.5163C68.0847 36.5149 68.0929 36.5149 68.1008 36.5163H68.0173H68.0317L67.9417 36.5034H67.9658L67.8855 36.4697C67.8936 36.4735 67.9011 36.4784 67.908 36.4841L67.8389 36.4311C67.8457 36.4371 67.8521 36.4436 67.8582 36.4504L67.8051 36.3829C67.8104 36.3895 67.8143 36.3972 67.8164 36.4054L67.7826 36.3266V36.3379L67.7714 36.2495C67.773 36.258 67.773 36.2667 67.7714 36.2752L67.7842 36.1868V36.1997C67.7378 36.376 67.8405 36.5572 68.0157 36.6079C68.1918 36.6525 68.3718 36.5505 68.4239 36.3764C68.4809 36.1812 68.3909 35.973 68.2095 35.881C68.0281 35.7889 67.8069 35.8391 67.683 36.0004C67.5672 36.1452 67.5549 36.3473 67.6524 36.505C67.7633 36.675 67.9703 36.7552 68.1667 36.7043C68.2882 36.6707 68.3825 36.5749 68.4141 36.4529C68.4457 36.331 68.4099 36.2014 68.3201 36.113C68.2303 36.0246 68.1001 35.9909 67.9787 36.0245V36.0341Z" fill="#232323"/>
<path d="M62.1172 41.8859C62.9634 42.3903 63.9319 42.6522 64.917 42.6429C65.8089 42.6252 67.0063 42.3986 67.5479 41.6159C67.8356 41.1996 67.3583 40.6243 66.8938 40.7673C66.5467 40.875 66.2622 41.1048 65.9295 41.2382C65.5817 41.3722 65.2151 41.4514 64.843 41.4729C64.0724 41.5253 63.3004 41.3907 62.5929 41.0807C62.0577 40.8396 61.5917 41.5773 62.122 41.8843L62.1172 41.8859Z" fill="#232323"/>
<path d="M67.6764 34.8191C67.0962 34.9798 66.5787 35.3109 66.5016 35.9602C66.4582 36.325 66.5964 36.6689 66.7202 37.0049C66.7845 37.1768 66.8439 37.352 66.913 37.5208C67.0304 37.8068 67.0737 37.7988 66.7684 37.8229C66.3939 37.8535 66.3875 38.4369 66.7684 38.4112C67.2361 38.3822 67.6877 38.2906 67.5832 37.7136C67.4225 36.8072 66.3457 35.6693 67.7954 35.2514C67.905 35.211 67.9655 35.0933 67.9345 34.9806C67.9035 34.8679 67.7914 34.7977 67.6764 34.8191Z" fill="#232323"/>
<path d="M65.9423 35.2305C65.4592 34.6977 64.6469 34.6276 64.0796 35.0698C63.8305 35.2675 64.1101 35.6018 64.3608 35.552C64.581 35.5102 64.7755 35.3912 65.0037 35.3832C65.213 35.3768 65.4166 35.4523 65.5711 35.5937C65.6749 35.6845 65.8312 35.6793 65.9287 35.5818C66.0262 35.4843 66.0315 35.3279 65.9407 35.2241L65.9423 35.2305Z" fill="#232323"/>
<path d="M66.0484 38.8531C65.9705 38.8069 65.8859 38.7727 65.7977 38.7519C65.6419 38.718 65.4792 38.7597 65.359 38.8644C65.2575 38.9622 65.2002 39.0971 65.2002 39.2381C65.2002 39.379 65.2575 39.5139 65.359 39.6117C65.5087 39.7529 65.7261 39.7961 65.9184 39.7228C66.1107 39.6494 66.2442 39.4726 66.262 39.2675C66.2798 39.0624 66.1787 38.8652 66.0018 38.7599C65.8428 38.6678 65.6402 38.7078 65.528 38.8533C65.4158 38.9988 65.4287 39.2049 65.5582 39.3353C65.584 39.361 65.5759 39.3482 65.5325 39.2967L65.5486 39.3224C65.525 39.2582 65.5186 39.2437 65.5293 39.2791C65.5302 39.2897 65.5302 39.3005 65.5293 39.3112L65.5165 39.2115C65.5173 39.2276 65.5173 39.2437 65.5165 39.2598L65.5293 39.1617C65.5293 39.1794 65.5084 39.226 65.5293 39.1617C65.535 39.1418 65.5455 39.1236 65.5599 39.1087C65.584 39.0798 65.5872 39.0765 65.5679 39.0942C65.5486 39.1119 65.6434 39.0396 65.6016 39.0637C65.674 39.0203 65.6708 39.038 65.6274 39.0444L65.7238 39.0315H65.6756L65.7704 39.0444L65.7399 39.0364C65.7787 39.0458 65.814 39.0664 65.8411 39.0958C65.817 39.0701 65.825 39.083 65.8668 39.1312C65.9086 39.1794 65.8941 39.2051 65.8829 39.1698C65.8829 39.2341 65.8909 39.2517 65.8829 39.2228V39.1987C65.8733 39.2646 65.8716 39.2791 65.8829 39.2437C65.8941 39.2083 65.8829 39.2228 65.8652 39.2791C65.8475 39.3353 65.8202 39.3337 65.8427 39.3064C65.8652 39.2791 65.8588 39.2903 65.8186 39.3257C65.8636 39.2935 65.7511 39.3482 65.809 39.3257C65.8395 39.3257 65.8315 39.3257 65.7833 39.3257H65.8009L65.8347 39.3369C65.9645 39.3728 66.1009 39.3068 66.1534 39.1828C66.2059 39.0587 66.1582 38.9149 66.042 38.8467L66.0484 38.8531Z" fill="#232323"/>
<path d="M68.6811 69.2469C69.735 72.7607 70.1982 76.4251 70.052 80.0906C70.0311 80.5423 70.7383 80.5439 70.7544 80.0906C70.9035 76.3645 70.3836 72.6418 69.2195 69.099C69.1054 68.7615 68.5766 68.8997 68.6811 69.2469Z" fill="#232323"/>
<path d="M57.5706 63.0239C57.8642 61.9195 58.2563 60.8437 58.7423 59.8095L58.2682 59.8721C59.263 60.7641 60.2611 61.6401 61.1981 62.5963C61.2759 62.6722 61.3843 62.7083 61.4921 62.6942C61.5998 62.6801 61.6952 62.6174 61.751 62.524C62.0033 61.984 62.2444 61.4359 62.4903 60.8911L62.8358 60.1213C62.9194 59.9348 63.0207 59.5073 63.1749 59.3771C63.4032 59.1859 63.5976 59.6359 63.7326 59.8304L64.2148 60.5231C64.4687 60.8911 64.75 61.5308 65.1389 61.7702C65.9136 62.2524 66.2752 60.6452 66.4472 60.2193L66.7558 59.4591C66.8008 59.345 66.9904 58.8676 66.9744 58.8725C67.0483 58.8516 67.5481 59.4655 67.6381 59.5587C67.8599 59.787 68.0785 60.02 68.3083 60.2402C68.6491 60.5616 69.136 60.0714 68.8226 59.7243C68.5864 59.4623 68.3405 59.2116 68.0882 58.9577C67.8664 58.7294 67.6414 58.4241 67.3794 58.2441C67.2412 58.1306 67.062 58.0798 66.8848 58.1039C66.7076 58.128 66.5485 58.2248 66.4456 58.371C66.0984 58.8162 65.949 59.5041 65.7384 60.0248C65.6404 60.2691 65.5375 60.7802 65.3559 60.9747L65.4427 61.0213L65.2611 60.7625L64.9638 60.3254C64.5877 59.7838 63.7857 58.0512 62.8744 58.6378C62.4292 58.9255 62.2556 59.6825 62.0515 60.1405C61.7494 60.814 61.4408 61.4858 61.1499 62.164L61.7011 62.0933C60.7465 61.1568 59.7433 60.271 58.6957 59.4398C58.6185 59.3667 58.509 59.3388 58.4062 59.366C58.3034 59.3931 58.222 59.4715 58.191 59.5732C57.7411 60.6505 57.3652 61.7572 57.066 62.8856C57.0354 63.0212 57.1168 63.1569 57.2508 63.1939C57.3848 63.2308 57.5242 63.156 57.5674 63.0239H57.5706Z" fill="white"/>
<path d="M58.2134 66.2623C58.3646 65.8978 58.5401 65.544 58.7389 65.2032C59.025 64.721 59.557 65.0521 59.9235 65.2691C60.2899 65.486 60.8605 65.9891 61.341 65.9569C61.865 65.9232 62.1076 65.3269 62.3391 64.9412C62.4789 64.7082 62.6123 64.369 62.8212 64.1842C63.1073 63.9254 63.3211 64.1842 63.5509 64.3674C63.8724 64.6262 64.1938 64.8866 64.6277 64.8673C65.0874 64.8448 65.4458 64.5137 65.7142 64.1713C65.8974 63.9383 66.0549 63.6892 66.2205 63.4369C66.4423 63.1042 66.5291 63.0688 66.8955 63.2279C67.3851 63.4364 67.9365 63.4468 68.4336 63.2569C68.8434 63.1058 68.6666 62.4436 68.252 62.5947C67.8794 62.749 67.4587 62.7379 67.0948 62.5642C66.8569 62.4533 66.6625 62.3183 66.386 62.3633C65.9039 62.442 65.6644 63.0318 65.4217 63.3919C65.2513 63.6442 65.0054 64.0942 64.6727 64.1633C64.34 64.2324 64.1134 63.9303 63.8949 63.7551C63.5734 63.4915 63.1957 63.2729 62.7698 63.4176C62.2587 63.5928 62.016 64.1665 61.7605 64.5973C61.6843 64.7683 61.5889 64.93 61.476 65.0794L61.3555 65.2514C61.212 65.2573 61.0712 65.2117 60.9585 65.1228C60.6242 64.9782 60.3028 64.7644 59.9829 64.5892C59.5329 64.3417 59.0363 64.0572 58.5863 64.4606C58.1362 64.8641 57.9353 65.5969 57.7361 66.1289C57.6203 66.4407 58.1025 66.558 58.2182 66.2639L58.2134 66.2623Z" fill="white"/>
<path d="M83.911 59.8111C83.1459 57.3778 82.8036 54.8384 82.0547 52.4035C81.5227 50.6581 80.846 48.9592 80.4266 47.1801C80.0682 45.6581 79.7098 43.6442 80.7175 42.2894C81.3266 41.4681 82.3729 41.0856 83.3324 40.867C84.6824 40.56 86.1016 40.4877 87.4806 40.4089C89.9653 40.2659 93.1363 40.0039 95.1196 41.8281C95.6741 42.3376 96.4986 41.5211 95.9489 41.0004C94.0797 39.2325 91.4182 39.0717 88.9753 39.1168C87.4165 39.1433 85.8604 39.2571 84.3144 39.4575C83.019 39.6311 81.6946 39.9284 80.6178 40.7175C79.0267 41.886 78.7326 43.8612 78.964 45.6998C79.2196 47.7249 79.9396 49.6471 80.6098 51.5613C81.5837 54.3418 82.0257 57.2701 82.9563 60.0666C83.1556 60.6629 84.0958 60.4121 83.9045 59.8046L83.911 59.8111Z" fill="#232323"/>
<path d="M65.817 35.9859C65.5316 35.7945 65.1639 35.776 64.8607 35.9377C64.7192 36.0214 64.6712 36.2033 64.753 36.3459C64.8384 36.4854 65.0188 36.5323 65.1613 36.452C65.285 36.3939 65.427 36.3881 65.555 36.4359C65.6792 36.5068 65.8373 36.4644 65.9092 36.3408C65.9811 36.2173 65.94 36.0588 65.817 35.9859Z" fill="#232323"/>
<path d="M69.9974 34.811C70.1006 34.6848 70.2293 34.5818 70.3751 34.5089C70.8396 34.2694 71.4905 34.3063 72 34.2694L73.9382 34.1199C75.224 34.0128 76.5146 33.8954 77.81 33.7679C80.3815 33.506 82.9611 33.1909 85.5246 32.8036C87.9177 32.442 90.3012 32.0177 92.667 31.5178C94.8399 31.0582 96.9887 30.7818 99.152 30.3173C101.022 29.9147 102.868 29.4087 104.682 28.8017C105.7 28.461 106.735 28.0736 107.527 27.3632C108.078 26.8682 108.543 26.2044 109.266 26.0244C110.094 25.8155 110.938 26.3362 111.507 26.9614C112.424 27.9659 112.937 29.2742 113.168 30.6034C113.4 31.9325 113.371 33.289 113.316 34.6342C113.283 35.4458 113.238 36.2703 112.948 37.0305C112.659 37.7908 112.084 38.4883 111.294 38.731C109.803 39.1922 108.549 38.0367 107.19 37.7666C105.422 37.4179 103.279 37.7024 101.478 37.6702C97.7521 37.6027 94.0277 37.5272 90.3044 37.4436C87.3728 37.3761 84.4413 37.3038 81.5098 37.2266C78.8932 37.157 76.2762 37.0836 73.6586 37.0064C72.7345 36.9775 71.7605 37.0386 70.8444 36.9277C70.2015 36.8489 69.9186 36.4455 69.8367 35.8026" fill="white"/>
<path d="M70.3286 35.1421C70.8204 34.623 71.7751 34.7628 72.4308 34.7162C73.288 34.6562 74.1489 34.5908 75.0136 34.5201C76.7001 34.3819 78.3839 34.2164 80.065 34.0235C83.4177 33.6458 86.7622 33.1685 90.0811 32.5513C91.6883 32.2524 93.2955 31.8972 94.9027 31.6143C96.5694 31.3234 98.2409 31.0598 99.885 30.687C101.417 30.3398 102.932 29.9235 104.429 29.4382C105.774 29.001 107.101 28.5269 108.125 27.5224C108.535 27.1222 108.964 26.5581 109.584 26.5195C110.311 26.4841 110.952 27.1093 111.352 27.6445C112.238 28.8339 112.587 30.343 112.669 31.8007C112.702 32.5415 112.694 33.2836 112.645 34.0235C112.603 34.7789 112.585 35.56 112.405 36.2993C112.26 36.8924 111.982 37.4822 111.465 37.839C110.947 38.1958 110.319 38.1363 109.745 37.9515C109.171 37.7667 108.665 37.4935 108.117 37.2845C107.472 37.059 106.797 36.928 106.115 36.8956C104.625 36.7847 103.13 36.9486 101.638 36.939C98.2859 36.9165 94.9316 36.8104 91.579 36.7349C87.7925 36.6502 84.007 36.5565 80.2226 36.4536C78.3839 36.4022 76.5447 36.3486 74.705 36.2929C73.813 36.2656 72.9243 36.2591 72.0323 36.2527C71.6819 36.2527 71.0679 36.3443 70.7465 36.1675C70.5472 36.0566 70.5263 35.8236 70.4877 35.6146C70.3495 34.8609 69.03 35.0248 69.1313 35.7995C69.2132 36.4198 69.3965 37.0306 69.9686 37.3777C70.5858 37.7522 71.4376 37.7185 72.1335 37.7281C73.9111 37.7549 75.6881 37.7945 77.4646 37.847C81.0947 37.9478 84.7265 38.041 88.3598 38.1267C92.0467 38.2124 95.7342 38.2896 99.4222 38.3581C101.095 38.3887 102.755 38.3581 104.43 38.3212C105.196 38.2865 105.963 38.3188 106.724 38.4176C107.418 38.5253 108.034 38.8194 108.675 39.0894C109.996 39.6471 111.431 39.795 112.585 38.7905C113.739 37.786 113.967 36.1739 113.995 34.721C114.049 31.7541 113.926 28.0335 111.315 26.0582C110.753 25.6339 110.059 25.3527 109.345 25.4523C108.631 25.552 108.125 25.9891 107.649 26.4681C107.15 26.9967 106.56 27.4321 105.907 27.7538C105.143 28.0894 104.357 28.3718 103.554 28.5992C100.137 29.6712 96.6433 30.1871 93.1444 30.8814C86.002 32.3022 78.7793 33.4128 71.4971 33.8065C70.806 33.8435 70.1438 33.9399 69.652 34.4703C69.2422 34.9107 69.8995 35.5728 70.3142 35.1325L70.3286 35.1421Z" fill="#232323"/>
<path d="M113.48 35.7368C113.027 36.0812 112.481 36.2817 111.913 36.3121C111.769 36.3265 111.623 36.3003 111.492 36.2366C111.385 36.1644 111.295 36.0701 111.227 35.9602C110.102 34.3867 109.933 32.6252 109.933 30.7126C110.142 28.5719 112.055 26.7509 113.823 28.8017C114.223 29.2972 114.514 29.8718 114.678 30.4876C115.039 31.6786 115.144 32.99 114.694 34.1504C114.445 34.7822 114.025 35.3318 113.48 35.7368Z" fill="#F9CCC9"/>
<path d="M113.237 35.3221C112.898 35.5689 112.5 35.7239 112.083 35.7721C111.659 35.8043 111.572 35.4748 111.389 35.1292C111.029 34.4216 110.797 33.6562 110.703 32.8679C110.542 31.5725 110.362 29.8769 111.46 28.9142C112.654 27.8663 113.695 29.6889 113.99 30.6821C114.435 32.1752 114.481 34.0814 113.118 35.1309C112.315 35.7544 113.165 36.8988 113.986 36.2559C115.467 35.0939 115.88 33.1894 115.611 31.4005C115.373 29.811 114.567 27.8326 112.879 27.3295C111.349 26.8747 110.1 28.072 109.576 29.3996C108.986 30.8959 109.255 32.9049 109.766 34.3932C110.025 35.1469 110.481 36.3138 111.212 36.7236C111.981 37.1511 113.094 36.6256 113.721 36.1659C114.211 35.793 113.761 34.9734 113.237 35.3221Z" fill="#F9CCC9"/>
<path d="M108.741 32.7089C109.327 34.7114 110.187 37.074 112.583 37.3247C113.201 37.389 113.347 36.3395 112.73 36.2334C110.862 35.912 110.147 34.0653 109.634 32.463C109.453 31.8972 108.572 32.1335 108.741 32.7089Z" fill="#232323"/>
<path d="M109.33 29.9268C109.973 29.9268 109.973 28.9335 109.33 28.9335C108.687 28.9335 108.687 29.9268 109.33 29.9268Z" fill="#232323"/>
<path d="M105.017 32.5256C104.909 34.6262 105.534 36.6497 107.056 38.1508C107.588 38.6764 108.36 37.8872 107.871 37.3359C106.714 36.0341 105.911 34.2823 105.923 32.5144C105.923 31.9277 105.046 31.9358 105.017 32.5144V32.5256Z" fill="#232323"/>
<path d="M101.126 31.3171C100.803 33.1369 101.159 35.0118 102.125 36.5871C102.334 36.9198 102.86 36.6176 102.656 36.2769C101.766 34.8404 101.411 33.1357 101.655 31.4633C101.708 31.1178 101.182 30.9683 101.126 31.3171Z" fill="#232323"/>
<path d="M94.8577 32.2428C94.6182 33.5816 94.6423 35.0039 95.1438 36.2817C95.2772 36.6256 95.8252 36.4938 95.7079 36.1209C95.3125 34.885 95.1132 33.6619 95.3318 32.3681C95.3832 32.0595 94.9139 31.9245 94.8497 32.2363L94.8577 32.2428Z" fill="#232323"/>
<path d="M88.6714 33.7053C88.4914 34.6166 88.4657 35.634 88.8322 36.5002C88.8725 36.6467 89.024 36.7327 89.1705 36.6923C89.3169 36.6519 89.4029 36.5005 89.3625 36.354C89.1793 35.5006 89.0523 34.7211 89.2018 33.8516C89.2613 33.5076 88.7422 33.3566 88.6731 33.7053H88.6714Z" fill="#232323"/>
<path d="M82.2459 34.2534C82.0726 34.8319 82.0287 35.4415 82.1173 36.039C82.1704 36.415 82.7602 36.2608 82.6943 35.8782C82.616 35.3852 82.6473 34.8809 82.7859 34.4012C82.8126 34.3048 82.7858 34.2014 82.7157 34.13C82.6455 34.0587 82.5425 34.0302 82.4456 34.0553C82.3488 34.0804 82.2726 34.1553 82.2459 34.2518V34.2534Z" fill="#232323"/>
<path d="M76.0164 34.8689C75.9646 35.1297 75.9846 35.3997 76.0743 35.65C76.1217 35.8083 76.2854 35.9011 76.4456 35.8606C76.6055 35.8153 76.6993 35.6498 76.6561 35.4893C76.5888 35.3437 76.561 35.1829 76.5757 35.0232C76.6125 34.8695 76.524 34.7136 76.3732 34.6664C76.219 34.6252 76.0602 34.7153 76.0164 34.8689Z" fill="#232323"/>
<path d="M82.5642 28.363C83.0319 28.0255 83.6041 27.8696 84.1618 27.7201C85.023 27.4656 85.9034 27.2812 86.7944 27.1688C87.7881 27.0849 88.7888 27.139 89.7677 27.3296C92.2733 27.7828 95.6613 30.3704 94.0541 33.2601C93.8037 33.7429 93.3764 34.1103 92.8615 34.2855C92.3367 34.4528 91.7625 34.2983 91.3926 33.8901C91.317 34.3916 90.8252 34.7645 90.3206 34.7998C89.8076 34.8124 89.3138 34.6047 88.9641 34.2293C88.943 34.7824 88.5436 35.248 88.0001 35.3531C87.4567 35.4582 86.9125 35.175 86.6867 34.6696C86.6038 34.9597 86.4627 35.2298 86.272 35.4636C85.7031 36.0663 84.9863 35.4154 84.6343 34.8914C84.3241 34.4302 84.1875 33.8773 84.0685 33.3324C83.9496 32.7876 83.8387 32.2347 83.5703 31.7478" fill="white"/>
<path d="M82.5851 29.2951C83.4723 28.4304 84.9204 28.2183 86.0984 27.9965C88.1878 27.6027 90.5809 27.9145 92.2846 29.2823C93.0142 29.8657 93.7037 30.6934 93.7423 31.6689C93.7728 32.4549 92.8583 34.3867 91.9085 33.3822C91.7234 33.2022 91.4574 33.1323 91.2077 33.1981C90.9579 33.2639 90.761 33.4557 90.6886 33.7037C90.5375 34.3353 89.8095 34.0251 89.4816 33.7197C88.9802 33.2585 88.3035 33.6153 88.2328 34.2356C88.1685 34.803 87.5256 34.6873 87.3199 34.3064C86.9985 33.7085 86.1852 33.9238 85.9811 34.4815C85.8381 34.8657 85.8445 35.0971 85.507 34.803C85.2421 34.5467 85.0516 34.2235 84.9557 33.8676C84.6873 33.0286 84.6005 32.1881 84.1746 31.4005C83.7487 30.613 82.5851 31.3025 82.9644 32.1077C83.5687 33.3838 83.4015 34.8673 84.5314 35.8959C84.9798 36.3041 85.589 36.5725 86.1965 36.378C86.8667 36.1546 87.1608 35.4893 87.3938 34.8769L86.055 35.0521C86.4601 35.8027 87.3408 36.2736 88.1942 36.0711C89.0782 35.8621 89.5973 35.1067 89.6954 34.2421L88.4466 34.7483C89.0412 35.2948 89.84 35.6837 90.6661 35.486C91.3691 35.3271 91.9224 34.7855 92.0965 34.0862L90.8767 34.4076C91.9503 35.5407 93.6475 35.0955 94.4864 33.9255C95.1964 32.9369 95.3816 31.665 94.9831 30.515C94.1505 28.2038 91.6353 26.8506 89.3273 26.5291C87.5513 26.2816 85.9088 26.5082 84.1843 26.9647C83.498 27.1463 82.7892 27.3295 82.1978 27.7393" fill="#232323"/>
<path d="M86.2077 43.8258C89.3739 43.2231 92.5497 43.5043 95.6484 44.3079C95.8206 44.3554 95.9987 44.2543 96.0462 44.0821C96.0937 43.9099 95.9926 43.7318 95.8204 43.6843C92.6863 42.6686 89.2775 42.6863 86.0856 43.3886C85.7963 43.4529 85.9249 43.8869 86.2077 43.8322V43.8258Z" fill="#232323"/>
<path d="M65.6066 86.5001C65.4555 87.9016 64.8255 89.2067 63.678 90.0601C63.0046 90.5599 63.6394 91.7042 64.3498 91.2076C65.8477 90.1517 66.8763 88.3581 66.7317 86.5001C66.7009 86.2126 66.4583 85.9946 66.1691 85.9946C65.88 85.9946 65.6374 86.2126 65.6066 86.5001Z" fill="#232323"/>
<path d="M87.3424 81.0196C87.3247 82.3488 87.3906 83.7872 87.7796 85.0665C88.0142 85.8348 89.1135 85.5117 88.9689 84.7451C88.7359 83.4979 88.4755 82.3038 88.4337 81.026C88.4096 80.3269 87.3521 80.3221 87.3424 81.026V81.0196Z" fill="#232323"/>
<path d="M96.3811 74.562C97.2618 75.5504 97.8067 76.767 98.3097 77.9789C98.8385 79.2646 99.303 80.5649 99.7048 81.8892C100.508 84.5298 100.91 87.2026 101.357 89.9155C101.407 90.2225 101.911 90.1502 101.897 89.8432C101.756 87.0113 101.031 84.136 100.176 81.444C99.7578 80.1325 99.2757 78.8441 98.7292 77.5787C98.2117 76.3669 97.6267 75.1904 96.7057 74.2325C96.4968 74.0139 96.177 74.3386 96.3843 74.562H96.3811Z" fill="#F9CCC9"/>
<path d="M49.9155 70.4475C50.6087 70.0384 51.3409 69.6992 52.1013 69.4349C52.4564 69.3128 52.8181 69.2099 53.1845 69.1231C53.551 69.0363 54.0074 69.0074 54.3738 68.8531C54.8914 68.6345 54.8303 67.9209 54.2404 67.8663C53.4368 67.794 52.4725 68.199 51.7428 68.4915C50.9456 68.8094 50.1861 69.2147 49.4783 69.7001C49.0219 70.0103 49.4285 70.7335 49.9155 70.4475Z" fill="#232323"/>
<path d="M112.122 28.9624C112.174 29.4012 112.505 29.6391 112.723 30.0023C112.942 30.3655 113.03 30.7336 113.22 31.0871C113.514 31.6368 114.399 31.3829 114.388 30.7657C114.354 30.2475 114.158 29.7531 113.829 29.3514C113.552 28.9769 113.139 28.4288 112.625 28.4545C112.378 28.4658 112.087 28.6763 112.122 28.9576V28.9624Z" fill="white"/>
<path d="M39.0878 130.073C41.479 129.368 43.623 128.003 45.2739 126.135C46.7445 127.919 49.2244 128.657 51.5275 128.45C53.8306 128.242 55.9843 127.206 57.929 125.952C58.6254 127.451 59.9803 128.539 61.5937 128.896C63.2072 129.252 64.8946 128.837 66.1578 127.772C66.2912 127.659 66.4471 127.532 66.6175 127.567C66.7136 127.597 66.7997 127.653 66.8666 127.728C69.0797 129.657 72.6525 129.817 75.0215 128.075" fill="white"/>
<path d="M39.2485 130.621C41.7255 129.869 43.949 128.452 45.6773 126.524H44.8898C46.3957 128.303 48.6619 129.136 50.9666 129.096C53.596 129.051 56.0887 127.916 58.2536 126.5L57.3874 126.272C58.1623 127.846 59.5749 129.012 61.2671 129.475C62.1652 129.703 63.1042 129.718 64.009 129.518C64.4595 129.419 64.8965 129.266 65.3109 129.064C65.6452 128.903 66.2607 128.646 66.4729 128.329C66.6689 128.233 66.6529 128.178 66.423 128.168C66.5002 128.236 66.5838 128.302 66.6609 128.366C66.8216 128.496 66.9823 128.622 67.1607 128.737C67.5031 128.963 67.8651 129.157 68.2424 129.318C69.0082 129.645 69.8227 129.843 70.6532 129.906C72.3194 130.042 73.9811 129.595 75.3543 128.641C76.0453 128.159 75.3784 127 74.6857 127.498C73.4747 128.365 71.988 128.758 70.5069 128.602C69.7993 128.534 69.1097 128.339 68.4706 128.027C68.1481 127.869 67.8409 127.682 67.5529 127.468C67.2588 127.246 67.0145 126.969 66.6239 126.937C66.1787 126.899 65.8975 127.198 65.5712 127.44C65.2431 127.684 64.8836 127.882 64.5024 128.029C63.7434 128.325 62.9235 128.43 62.1141 128.337C60.5246 128.14 59.1585 127.064 58.4819 125.635C58.3024 125.338 57.9185 125.237 57.6156 125.407C55.6548 126.634 53.4867 127.749 51.1305 127.86C49.1344 127.955 46.9968 127.307 45.666 125.748C45.4511 125.535 45.1047 125.535 44.8898 125.748C43.3001 127.539 41.2399 128.849 38.9431 129.528C38.244 129.735 38.5429 130.836 39.2453 130.623L39.2485 130.621Z" fill="#232323"/>
<path d="M105.844 123.673C107.803 124.588 110.135 123.969 111.383 122.204L110.5 122.436C113.379 124.451 117.72 124.072 120.087 121.433C120.624 120.835 119.782 119.978 119.202 120.547C117.074 122.636 113.621 123.021 111.151 121.322C110.847 121.113 110.455 121.285 110.269 121.553C109.388 122.813 107.67 123.21 106.281 122.635C105.692 122.389 105.262 123.4 105.844 123.673Z" fill="#232323"/>
<path d="M147.686 95.1791C149.443 95.1791 151.087 94.5089 152.238 93.162L151.233 92.8968C151.583 94.3128 152.637 95.4487 154.023 95.9023C155.495 96.3456 157.091 95.9258 158.154 94.8159C158.732 94.2067 157.852 93.3356 157.235 93.8965C155.603 95.3784 153.001 94.7323 152.392 92.577C152.28 92.1784 151.68 91.9438 151.388 92.3118C150.489 93.4369 149.137 94.189 147.691 94.2099C147.069 94.2196 147.067 95.1743 147.691 95.1743L147.686 95.1791Z" fill="#232323"/>
<path d="M6.15944 100.499C8.0642 100.498 9.82769 99.4939 10.801 97.8566H9.85921C10.8276 99.6254 12.6028 100.806 14.6085 101.015C15.3751 101.1 15.3687 99.8978 14.6085 99.8126C13.0164 99.6224 11.6063 98.6951 10.801 97.3086C10.7018 97.1441 10.5238 97.0436 10.3317 97.0436C10.1397 97.0436 9.96162 97.1441 9.86243 97.3086C9.09657 98.628 7.69139 99.4454 6.16587 99.459C5.49727 99.459 5.49567 100.499 6.16587 100.499H6.15944Z" fill="#232323"/>
<path d="M115.955 25.0216C116.943 24.021 118.161 23.2772 119.502 22.8551L119.117 22.4693C118.539 23.9206 117.811 25.3076 116.945 26.6079C116.852 26.7771 116.909 26.9899 117.074 27.09C118.652 27.9936 120.163 29.0087 121.597 30.1276L121.672 29.5362C120.655 29.9701 119.583 30.3896 118.618 30.9345C118.262 31.1354 118.501 31.7541 118.905 31.6111C119.978 31.2302 121.026 30.6837 122.05 30.1855C122.333 30.0489 122.254 29.6905 122.05 29.5426C120.583 28.417 119.04 27.3935 117.432 26.4793L117.561 26.9615C118.465 25.6174 119.191 24.1614 119.719 22.6301C119.744 22.522 119.712 22.4086 119.634 22.3302C119.555 22.2517 119.442 22.2193 119.334 22.2443C117.905 22.7908 116.638 23.5301 115.555 24.6198C115.455 24.7315 115.46 24.9019 115.565 25.0082C115.671 25.1144 115.842 25.1196 115.954 25.02L115.955 25.0216Z" fill="#232323"/>
<path d="M117.394 35.3687C117.734 35.5552 118.083 35.7271 118.429 35.9039C118.774 36.0807 119.056 35.5712 118.721 35.4025C118.387 35.2337 118.032 35.0441 117.68 34.8785C117.358 34.7178 117.069 35.1903 117.394 35.3687Z" fill="#232323"/>
<path d="M112.876 42.7843C113.329 44.0883 114.012 45.3005 114.893 46.3636C115.073 46.5821 115.403 46.3893 115.414 46.1482C115.48 44.8367 115.509 43.5204 115.518 42.209C115.518 41.7814 114.875 41.783 114.856 42.209C114.813 43.5204 114.792 44.8367 114.805 46.1482L115.325 45.9328C114.447 44.9883 113.775 43.8719 113.35 42.6541C113.246 42.3568 112.772 42.4838 112.876 42.7843Z" fill="#232323"/>
<path d="M109.713 44.0379C109.713 43.6018 109.709 43.1674 109.702 42.7345C109.702 42.5854 109.581 42.4645 109.432 42.4645C109.283 42.4645 109.162 42.5854 109.162 42.7345C109.152 43.1684 109.149 43.6024 109.149 44.0379C109.16 44.1855 109.283 44.2995 109.431 44.2995C109.579 44.2995 109.702 44.1855 109.713 44.0379Z" fill="#232323"/>
<path d="M111.963 23.3742L112.485 22.8551C112.579 22.7502 112.575 22.5901 112.475 22.4905C112.376 22.3909 112.216 22.3866 112.111 22.4806L111.59 23.0013C111.487 23.1043 111.487 23.2712 111.59 23.3742C111.693 23.4772 111.86 23.4772 111.963 23.3742Z" fill="#232323"/>
</svg>
