<svg width="24" height="24" viewBox="0 0 24 24" fill="none" xmlns="http://www.w3.org/2000/svg" id="icon">
<path d="M12.2315 4.31858C12.1842 3.25497 11.8051 2.22326 11.5271 1.71436C11.496 1.73251 11.463 1.75173 11.4282 1.77201C10.5998 2.25434 8.7435 3.3352 7.26565 4.84951C6.23452 5.65257 5.41406 6.98647 5.41406 8.58792C5.41406 9.82564 5.88606 10.8197 6.33313 11.7613C7.16006 13.5028 7.90178 15.065 5.41406 17.6574C8.69245 18.296 15.0627 19.2412 15.2906 18.1552C15.7214 16.1026 15.3368 14.9601 15.0456 14.0952C14.8789 13.6002 14.7428 13.1961 14.8079 12.7643C16.7958 13.5192 18.1255 11.8013 18.8056 10.9229C18.9035 10.7964 18.9878 10.6874 19.0588 10.6056C18.1689 9.26242 16.4673 7.16086 15.2906 5.95058C14.4402 5.07583 13.3591 4.58488 12.2315 4.31858Z" fill="white" stroke="var(--stroke)" stroke-width="1.71429" stroke-linecap="round" stroke-linejoin="round"/>
<path d="M15.5023 12.9524C14.4599 12.7051 13.8574 12.3905 13.0234 11.9409" stroke="var(--stroke)" stroke-width="1.71429" stroke-linecap="round" stroke-linejoin="round"/>
<path d="M3.60377 19.8809C3.50405 20.6678 3.42969 21.4706 3.42969 22.2859H18.2485C18.2485 21.4706 18.1741 20.6678 18.0745 19.8809C17.8672 18.2467 16.4955 16.9724 14.8542 16.8311C13.549 16.7188 12.2076 16.6201 10.8391 16.6201C9.47059 16.6201 8.12913 16.7188 6.82402 16.8311C5.1827 16.9724 3.81089 18.2467 3.60377 19.8809Z" fill="var(--fill)" stroke="var(--stroke)" stroke-width="1.71429" stroke-linejoin="round"/>
</svg>

