<svg width="24" height="24" viewBox="0 0 24 24" fill="none" xmlns="http://www.w3.org/2000/svg" id="icon">
<path d="M1.95894 13.3749C1.82941 11.8162 1.71094 10.2097 1.71094 8.56831C1.71094 7.29955 1.78172 5.67278 1.87369 4.45166H11.1629V16.5759C10.1167 16.7297 9.0433 16.8599 7.94936 16.8599C7.33206 16.8599 6.7213 16.8184 6.11828 16.7547C5.74069 16.7148 5.36614 16.6661 4.99491 16.6134C3.36452 16.3818 2.09531 15.016 1.95894 13.3749Z" fill="var(--fill)"/>
<path d="M7.94881 7.75041C11.861 7.75041 14.0617 6.66393 14.0617 4.73239C14.0617 4.27144 13.9363 3.8586 13.6923 3.49718C12.9138 2.34415 10.9274 1.71436 7.94881 1.71436C4.03658 1.71436 1.83594 2.80085 1.83594 4.73239C1.83594 6.26942 3.22946 7.27135 5.77009 7.6165C6.42215 7.70508 7.14978 7.75041 7.94881 7.75041Z" fill="white"/>
<path d="M1.87369 4.45166C1.78172 5.67278 1.71094 7.29955 1.71094 8.56831C1.71094 10.2097 1.82941 11.8162 1.95894 13.3749C2.09531 15.016 3.3645 16.3818 4.99491 16.6134C5.30026 16.6567 5.60785 16.6973 5.91754 16.7326" stroke="var(--stroke)" stroke-width="1.71429" stroke-linecap="round" stroke-linejoin="round"/>
<path d="M5.43083 12.3478C3.46712 12.1968 1.88874 11.0058 1.71094 9.55664" stroke="var(--stroke)" stroke-width="1.71429" stroke-linecap="round"/>
<path d="M5.77009 7.6165C3.22946 7.27135 1.83594 6.26942 1.83594 4.73239C1.83594 2.80085 4.03657 1.71436 7.94881 1.71436C10.9274 1.71436 12.9138 2.34415 13.6923 3.49718" stroke="var(--stroke)" stroke-width="1.71429" stroke-linecap="round" stroke-linejoin="round"/>
<path d="M13.0106 22.0392C13.9746 22.1761 14.9612 22.2857 15.965 22.2857C16.9688 22.2857 17.9554 22.1761 18.9195 22.0392C20.5498 21.8076 21.819 20.4418 21.9555 18.8007C22.0849 17.2419 22.2034 15.6355 22.2034 13.9941C22.2034 12.5938 22.1171 11.2189 22.0114 9.87744H9.88932C9.79736 11.0986 9.72656 12.7253 9.72656 13.9941C9.72656 15.6355 9.84504 17.2419 9.97457 18.8007C10.1109 20.4418 11.3801 21.8076 13.0106 22.0392Z" fill="var(--fill)" stroke="var(--stroke)" stroke-width="1.71429" stroke-linejoin="round"/>
<path d="M22.2034 14.9824C22.0256 16.4316 20.4472 17.6226 18.4835 17.7736C17.6583 17.837 16.8177 17.8831 15.965 17.8831C15.1123 17.8831 14.2718 17.837 13.4465 17.7736C11.4827 17.6226 9.90439 16.4316 9.72656 14.9824" stroke="var(--stroke)" stroke-width="1.71429" stroke-linecap="round"/>
<path d="M15.9644 13.1762C19.8767 13.1762 22.0774 12.0897 22.0774 10.1582C22.0774 8.22663 19.8767 7.14014 15.9644 7.14014C12.0522 7.14014 9.85156 8.22663 9.85156 10.1582C9.85156 12.0897 12.0522 13.1762 15.9644 13.1762Z" fill="white" stroke="var(--stroke)" stroke-width="1.71429" stroke-linecap="round" stroke-linejoin="round"/>
</svg>

