<svg width="24" height="24" viewBox="0 0 24 24" fill="none" xmlns="http://www.w3.org/2000/svg" id="icon">
<path d="M1.64883 17.6032C1.91306 20.073 3.89941 22.0593 6.36791 22.3344C10.1595 22.757 13.8471 22.757 17.6387 22.3344C20.1073 22.0593 22.0936 20.073 22.3578 17.6032C22.5529 15.78 22.7176 13.9083 22.7176 12C22.7176 10.0917 22.5529 8.21997 22.3578 6.39681C22.0936 3.92712 20.1073 1.94076 17.6387 1.66561C13.8471 1.24297 10.1595 1.24297 6.36791 1.66561C3.89941 1.94076 1.91306 3.92712 1.64883 6.39681C1.45378 8.21997 1.28906 10.0917 1.28906 12C1.28906 13.9083 1.45378 15.78 1.64883 17.6032Z" fill="var(--fill)" stroke="var(--stroke)" stroke-width="1.71429"/>
<path d="M15.0297 8.96973L8.96875 15.0306" stroke="var(--stroke)" stroke-width="1.71429" stroke-linecap="round"/>
<path d="M15.0297 15.0306L8.96875 8.96973" stroke="var(--stroke)" stroke-width="1.71429" stroke-linecap="round"/>
</svg>

