<svg width="24" height="24" viewBox="0 0 24 24" fill="none" xmlns="http://www.w3.org/2000/svg" id="icon">
<path d="M10.2857 6.85682C7.32356 5.98241 3.42855 6.85683 1.46326 10.6257L6.33056 13.3168" fill="var(--fill)"/>
<path d="M10.2857 6.85682C7.32356 5.98241 3.42855 6.85683 1.46326 10.6257L6.33056 13.3168" stroke="var(--stroke)" stroke-width="1.71429" stroke-linecap="round" stroke-linejoin="round"/>
<path d="M17.1428 13.7144C18.0173 16.6765 17.1428 20.5715 13.3802 22.5429L10.6891 17.6757" fill="var(--fill)"/>
<path d="M17.1428 13.7144C18.0173 16.6765 17.1428 20.5715 13.3802 22.5429L10.6891 17.6757" stroke="var(--stroke)" stroke-width="1.71429" stroke-linecap="round" stroke-linejoin="round"/>
<path d="M6.33063 13.3006L6.37153 13.3259C8.13488 14.4143 9.61746 15.9022 10.6995 17.6696C14.1945 15.5757 18.1676 13.548 19.9812 11.6685C23.9048 7.74482 21.6298 2.37033 21.6298 2.37033C21.6298 2.37033 16.2553 0.0952492 12.3316 4.01896C10.4522 5.83243 8.40788 9.82207 6.33063 13.3006Z" fill="white" stroke="var(--stroke)" stroke-width="1.71429" stroke-linecap="round" stroke-linejoin="round"/>
<path d="M5.32867 21.6524C4.94352 22.0243 3.92488 22.3774 2.95697 22.6464C1.96063 22.9234 1.07651 22.0394 1.3535 21.043C1.62259 20.0751 1.97565 19.0565 2.34753 18.6713C2.54063 18.464 2.77349 18.2978 3.03225 18.1826C3.29099 18.0672 3.57029 18.0053 3.85351 18.0003C4.13673 17.9954 4.41804 18.0473 4.68069 18.1534C4.94333 18.2595 5.18193 18.4174 5.38223 18.6178C5.58252 18.818 5.74041 19.0567 5.84651 19.3193C5.95259 19.5819 6.00468 19.8632 5.99969 20.1464C5.99469 20.4296 5.9327 20.7091 5.81741 20.9678C5.70213 21.2264 5.53591 21.4594 5.32867 21.6524Z" fill="var(--fill)" stroke="var(--stroke)" stroke-width="1.71429" stroke-linecap="round" stroke-linejoin="round"/>
<path d="M16.4113 7.58852L17.0174 6.98242" stroke="var(--stroke)" stroke-width="1.71429" stroke-linecap="round" stroke-linejoin="round"/>
</svg>

