<svg width="24" height="24" viewBox="0 0 24 24" fill="none" xmlns="http://www.w3.org/2000/svg" id="icon">
<path d="M1.64548 17.6031C1.90971 20.0728 3.89605 22.0592 6.36455 22.3343C8.19807 22.5387 10.0806 22.7142 12 22.7142C13.9194 22.7142 15.8019 22.5387 17.6354 22.3343C20.1039 22.0592 22.0903 20.0728 22.3544 17.6031C22.5495 15.78 22.7143 13.9082 22.7143 11.9999C22.7143 10.0917 22.5495 8.2199 22.3544 6.39674C22.0903 3.92705 20.1039 1.94069 17.6354 1.66555C15.8019 1.46117 13.9194 1.28564 12 1.28564C10.0806 1.28564 8.19807 1.46117 6.36455 1.66555C3.89605 1.94069 1.90971 3.92705 1.64548 6.39674C1.45042 8.2199 1.28571 10.0917 1.28571 11.9999C1.28571 13.9082 1.45042 15.78 1.64548 17.6031Z" fill="var(--fill)" stroke="var(--stroke)" stroke-width="1.71429"/>
<path d="M6.85712 7.71436H12" stroke="var(--stroke)" stroke-width="1.71429" stroke-linecap="round" stroke-linejoin="round"/>
<path d="M17.1429 16.2856H12" stroke="var(--stroke)" stroke-width="1.71429" stroke-linecap="round" stroke-linejoin="round"/>
<path d="M14.5714 10.2859C15.9916 10.2859 17.1429 9.13466 17.1429 7.7145C17.1429 6.29433 15.9916 5.14307 14.5714 5.14307C13.1513 5.14307 12 6.29433 12 7.7145C12 9.13466 13.1513 10.2859 14.5714 10.2859Z" fill="white" stroke="var(--stroke)" stroke-width="1.71429" stroke-linecap="round" stroke-linejoin="round"/>
<path d="M9.42855 18.8572C8.00838 18.8572 6.85712 17.7059 6.85712 16.2858C6.85712 14.8656 8.00838 13.7144 9.42855 13.7144C10.8487 13.7144 12 14.8656 12 16.2858C12 17.7059 10.8487 18.8572 9.42855 18.8572Z" fill="white" stroke="var(--stroke)" stroke-width="1.71429" stroke-linecap="round" stroke-linejoin="round"/>
</svg>

