<svg width="40" height="20" viewBox="0 0 40 20" fill="none" xmlns="http://www.w3.org/2000/svg">
<path d="M11 19.2H9C7.59123 19.2 6.57472 19.1996 5.77152 19.1448C4.97551 19.0905 4.44763 18.9854 4.01005 18.8042C2.7359 18.2764 1.72359 17.2641 1.19583 15.99C1.01457 15.5524 0.909546 15.0245 0.855234 14.2285C0.800434 13.4253 0.799999 12.4088 0.799999 11C0.799999 9.59123 0.800434 8.57472 0.855234 7.77152C0.909546 6.97551 1.01457 6.44763 1.19583 6.01005C1.72359 4.7359 2.7359 3.7236 4.01005 3.19583C4.44763 3.01457 4.97551 2.90955 5.77152 2.85523C6.57472 2.80043 7.59123 2.8 9 2.8L11 2.8C12.4088 2.8 13.4253 2.80043 14.2285 2.85523C15.0245 2.90955 15.5524 3.01457 15.99 3.19583C17.2641 3.7236 18.2764 4.7359 18.8042 6.01005C18.9854 6.44763 19.0905 6.97551 19.1448 7.77152C19.1996 8.57472 19.2 9.59123 19.2 11C19.2 12.4088 19.1996 13.4253 19.1448 14.2285C19.0905 15.0245 18.9854 15.5524 18.8042 15.99C18.2764 17.2641 17.2641 18.2764 15.99 18.8042C15.5524 18.9854 15.0245 19.0905 14.2285 19.1448C13.4253 19.1996 12.4088 19.2 11 19.2Z" stroke="#1937D5" stroke-width="1.6"/>
<line x1="5.75" y1="11.25" x2="5.75" y2="11.75" stroke="#1937D5" stroke-width="1.5" stroke-linecap="round"/>
<line x1="5.75" y1="14.75" x2="5.75" y2="15.25" stroke="#1937D5" stroke-width="1.5" stroke-linecap="round"/>
<line x1="10" y1="11.25" x2="10" y2="11.75" stroke="#1937D5" stroke-width="1.5" stroke-linecap="round"/>
<line x1="10" y1="14.75" x2="10" y2="15.25" stroke="#1937D5" stroke-width="1.5" stroke-linecap="round"/>
<line x1="14.25" y1="11.25" x2="14.25" y2="11.75" stroke="#1937D5" stroke-width="1.5" stroke-linecap="round"/>
<line x1="14.25" y1="14.75" x2="14.25" y2="15.25" stroke="#1937D5" stroke-width="1.5" stroke-linecap="round"/>
<path d="M9 2.8H11C12.4088 2.8 13.4253 2.80043 14.2285 2.85523C15.0245 2.90955 15.5524 3.01457 15.99 3.19583C17.2641 3.7236 18.2764 4.7359 18.8042 6.01005C19.0202 6.53162 19.1233 7.16516 19.168 8.2H0.831991C0.876723 7.16516 0.979784 6.53162 1.19583 6.01005C1.7236 4.7359 2.7359 3.72359 4.01005 3.19583C4.44763 3.01457 4.97551 2.90955 5.77152 2.85523C6.57472 2.80043 7.59123 2.8 9 2.8Z" fill="#ECF3F8" stroke="#1937D5" stroke-width="1.6"/>
<line x1="6.75" y1="0.75" x2="6.75" y2="2.25" stroke="#1937D5" stroke-width="1.5" stroke-linecap="round"/>
<line x1="12.75" y1="0.75" x2="12.75" y2="2.25" stroke="#1937D5" stroke-width="1.5" stroke-linecap="round"/>
<path d="M31 19.2H29C27.5912 19.2 26.5747 19.1996 25.7715 19.1448C24.9755 19.0905 24.4476 18.9854 24.01 18.8042C22.7359 18.2764 21.7236 17.2641 21.1958 15.99C21.0146 15.5524 20.9095 15.0245 20.8552 14.2285C20.8004 13.4253 20.8 12.4088 20.8 11C20.8 9.59123 20.8004 8.57472 20.8552 7.77152C20.9095 6.97551 21.0146 6.44763 21.1958 6.01005C21.7236 4.7359 22.7359 3.7236 24.01 3.19583C24.4476 3.01457 24.9755 2.90955 25.7715 2.85523C26.5747 2.80043 27.5912 2.8 29 2.8L31 2.8C32.4088 2.8 33.4253 2.80043 34.2285 2.85523C35.0245 2.90955 35.5524 3.01457 35.99 3.19583C37.2641 3.7236 38.2764 4.7359 38.8042 6.01005C38.9854 6.44763 39.0905 6.97551 39.1448 7.77152C39.1996 8.57472 39.2 9.59123 39.2 11C39.2 12.4088 39.1996 13.4253 39.1448 14.2285C39.0905 15.0245 38.9854 15.5524 38.8042 15.99C38.2764 17.2641 37.2641 18.2764 35.99 18.8042C35.5524 18.9854 35.0245 19.0905 34.2285 19.1448C33.4253 19.1996 32.4088 19.2 31 19.2Z" stroke="white" stroke-width="1.6"/>
<line x1="25.75" y1="11.25" x2="25.75" y2="11.75" stroke="white" stroke-width="1.5" stroke-linecap="round"/>
<line x1="25.75" y1="14.75" x2="25.75" y2="15.25" stroke="white" stroke-width="1.5" stroke-linecap="round"/>
<line x1="30" y1="11.25" x2="30" y2="11.75" stroke="white" stroke-width="1.5" stroke-linecap="round"/>
<line x1="30" y1="14.75" x2="30" y2="15.25" stroke="white" stroke-width="1.5" stroke-linecap="round"/>
<line x1="34.25" y1="11.25" x2="34.25" y2="11.75" stroke="white" stroke-width="1.5" stroke-linecap="round"/>
<line x1="34.25" y1="14.75" x2="34.25" y2="15.25" stroke="white" stroke-width="1.5" stroke-linecap="round"/>
<path d="M29 2.8H31C32.4088 2.8 33.4253 2.80043 34.2285 2.85523C35.0245 2.90955 35.5524 3.01457 35.99 3.19583C37.2641 3.7236 38.2764 4.7359 38.8042 6.01005C39.0202 6.53162 39.1233 7.16516 39.168 8.2H20.832C20.8767 7.16516 20.9798 6.53162 21.1958 6.01005C21.7236 4.7359 22.7359 3.72359 24.01 3.19583C24.4476 3.01457 24.9755 2.90955 25.7715 2.85523C26.5747 2.80043 27.5912 2.8 29 2.8Z" fill="white" fill-opacity="0.32" stroke="white" stroke-width="1.6"/>
<line x1="26.75" y1="0.75" x2="26.75" y2="2.25" stroke="white" stroke-width="1.5" stroke-linecap="round"/>
<line x1="32.75" y1="0.75" x2="32.75" y2="2.25" stroke="white" stroke-width="1.5" stroke-linecap="round"/>
</svg>
