<svg width="40" height="20" viewBox="0 0 40 20" fill="none" xmlns="http://www.w3.org/2000/svg">
<path d="M10.1929 3.5989C10.1535 2.71255 9.83759 1.8528 9.60589 1.42871C9.57999 1.44384 9.55249 1.45985 9.52346 1.47675C8.83315 1.8787 7.28625 2.77941 6.0547 4.04134C5.19543 4.71055 4.51172 5.82214 4.51172 7.15668C4.51172 8.18811 4.90505 9.01648 5.2776 9.80114C5.96672 11.2525 6.58482 12.5542 4.51172 14.7146C7.2437 15.2467 12.5523 16.0344 12.7422 15.1294C13.1012 13.419 12.7806 12.4668 12.538 11.7461C12.3991 11.3335 12.2857 10.9968 12.3399 10.637C13.9965 11.2661 15.1046 9.8345 15.6713 9.10248C15.7529 8.99711 15.8232 8.90624 15.8823 8.8381C15.1407 7.71877 13.7227 5.96747 12.7422 4.9589C12.0335 4.22994 11.1325 3.82081 10.1929 3.5989Z" fill="#ECF3F8" stroke="#1937D5" stroke-width="1.71429" stroke-linecap="round" stroke-linejoin="round"/>
<path d="M12.9186 10.7936C12.0499 10.5875 11.5479 10.3253 10.8529 9.95068" stroke="#1937D5" stroke-width="1.71429" stroke-linecap="round" stroke-linejoin="round"/>
<path d="M3.00314 16.5674C2.92004 17.2231 2.85807 17.8921 2.85807 18.5716H15.2071C15.2071 17.8921 15.1451 17.2231 15.0621 16.5674C14.8894 15.2056 13.7462 14.1436 12.3785 14.0259C11.2909 13.9323 10.173 13.8501 9.03257 13.8501C7.89216 13.8501 6.77427 13.9323 5.68668 14.0259C4.31891 14.1436 3.17574 15.2056 3.00314 16.5674Z" fill="#ECF3F8" stroke="#1937D5" stroke-width="1.71429" stroke-linejoin="round"/>
<path d="M30.1929 3.5989C30.1535 2.71255 29.8376 1.8528 29.6059 1.42871C29.58 1.44384 29.5525 1.45985 29.5235 1.47675C28.8331 1.8787 27.2862 2.77941 26.0547 4.04134C25.1954 4.71055 24.5117 5.82214 24.5117 7.15668C24.5117 8.18811 24.905 9.01648 25.2776 9.80114C25.9667 11.2525 26.5848 12.5542 24.5117 14.7146C27.2437 15.2467 32.5523 16.0344 32.7422 15.1294C33.1012 13.419 32.7806 12.4668 32.538 11.7461C32.3991 11.3335 32.2857 10.9968 32.3399 10.637C33.9965 11.2661 35.1046 9.8345 35.6713 9.10248C35.7529 8.99711 35.8232 8.90624 35.8823 8.8381C35.1407 7.71877 33.7227 5.96747 32.7422 4.9589C32.0335 4.22994 31.1325 3.82081 30.1929 3.5989Z" fill="white" fill-opacity="0.32" stroke="white" stroke-width="1.71429" stroke-linecap="round" stroke-linejoin="round"/>
<path d="M32.9186 10.7936C32.0499 10.5875 31.5478 10.3253 30.8529 9.95068" stroke="white" stroke-width="1.71429" stroke-linecap="round" stroke-linejoin="round"/>
<path d="M23.0031 16.5674C22.92 17.2231 22.8581 17.8921 22.8581 18.5716H35.2071C35.2071 17.8921 35.1451 17.2231 35.0621 16.5674C34.8894 15.2056 33.7462 14.1436 32.3785 14.0259C31.2909 13.9323 30.173 13.8501 29.0326 13.8501C27.8922 13.8501 26.7743 13.9323 25.6867 14.0259C24.3189 14.1436 23.1757 15.2056 23.0031 16.5674Z" fill="white" stroke="white" stroke-width="1.71429" stroke-linejoin="round"/>
</svg>
