<svg width="40" height="20" viewBox="0 0 40 20" fill="none" xmlns="http://www.w3.org/2000/svg">
<path d="M10 5.2002C7.8927 5.2002 5.68992 5.2002 3.84332 5.53021C2.9582 5.68841 2.26092 6.36434 2.07087 7.24318C1.77143 8.62798 1.77143 9.91971 1.77143 11.8859C1.77143 13.8521 1.77143 15.1438 2.07087 16.5286C2.26092 17.4075 2.9582 18.0835 3.84332 18.2416C5.68992 18.5716 7.8927 18.5716 10 18.5716C12.1073 18.5716 14.3101 18.5716 16.1567 18.2416C17.0419 18.0835 17.7391 17.4075 17.9291 16.5286C18.2286 15.1438 18.2286 13.8521 18.2286 11.8859C18.2286 9.91971 18.2286 8.62798 17.9291 7.24318C17.7391 6.36434 17.0419 5.68841 16.1567 5.53021C14.3101 5.2002 12.1073 5.2002 10 5.2002Z" fill="#D7E0FF" stroke="#4147D5" stroke-width="1.42857"/>
<path d="M6.57143 5.20014V4.28585C6.57143 2.7079 7.85061 1.42871 9.42857 1.42871H10.5714C12.1494 1.42871 13.4286 2.7079 13.4286 4.28585V5.20014" stroke="#4147D5" stroke-width="1.42857"/>
<path d="M11.8755 9.84077C11.8755 9.84077 11.1704 9.05481 10.0268 9.15302C8.88326 9.25125 8.33201 9.95382 8.33201 10.6583C8.33201 12.7131 11.8755 11.2891 11.8755 13.3962C11.8755 14.4826 9.52496 15.2493 8.12453 13.9713" stroke="#4147D5" stroke-width="1.42857" stroke-linecap="round" stroke-linejoin="round"/>
<path d="M10.167 7.77148V9.14473" stroke="#4147D5" stroke-width="1.42857" stroke-linecap="round"/>
<path d="M10.167 14.627V16.0002" stroke="#4147D5" stroke-width="1.42857" stroke-linecap="round"/>
<path d="M30 5.2002C27.8927 5.2002 25.6899 5.2002 23.8433 5.53021C22.9582 5.68841 22.2609 6.36434 22.0709 7.24318C21.7714 8.62798 21.7714 9.91971 21.7714 11.8859C21.7714 13.8521 21.7714 15.1438 22.0709 16.5286C22.2609 17.4075 22.9582 18.0835 23.8433 18.2416C25.6899 18.5716 27.8927 18.5716 30 18.5716C32.1073 18.5716 34.3101 18.5716 36.1567 18.2416C37.0419 18.0835 37.7391 17.4075 37.9291 16.5286C38.2286 15.1438 38.2286 13.8521 38.2286 11.8859C38.2286 9.91971 38.2286 8.62798 37.9291 7.24318C37.7391 6.36434 37.0419 5.68841 36.1567 5.53021C34.3101 5.2002 32.1073 5.2002 30 5.2002Z" fill="white" fill-opacity="0.32" stroke="white" stroke-width="1.42857"/>
<path d="M26.5714 5.20014V4.28585C26.5714 2.7079 27.8506 1.42871 29.4286 1.42871H30.5714C32.1494 1.42871 33.4286 2.7079 33.4286 4.28585V5.20014" stroke="white" stroke-width="1.42857"/>
<path d="M31.8755 9.84077C31.8755 9.84077 31.1704 9.05481 30.0268 9.15302C28.8833 9.25125 28.332 9.95382 28.332 10.6583C28.332 12.7131 31.8755 11.2891 31.8755 13.3962C31.8755 14.4826 29.525 15.2493 28.1245 13.9713" stroke="white" stroke-width="1.42857" stroke-linecap="round" stroke-linejoin="round"/>
<path d="M30.167 7.77148V9.14473" stroke="white" stroke-width="1.42857" stroke-linecap="round"/>
<path d="M30.167 14.627V16.0002" stroke="white" stroke-width="1.42857" stroke-linecap="round"/>
</svg>
