<svg width="40" height="20" viewBox="0 0 40 20" fill="none" xmlns="http://www.w3.org/2000/svg">
<path d="M18.5503 13.0483C17.086 14.5125 7.71972 17.2244 3.2623 18.4538C2.2095 18.7441 1.25596 17.7906 1.54633 16.7378C2.77573 12.2804 5.48763 2.91407 6.95184 1.44985C8.8849 -0.48321 20.4833 11.1152 18.5503 13.0483Z" fill="white" stroke="#4147D5" stroke-width="1.42857" stroke-linejoin="round"/>
<path d="M15.5479 14.5886C14.4556 15.0174 13.1652 15.4675 11.8106 15.9105C11.4339 15.7348 11.0629 15.4671 10.7034 15.1076C9.29713 13.7013 9.29713 12.1192 10.7034 10.7129C12.1097 9.30663 13.6918 9.30663 15.0981 10.7129C16.3339 11.9486 16.4837 13.3201 15.5479 14.5886Z" fill="#D7E0FF" stroke="#4147D5" stroke-width="1.42857" stroke-linecap="round" stroke-linejoin="round"/>
<path d="M2.16517 14.5318C2.53453 13.2379 2.96171 11.7815 3.41323 10.3198C4.09714 10.1898 4.79083 10.4474 5.43605 11.0926C6.51007 12.1666 6.51007 13.3749 5.43605 14.4489C4.39043 15.4945 3.21754 15.5222 2.16517 14.5318Z" fill="#D7E0FF" stroke="#4147D5" stroke-width="1.42857" stroke-linecap="round" stroke-linejoin="round"/>
<path d="M15.2906 14.6889C16.8823 14.0763 18.0961 13.5023 18.5503 13.0483C20.4833 11.1152 8.88493 -0.48321 6.95186 1.44985C6.49584 1.90588 5.91878 3.12841 5.30318 4.73042C8.30077 5.94957 14.0227 11.6619 15.2906 14.6889Z" fill="#D7E0FF" stroke="#4147D5" stroke-width="1.42857" stroke-linejoin="round"/>
<path d="M38.5503 13.0483C37.086 14.5125 27.7197 17.2244 23.2623 18.4538C22.2095 18.7441 21.256 17.7906 21.5463 16.7378C22.7757 12.2804 25.4876 2.91407 26.9518 1.44985C28.8849 -0.48321 40.4833 11.1152 38.5503 13.0483Z" stroke="white" stroke-width="1.42857" stroke-linejoin="round"/>
<path d="M35.5479 14.5886C34.4556 15.0174 33.1652 15.4675 31.8106 15.9105C31.4339 15.7348 31.0629 15.4671 30.7034 15.1076C29.2971 13.7013 29.2971 12.1192 30.7034 10.7129C32.1097 9.30663 33.6918 9.30663 35.0981 10.7129C36.3339 11.9486 36.4837 13.3201 35.5479 14.5886Z" fill="white" fill-opacity="0.32" stroke="white" stroke-width="1.42857" stroke-linecap="round" stroke-linejoin="round"/>
<path d="M22.1652 14.5318C22.5345 13.2379 22.9617 11.7815 23.4132 10.3198C24.0971 10.1898 24.7908 10.4474 25.4361 11.0926C26.5101 12.1666 26.5101 13.3749 25.4361 14.4489C24.3904 15.4945 23.2175 15.5222 22.1652 14.5318Z" fill="white" fill-opacity="0.32" stroke="white" stroke-width="1.42857" stroke-linecap="round" stroke-linejoin="round"/>
<path d="M35.2906 14.6889C36.8823 14.0763 38.0961 13.5023 38.5503 13.0483C40.4833 11.1152 28.8849 -0.48321 26.9519 1.44985C26.4958 1.90588 25.9188 3.12841 25.3032 4.73042C28.3008 5.94957 34.0227 11.6619 35.2906 14.6889Z" fill="white" stroke="white" stroke-width="1.42857" stroke-linejoin="round"/>
</svg>
