<svg width="40" height="20" viewBox="0 0 40 20" fill="none" xmlns="http://www.w3.org/2000/svg">
<path d="M9.99932 18.8507C14.8875 18.8507 18.8502 14.8879 18.8502 9.99981C18.8502 5.1116 14.8875 1.14893 9.99932 1.14893C5.11111 1.14893 1.14844 5.1116 1.14844 9.99981C1.14844 14.8879 5.11111 18.8507 9.99932 18.8507Z" fill="#ECF2F8" stroke="#1937D5" stroke-width="1.71429" stroke-linecap="round" stroke-linejoin="round"/>
<path d="M4.21214 13.404C4.84414 13.404 5.45024 13.1529 5.89712 12.706C6.34401 12.2592 6.59506 11.6531 6.59506 11.0211V8.97854C6.59506 8.34656 6.84612 7.74044 7.29301 7.29356C7.73989 6.84667 8.34601 6.59561 8.97799 6.59561C9.60999 6.59561 10.2161 6.34456 10.663 5.89767C11.1099 5.45078 11.3609 4.84468 11.3609 4.21268V1.25301C10.9171 1.18448 10.4624 1.14893 9.99932 1.14893C5.11111 1.14893 1.14844 5.1116 1.14844 9.99981C1.14844 11.2061 1.38976 12.3561 1.82678 13.404H4.21214Z" fill="white" stroke="#1937D5" stroke-width="1.71429" stroke-linecap="round" stroke-linejoin="round"/>
<path d="M18.8477 9.86355C18.1662 9.51009 17.4104 9.32356 16.6427 9.31934H13.7423C13.1103 9.31934 12.5042 9.57039 12.0573 10.0173C11.6104 10.4642 11.3594 11.0703 11.3594 11.7023C11.3594 12.3343 11.6104 12.9404 12.0573 13.3873C12.5042 13.8341 13.1103 14.0852 13.7423 14.0852C14.1937 14.0852 14.6267 14.2645 14.9458 14.5837C15.2651 14.9029 15.4444 15.3359 15.4444 15.7873V16.9719H15.4512C17.5068 15.3619 18.8322 12.8624 18.8485 10.0528V9.94754C18.8484 9.91951 18.8481 9.89151 18.8477 9.86355Z" fill="white" stroke="#1937D5" stroke-width="1.71429" stroke-linecap="round" stroke-linejoin="round"/>
<path d="M29.9993 18.8507C34.8875 18.8507 38.8502 14.8879 38.8502 9.99981C38.8502 5.1116 34.8875 1.14893 29.9993 1.14893C25.1111 1.14893 21.1484 5.1116 21.1484 9.99981C21.1484 14.8879 25.1111 18.8507 29.9993 18.8507Z" fill="white" fill-opacity="0.32" stroke="white" stroke-width="1.71429" stroke-linecap="round" stroke-linejoin="round"/>
<path d="M24.2121 13.404C24.8441 13.404 25.4502 13.1529 25.8971 12.706C26.344 12.2592 26.5951 11.6531 26.5951 11.0211V8.97854C26.5951 8.34656 26.8461 7.74044 27.293 7.29356C27.7399 6.84667 28.346 6.59561 28.978 6.59561C29.61 6.59561 30.2161 6.34456 30.663 5.89767C31.1099 5.45078 31.3609 4.84468 31.3609 4.21268V1.25301C30.9171 1.18448 30.4624 1.14893 29.9993 1.14893C25.1111 1.14893 21.1484 5.1116 21.1484 9.99981C21.1484 11.2061 21.3898 12.3561 21.8268 13.404H24.2121Z" stroke="white" stroke-width="1.71429" stroke-linecap="round" stroke-linejoin="round"/>
<path d="M38.8477 9.86355C38.1662 9.51009 37.4104 9.32356 36.6427 9.31934H33.7423C33.1103 9.31934 32.5042 9.57039 32.0573 10.0173C31.6104 10.4642 31.3594 11.0703 31.3594 11.7023C31.3594 12.3343 31.6104 12.9404 32.0573 13.3873C32.5042 13.8341 33.1103 14.0852 33.7423 14.0852C34.1937 14.0852 34.6267 14.2645 34.9458 14.5837C35.2651 14.9029 35.4444 15.3359 35.4444 15.7873V16.9719H35.4512C37.5068 15.3619 38.8322 12.8624 38.8485 10.0528V9.94754C38.8484 9.91951 38.8481 9.89151 38.8477 9.86355Z" stroke="white" stroke-width="1.71429" stroke-linecap="round" stroke-linejoin="round"/>
</svg>
