<svg width="40" height="20" viewBox="0 0 40 20" fill="none" xmlns="http://www.w3.org/2000/svg">
<path d="M10.0001 10.5095C11.6724 10.5095 13.0281 9.15381 13.0281 7.48153C13.0281 5.80926 11.6724 4.45361 10.0001 4.45361C8.32787 4.45361 6.97221 5.80926 6.97221 7.48153C6.97221 9.15381 8.32787 10.5095 10.0001 10.5095Z" fill="#D7E0FF" stroke="#4147D5" stroke-width="1.71429" stroke-linecap="round" stroke-linejoin="round"/>
<path d="M14.9443 14.3771C14.6799 13.3112 14.0773 12.3572 13.2239 11.6597C12.3141 10.916 11.1751 10.5098 10 10.5098C8.82492 10.5098 7.68595 10.916 6.7761 11.6597C5.92277 12.3571 5.3202 13.3112 5.05572 14.3771C5.31132 14.4624 5.57822 14.5218 5.85326 14.5525C7.20243 14.7029 8.5877 14.8321 10.0001 14.8321C11.4124 14.8321 12.7977 14.7029 14.1469 14.5525C14.4219 14.5218 14.6887 14.4624 14.9443 14.3771Z" fill="#D7E0FF" stroke="#4147D5" stroke-width="1.71429" stroke-linecap="round" stroke-linejoin="round"/>
<path d="M14.2954 1.34668C14.8251 1.40375 15.3501 1.46493 15.87 1.52517C17.2407 1.68403 18.3344 2.77703 18.4884 4.14828C18.5464 4.66477 18.6049 5.18638 18.6591 5.71273" stroke="#4147D5" stroke-width="1.71429" stroke-linecap="round"/>
<path d="M14.2954 18.6533C14.8251 18.5961 15.3501 18.535 15.87 18.4747C17.2407 18.3158 18.3344 17.2228 18.4884 15.8515C18.5464 15.3351 18.6049 14.8135 18.6591 14.2871" stroke="#4147D5" stroke-width="1.71429" stroke-linecap="round"/>
<path d="M5.70461 1.34668C5.17482 1.40375 4.64981 1.46493 4.12997 1.52517C2.75927 1.68403 1.66557 2.77703 1.51161 4.14828C1.45362 4.66477 1.39516 5.18638 1.34082 5.71273" stroke="#4147D5" stroke-width="1.71429" stroke-linecap="round"/>
<path d="M5.70461 18.6533C5.17482 18.5961 4.64981 18.535 4.12997 18.4747C2.75927 18.3158 1.66557 17.2228 1.51161 15.8515C1.45362 15.3351 1.39516 14.8135 1.34082 14.2871" stroke="#4147D5" stroke-width="1.71429" stroke-linecap="round"/>
<path d="M30.0001 10.5095C31.6724 10.5095 33.0281 9.15381 33.0281 7.48153C33.0281 5.80926 31.6724 4.45361 30.0001 4.45361C28.3279 4.45361 26.9722 5.80926 26.9722 7.48153C26.9722 9.15381 28.3279 10.5095 30.0001 10.5095Z" fill="white" fill-opacity="0.32" stroke="white" stroke-width="1.71429" stroke-linecap="round" stroke-linejoin="round"/>
<path d="M34.9443 14.3771C34.6799 13.3112 34.0773 12.3572 33.2239 11.6597C32.3141 10.916 31.1751 10.5098 30 10.5098C28.8249 10.5098 27.6859 10.916 26.7761 11.6597C25.9228 12.3571 25.3202 13.3112 25.0557 14.3771C25.3113 14.4624 25.5782 14.5218 25.8533 14.5525C27.2024 14.7029 28.5877 14.8321 30.0001 14.8321C31.4124 14.8321 32.7977 14.7029 34.1469 14.5525C34.4219 14.5218 34.6887 14.4624 34.9443 14.3771Z" fill="white" fill-opacity="0.32" stroke="white" stroke-width="1.71429" stroke-linecap="round" stroke-linejoin="round"/>
<path d="M34.2954 1.34668C34.8251 1.40375 35.3501 1.46493 35.87 1.52517C37.2407 1.68403 38.3344 2.77703 38.4884 4.14828C38.5464 4.66477 38.6049 5.18638 38.6591 5.71273" stroke="white" stroke-width="1.71429" stroke-linecap="round"/>
<path d="M34.2954 18.6533C34.8251 18.5961 35.3501 18.535 35.87 18.4747C37.2407 18.3158 38.3344 17.2228 38.4884 15.8515C38.5464 15.3351 38.6049 14.8135 38.6591 14.2871" stroke="white" stroke-width="1.71429" stroke-linecap="round"/>
<path d="M25.7046 1.34668C25.1748 1.40375 24.6498 1.46493 24.13 1.52517C22.7593 1.68403 21.6656 2.77703 21.5116 4.14828C21.4536 4.66477 21.3952 5.18638 21.3408 5.71273" stroke="white" stroke-width="1.71429" stroke-linecap="round"/>
<path d="M25.7046 18.6533C25.1748 18.5961 24.6498 18.535 24.13 18.4747C22.7593 18.3158 21.6656 17.2228 21.5116 15.8515C21.4536 15.3351 21.3952 14.8135 21.3408 14.2871" stroke="white" stroke-width="1.71429" stroke-linecap="round"/>
</svg>
