<svg width="40" height="20" viewBox="0 0 40 20" fill="none" xmlns="http://www.w3.org/2000/svg">
<path d="M8.57078 5.71401C6.10234 4.98534 2.8565 5.71403 1.21875 8.85471L5.27484 11.0973" fill="#ECF2F8"/>
<path d="M8.57078 5.71401C6.10234 4.98534 2.8565 5.71403 1.21875 8.85471L5.27484 11.0973" stroke="#1937D5" stroke-width="1.71429" stroke-linecap="round" stroke-linejoin="round"/>
<path d="M14.2844 11.4287C15.0131 13.8972 14.2844 17.143 11.1489 18.7859L8.90625 14.7299" fill="#ECF2F8"/>
<path d="M14.2844 11.4287C15.0131 13.8972 14.2844 17.143 11.1489 18.7859L8.90625 14.7299" stroke="#1937D5" stroke-width="1.71429" stroke-linecap="round" stroke-linejoin="round"/>
<path d="M5.27344 11.084L5.30752 11.105C6.77698 12.012 8.01247 13.2519 8.91412 14.7247C11.8267 12.9799 15.1376 11.29 16.6489 9.72386C19.9186 6.4541 18.0228 1.97536 18.0228 1.97536C18.0228 1.97536 13.544 0.0794557 10.2742 3.34921C8.70805 4.86044 7.00448 8.18514 5.27344 11.084Z" stroke="#1937D5" stroke-width="1.71429" stroke-linecap="round" stroke-linejoin="round"/>
<path d="M4.4415 18.0437C4.12054 18.3536 3.27167 18.6478 2.46508 18.872C1.6348 19.1028 0.898029 18.3661 1.12885 17.5358C1.35309 16.7293 1.64731 15.8804 1.95721 15.5594C2.11812 15.3867 2.31218 15.2481 2.52781 15.1521C2.74342 15.056 2.97618 15.0044 3.2122 15.0003C3.44821 14.9961 3.68264 15.0394 3.90151 15.1278C4.12038 15.2163 4.31921 15.3478 4.48612 15.5148C4.65304 15.6817 4.78461 15.8806 4.87302 16.0994C4.96142 16.3183 5.00484 16.5527 5.00068 16.7887C4.99651 17.0247 4.94485 17.2576 4.84878 17.4731C4.75271 17.6887 4.6142 17.8828 4.4415 18.0437Z" fill="#ECF2F8" stroke="#1937D5" stroke-width="1.71429" stroke-linecap="round" stroke-linejoin="round"/>
<path d="M13.6797 6.32393L14.1848 5.81885" stroke="#1937D5" stroke-width="1.71429" stroke-linecap="round" stroke-linejoin="round"/>
<path d="M28.5708 5.71401C26.1023 4.98534 22.8565 5.71403 21.2188 8.85471L25.2748 11.0973" fill="white" fill-opacity="0.32"/>
<path d="M28.5708 5.71401C26.1023 4.98534 22.8565 5.71403 21.2188 8.85471L25.2748 11.0973" stroke="white" stroke-width="1.71429" stroke-linecap="round" stroke-linejoin="round"/>
<path d="M34.2844 11.4287C35.0131 13.8972 34.2844 17.143 31.1489 18.7859L28.9062 14.7299" fill="white" fill-opacity="0.32"/>
<path d="M34.2844 11.4287C35.0131 13.8972 34.2844 17.143 31.1489 18.7859L28.9062 14.7299" stroke="white" stroke-width="1.71429" stroke-linecap="round" stroke-linejoin="round"/>
<path d="M25.2734 11.084L25.3075 11.105C26.777 12.012 28.0125 13.2519 28.9141 14.7247C31.8267 12.9799 35.1376 11.29 36.6489 9.72386C39.9186 6.4541 38.0228 1.97536 38.0228 1.97536C38.0228 1.97536 33.544 0.0794557 30.2742 3.34921C28.7081 4.86044 27.0045 8.18514 25.2734 11.084Z" stroke="white" stroke-width="1.71429" stroke-linecap="round" stroke-linejoin="round"/>
<path d="M24.4415 18.0437C24.1205 18.3536 23.2717 18.6478 22.4651 18.872C21.6348 19.1028 20.898 18.3661 21.1289 17.5358C21.3531 16.7293 21.6473 15.8804 21.9572 15.5594C22.1181 15.3867 22.3122 15.2481 22.5278 15.1521C22.7434 15.056 22.9762 15.0044 23.2122 15.0003C23.4482 14.9961 23.6826 15.0394 23.9015 15.1278C24.1204 15.2163 24.3192 15.3478 24.4861 15.5148C24.653 15.6817 24.7846 15.8806 24.873 16.0994C24.9614 16.3183 25.0048 16.5527 25.0007 16.7887C24.9965 17.0247 24.9449 17.2576 24.8488 17.4731C24.7527 17.6887 24.6142 17.8828 24.4415 18.0437Z" fill="white" fill-opacity="0.32" stroke="white" stroke-width="1.71429" stroke-linecap="round" stroke-linejoin="round"/>
<path d="M33.6797 6.32393L34.1848 5.81885" stroke="white" stroke-width="1.71429" stroke-linecap="round" stroke-linejoin="round"/>
</svg>
