<svg width="40" height="20" viewBox="0 0 40 20" fill="none" xmlns="http://www.w3.org/2000/svg">
<path d="M3.63594 16.2796C6.70435 19.348 11.6792 19.348 14.7476 16.2796L18.3253 12.702C18.8832 12.1441 18.8832 11.2396 18.3253 10.6817L16.3049 8.66136C15.747 8.10348 14.8426 8.10348 14.2846 8.66136L10.707 12.239C9.87016 13.0758 8.51339 13.0758 7.67655 12.239C6.83971 11.4021 6.83971 10.0454 7.67655 9.20853L11.2542 5.63091C11.8121 5.07302 11.8121 4.16849 11.2542 3.6106L9.23386 1.59029C8.67598 1.0324 7.77145 1.0324 7.21356 1.59029L3.63594 5.16792C0.567532 8.23632 0.567532 13.2112 3.63594 16.2796Z" fill="#ECF3F8" stroke="#1937D5" stroke-width="1.71429"/>
<path d="M5.14974 3.65269L9.19036 7.6933L11.2527 5.6309C11.8106 5.07302 11.8106 4.16849 11.2527 3.6106L9.23244 1.59029C8.67454 1.0324 7.77003 1.0324 7.21214 1.59029L5.14974 3.65269Z" fill="#ECF3F8" stroke="#1937D5" stroke-width="1.71429"/>
<path d="M12.2201 10.7235L16.2607 14.7641L18.3231 12.7017C18.881 12.1438 18.881 11.2393 18.3231 10.6814L16.3027 8.66109C15.7449 8.1032 14.8404 8.1032 14.2825 8.66109L12.2201 10.7235Z" fill="#ECF3F8" stroke="#1937D5" stroke-width="1.71429"/>
<path d="M23.6359 16.2796C26.7044 19.348 31.6792 19.348 34.7476 16.2796L38.3253 12.702C38.8832 12.1441 38.8832 11.2396 38.3253 10.6817L36.3049 8.66136C35.747 8.10348 34.8426 8.10348 34.2846 8.66136L30.707 12.239C29.8702 13.0758 28.5134 13.0758 27.6766 12.239C26.8397 11.4021 26.8397 10.0454 27.6766 9.20853L31.2542 5.63091C31.8121 5.07302 31.8121 4.16849 31.2542 3.6106L29.2339 1.59029C28.676 1.0324 27.7715 1.0324 27.2136 1.59029L23.6359 5.16792C20.5675 8.23632 20.5675 13.2112 23.6359 16.2796Z" fill="white" fill-opacity="0.32" stroke="white" stroke-width="1.71429"/>
<path d="M25.1497 3.65269L29.1904 7.6933L31.2527 5.6309C31.8106 5.07302 31.8106 4.16849 31.2527 3.6106L29.2324 1.59029C28.6745 1.0324 27.77 1.0324 27.2121 1.59029L25.1497 3.65269Z" fill="white" fill-opacity="0.32" stroke="white" stroke-width="1.71429"/>
<path d="M32.2201 10.7235L36.2607 14.7641L38.3231 12.7017C38.881 12.1438 38.881 11.2393 38.3231 10.6814L36.3027 8.66109C35.7449 8.1032 34.8404 8.1032 34.2825 8.66109L32.2201 10.7235Z" fill="white" fill-opacity="0.32" stroke="white" stroke-width="1.71429"/>
</svg>
