<svg width="40" height="20" viewBox="0 0 40 20" fill="none" xmlns="http://www.w3.org/2000/svg">
<path d="M9.91406 16.2412V18.9296" stroke="#1937D5" stroke-width="1.71429" stroke-linecap="round" stroke-linejoin="round"/>
<path d="M9.97665 1.09277C12.1779 1.09277 14.1706 2.4042 14.2179 4.2864C14.2982 7.4806 15.0462 12.5455 10.029 12.5455C5.01169 12.5455 5.70743 7.4806 5.7877 4.2864C5.835 2.4042 7.77538 1.09277 9.97665 1.09277Z" fill="#ECF2F8" stroke="#1937D5" stroke-width="1.71429"/>
<path d="M2.03125 10.085C2.29318 13.5257 5.15632 16.2416 9.95125 16.2416C14.4504 16.2416 17.4335 13.5181 17.9762 10.085" stroke="#1937D5" stroke-width="1.71429" stroke-linecap="round" stroke-linejoin="round"/>
<path d="M29.9141 16.2412V18.9296" stroke="white" stroke-width="1.71429" stroke-linecap="round" stroke-linejoin="round"/>
<path d="M29.9766 1.09277C32.1779 1.09277 34.1706 2.4042 34.2179 4.2864C34.2982 7.4806 35.0462 12.5455 30.029 12.5455C25.0117 12.5455 25.7074 7.4806 25.7877 4.2864C25.835 2.4042 27.7754 1.09277 29.9766 1.09277Z" fill="white" fill-opacity="0.32" stroke="white" stroke-width="1.71429"/>
<path d="M22.0312 10.085C22.2932 13.5257 25.1563 16.2416 29.9512 16.2416C34.4504 16.2416 37.4335 13.5181 37.9762 10.085" stroke="white" stroke-width="1.71429" stroke-linecap="round" stroke-linejoin="round"/>
</svg>
