<svg width="40" height="20" viewBox="0 0 40 20" fill="none" xmlns="http://www.w3.org/2000/svg">
<path d="M1.37012 14.6691C1.59031 16.7273 3.2456 18.3826 5.30268 18.6119C6.83061 18.7821 8.39941 18.9284 9.99888 18.9284C11.5984 18.9284 13.1672 18.7821 14.695 18.6119C16.7522 18.3826 18.4075 16.7273 18.6276 14.6691C18.7902 13.1499 18.9275 11.5901 18.9275 9.99986C18.9275 8.40963 18.7902 6.84983 18.6276 5.33053C18.4075 3.27246 16.7522 1.61716 14.695 1.38787C13.1672 1.21756 11.5984 1.07129 9.99888 1.07129C8.39941 1.07129 6.83061 1.21756 5.30268 1.38787C3.2456 1.61716 1.59031 3.27246 1.37012 5.33053C1.20757 6.84983 1.07031 8.40963 1.07031 9.99986C1.07031 11.5901 1.20758 13.1499 1.37012 14.6691Z" fill="#ECF2F8" stroke="#1937D5" stroke-width="1.71429"/>
<path d="M5.0625 9.73694H6.8983L8.543 6.27051L10.902 13.7297L13.0949 9.73694H14.9307" stroke="#1937D5" stroke-width="1.71429" stroke-linecap="round" stroke-linejoin="round"/>
<path d="M21.3701 14.6691C21.5903 16.7273 23.2456 18.3826 25.3027 18.6119C26.8306 18.7821 28.3994 18.9284 29.9989 18.9284C31.5984 18.9284 33.1672 18.7821 34.695 18.6119C36.7522 18.3826 38.4075 16.7273 38.6276 14.6691C38.7902 13.1499 38.9275 11.5901 38.9275 9.99986C38.9275 8.40963 38.7902 6.84983 38.6276 5.33053C38.4075 3.27246 36.7522 1.61716 34.695 1.38787C33.1672 1.21756 31.5984 1.07129 29.9989 1.07129C28.3994 1.07129 26.8306 1.21756 25.3027 1.38787C23.2456 1.61716 21.5903 3.27246 21.3701 5.33053C21.2076 6.84983 21.0703 8.40963 21.0703 9.99986C21.0703 11.5901 21.2076 13.1499 21.3701 14.6691Z" fill="white" fill-opacity="0.32" stroke="white" stroke-width="1.71429"/>
<path d="M25.0625 9.73694H26.8983L28.543 6.27051L30.902 13.7297L33.0949 9.73694H34.9307" stroke="white" stroke-width="1.71429" stroke-linecap="round" stroke-linejoin="round"/>
</svg>
