<svg width="40" height="20" viewBox="0 0 40 20" fill="none" xmlns="http://www.w3.org/2000/svg">
<path d="M8.26364 18.8761C7.26188 18.8187 6.27403 18.7201 5.30268 18.6119C3.24561 18.3826 1.59031 16.7273 1.37012 14.6691C1.20758 13.1499 1.07031 11.5901 1.07031 9.99986C1.07031 8.40963 1.20757 6.84983 1.37012 5.33053C1.59031 3.27246 3.2456 1.61716 5.30268 1.38787C6.83061 1.21756 8.39941 1.07129 9.99888 1.07129C11.5984 1.07129 13.1672 1.21756 14.695 1.38787C16.7522 1.61716 18.4075 3.27246 18.6276 5.33053C18.7345 6.32946 18.8305 7.34592 18.8836 8.377" stroke="#1937D5" stroke-width="1.71429" stroke-linecap="round" stroke-linejoin="round"/>
<path d="M18.6664 5.71415H1.32812C1.34135 5.58599 1.35482 5.45812 1.36848 5.33053C1.58867 3.27246 3.24395 1.61716 5.30102 1.38787C6.82895 1.21756 8.39777 1.07129 9.99724 1.07129C11.5967 1.07129 13.1655 1.21756 14.6935 1.38787C16.7505 1.61716 18.4058 3.27246 18.6261 5.33053C18.6396 5.45812 18.6531 5.58599 18.6664 5.71415Z" fill="#ECF2F8" stroke="#1937D5" stroke-width="1.71429" stroke-linecap="round" stroke-linejoin="round"/>
<path d="M14.2879 18.2141C16.4577 18.2141 18.2165 16.4552 18.2165 14.2855C18.2165 12.1158 16.4577 10.3569 14.2879 10.3569C12.1183 10.3569 10.3594 12.1158 10.3594 14.2855C10.3594 16.4552 12.1183 18.2141 14.2879 18.2141Z" fill="#ECF2F8" stroke="#1937D5" stroke-width="1.71429" stroke-linecap="round" stroke-linejoin="round"/>
<path d="M18.9298 18.929L17.0625 17.0615" stroke="#1937D5" stroke-width="1.71429" stroke-linecap="round" stroke-linejoin="round"/>
<path d="M28.2636 18.8761C27.2619 18.8187 26.274 18.7201 25.3027 18.6119C23.2456 18.3826 21.5903 16.7273 21.3701 14.6691C21.2076 13.1499 21.0703 11.5901 21.0703 9.99986C21.0703 8.40963 21.2076 6.84983 21.3701 5.33053C21.5903 3.27246 23.2456 1.61716 25.3027 1.38787C26.8306 1.21756 28.3994 1.07129 29.9989 1.07129C31.5984 1.07129 33.1672 1.21756 34.695 1.38787C36.7522 1.61716 38.4075 3.27246 38.6276 5.33053C38.7345 6.32946 38.8305 7.34592 38.8836 8.377" stroke="white" stroke-width="1.71429" stroke-linecap="round" stroke-linejoin="round"/>
<path d="M38.6664 5.71415H21.3281C21.3414 5.58599 21.3548 5.45812 21.3685 5.33053C21.5887 3.27246 23.244 1.61716 25.301 1.38787C26.829 1.21756 28.3978 1.07129 29.9972 1.07129C31.5967 1.07129 33.1655 1.21756 34.6935 1.38787C36.7505 1.61716 38.4058 3.27246 38.6261 5.33053C38.6396 5.45812 38.6531 5.58599 38.6664 5.71415Z" fill="white" fill-opacity="0.32" stroke="white" stroke-width="1.71429" stroke-linecap="round" stroke-linejoin="round"/>
<path d="M34.2879 18.2141C36.4577 18.2141 38.2165 16.4552 38.2165 14.2855C38.2165 12.1158 36.4577 10.3569 34.2879 10.3569C32.1183 10.3569 30.3594 12.1158 30.3594 14.2855C30.3594 16.4552 32.1183 18.2141 34.2879 18.2141Z" fill="white" fill-opacity="0.32" stroke="white" stroke-width="1.71429" stroke-linecap="round" stroke-linejoin="round"/>
<path d="M38.9298 18.929L37.0625 17.0615" stroke="white" stroke-width="1.71429" stroke-linecap="round" stroke-linejoin="round"/>
</svg>
