<svg width="40" height="20" viewBox="0 0 40 20" fill="none" xmlns="http://www.w3.org/2000/svg">
<path d="M5.9021 13.5494C4.96183 14.2839 3.8826 14.8229 2.72863 15.134C2.60152 15.1799 2.4917 15.2636 2.4141 15.3737C2.33649 15.4839 2.29486 15.615 2.29486 15.7496C2.29486 15.884 2.33649 16.0153 2.4141 16.1253C2.4917 16.2354 2.60152 16.3192 2.72863 16.365C11.8408 20.0843 17.6347 14.3352 16.7525 7.95749L18.5725 5.51727L15.7645 4.87985C15.4007 3.52222 14.2838 2.73023 13.0336 2.5034C11.7834 2.27656 10.0695 2.98462 9.10532 4.00515C8.49707 4.92157 8.30629 6.23907 8.90409 7.95737C8.90409 7.95737 6.62633 8.53372 2.75496 4.749C2.66542 4.66107 2.55239 4.6005 2.4293 4.57449C2.3062 4.54846 2.1782 4.55806 2.06042 4.60216C1.94265 4.64626 1.84005 4.72299 1.76477 4.82329C1.6895 4.92359 1.6447 5.04323 1.63569 5.16807C1.22634 6.84153 1.43119 8.60535 2.21337 10.1419C2.99555 11.6785 4.30363 12.8869 5.9021 13.5494Z" fill="#ECF2F8" stroke="#1937D5" stroke-width="1.71429" stroke-linecap="round" stroke-linejoin="round"/>
<path d="M25.9021 13.5494C24.9618 14.2839 23.8826 14.8229 22.7286 15.134C22.6015 15.1799 22.4917 15.2636 22.4141 15.3737C22.3365 15.4839 22.2949 15.615 22.2949 15.7496C22.2949 15.884 22.3365 16.0153 22.4141 16.1253C22.4917 16.2354 22.6015 16.3192 22.7286 16.365C31.8408 20.0843 37.6347 14.3352 36.7525 7.95749L38.5725 5.51727L35.7645 4.87985C35.4007 3.52222 34.2838 2.73023 33.0336 2.5034C31.7834 2.27656 30.0695 2.98462 29.1053 4.00515C28.4971 4.92157 28.3063 6.23907 28.9041 7.95737C28.9041 7.95737 26.6263 8.53372 22.755 4.749C22.6654 4.66107 22.5524 4.6005 22.4293 4.57449C22.3062 4.54846 22.1782 4.55806 22.0604 4.60216C21.9426 4.64626 21.84 4.72299 21.7648 4.82329C21.6895 4.92359 21.6447 5.04323 21.6357 5.16807C21.2263 6.84153 21.4312 8.60535 22.2134 10.1419C22.9955 11.6785 24.3036 12.8869 25.9021 13.5494Z" fill="white" fill-opacity="0.32" stroke="white" stroke-width="1.71429" stroke-linecap="round" stroke-linejoin="round"/>
</svg>
