<svg width="40" height="20" viewBox="0 0 40 20" fill="none" xmlns="http://www.w3.org/2000/svg">
<path d="M13.427 10.0126C15.3196 10.0126 16.8539 8.47831 16.8539 6.58565C16.8539 4.69299 15.3196 3.15869 13.427 3.15869C11.5343 3.15869 10 4.69299 10 6.58565C10 8.47831 11.5343 10.0126 13.427 10.0126Z" fill="#ECF2F8"/>
<path d="M13.4219 10.0124C15.3145 10.0124 16.8488 8.47812 16.8488 6.58546C16.8488 5.12137 15.9307 3.87173 14.6388 3.38086" stroke="#1937D5" stroke-width="1.71429" stroke-linecap="round" stroke-linejoin="round"/>
<path d="M18.1035 14.8263C19.7798 15.9427 18.648 18.096 16.6338 18.096H9.07044C7.05637 18.096 5.92444 15.9427 7.60074 14.8263C9.10434 13.8249 10.9101 13.2412 12.8522 13.2412C14.7942 13.2412 16.6 13.8249 18.1035 14.8263Z" fill="#ECF2F8"/>
<path d="M7.66011 9.33339C9.71173 9.33339 11.3749 7.67022 11.3749 5.61861C11.3749 3.56698 9.71173 1.90381 7.66011 1.90381C5.60848 1.90381 3.94531 3.56698 3.94531 5.61861C3.94531 7.67022 5.60848 9.33339 7.66011 9.33339Z" fill="#ECF2F8" stroke="#1937D5" stroke-width="1.71429" stroke-linecap="round" stroke-linejoin="round"/>
<path d="M13.3507 14.5521C15.1678 15.7624 13.9408 18.0966 11.7576 18.0966H3.55891C1.37569 18.0966 0.148695 15.7624 1.96578 14.5521C3.59568 13.4666 5.55308 12.834 7.65826 12.834C9.76343 12.834 11.7208 13.4666 13.3507 14.5521Z" fill="#ECF2F8" stroke="#1937D5" stroke-width="1.71429"/>
<path d="M11.4375 18.0964H16.634C18.6481 18.0964 19.78 15.9431 18.1037 14.8266C17.6408 14.5183 17.1493 14.2496 16.634 14.0254" stroke="#1937D5" stroke-width="1.71429" stroke-linecap="round"/>
<path d="M33.427 10.0126C35.3196 10.0126 36.8539 8.47831 36.8539 6.58565C36.8539 4.69299 35.3196 3.15869 33.427 3.15869C31.5343 3.15869 30 4.69299 30 6.58565C30 8.47831 31.5343 10.0126 33.427 10.0126Z" fill="white" fill-opacity="0.32"/>
<path d="M33.4219 10.0124C35.3145 10.0124 36.8488 8.47812 36.8488 6.58546C36.8488 5.12137 35.9307 3.87173 34.6388 3.38086" stroke="white" stroke-width="1.71429" stroke-linecap="round" stroke-linejoin="round"/>
<path d="M38.1035 14.8263C39.7798 15.9427 38.648 18.096 36.6338 18.096H29.0704C27.0564 18.096 25.9244 15.9427 27.6007 14.8263C29.1043 13.8249 30.9101 13.2412 32.8522 13.2412C34.7942 13.2412 36.6 13.8249 38.1035 14.8263Z" fill="white" fill-opacity="0.32"/>
<path d="M27.6601 9.33339C29.7117 9.33339 31.3749 7.67022 31.3749 5.61861C31.3749 3.56698 29.7117 1.90381 27.6601 1.90381C25.6085 1.90381 23.9453 3.56698 23.9453 5.61861C23.9453 7.67022 25.6085 9.33339 27.6601 9.33339Z" fill="white" fill-opacity="0.32" stroke="white" stroke-width="1.71429" stroke-linecap="round" stroke-linejoin="round"/>
<path d="M33.3507 14.5521C35.1678 15.7624 33.9408 18.0966 31.7576 18.0966H23.5589C21.3757 18.0966 20.1487 15.7624 21.9658 14.5521C23.5957 13.4666 25.5531 12.834 27.6583 12.834C29.7634 12.834 31.7208 13.4666 33.3507 14.5521Z" fill="white" fill-opacity="0.32" stroke="white" stroke-width="1.71429"/>
<path d="M31.4375 18.0964H36.634C38.6481 18.0964 39.78 15.9431 38.1037 14.8266C37.6408 14.5183 37.1493 14.2496 36.634 14.0254" stroke="white" stroke-width="1.71429" stroke-linecap="round"/>
</svg>
