<svg width="40" height="20" viewBox="0 0 40 20" fill="none" xmlns="http://www.w3.org/2000/svg">
<path d="M5.09281 8.12313C7.00372 8.12313 8.55281 6.57403 8.55281 4.66313C8.55281 2.75222 7.00372 1.20312 5.09281 1.20312C3.18191 1.20312 1.63281 2.75222 1.63281 4.66313C1.63281 6.57403 3.18191 8.12313 5.09281 8.12313Z" fill="#ECF2F8" stroke="#1937D5" stroke-width="1.71429"/>
<path d="M14.0882 8.12263C15.4097 8.12263 16.481 7.05131 16.481 5.72977C16.481 4.40823 15.4097 3.33691 14.0882 3.33691C12.7666 3.33691 11.6953 4.40823 11.6953 5.72977C11.6953 7.05131 12.7666 8.12263 14.0882 8.12263Z" fill="#ECF2F8" stroke="#1937D5" stroke-width="1.71429"/>
<path d="M5.8422 18.5596C5.15869 18.5003 4.60027 17.9735 4.49947 17.2949C4.37113 16.4309 4.24219 15.5366 4.24219 14.6208C4.24219 13.7048 4.37113 12.8105 4.49947 11.9466C4.60027 11.2679 5.15867 10.7411 5.8422 10.6819C5.9587 10.6718 6.07564 10.6616 6.193 10.6513C7.34886 10.5501 8.5458 10.4453 9.77185 10.4453C10.9979 10.4453 12.1948 10.5501 13.3507 10.6513C13.468 10.6616 13.585 10.6718 13.7015 10.6819C14.3851 10.7411 14.9433 11.2679 15.0442 11.9466C15.0989 12.3144 15.1536 12.6877 15.1985 13.0658C16.5595 12.4574 18.3658 11.662 18.3658 11.662V17.5796C18.3658 17.5796 16.5595 16.7842 15.1985 16.1758C15.1536 16.5539 15.0988 16.9272 15.0442 17.2949C14.9433 17.9735 14.3851 18.5003 13.7015 18.5596C13.585 18.5696 13.468 18.5799 13.3507 18.5902C12.1948 18.6913 10.9979 18.7962 9.77185 18.7962C8.5458 18.7962 7.34887 18.6913 6.19302 18.5902C6.07564 18.5799 5.9587 18.5696 5.8422 18.5596Z" fill="#ECF2F8" stroke="#1937D5" stroke-width="1.71429" stroke-linejoin="round"/>
<path d="M25.0928 8.12313C27.0037 8.12313 28.5528 6.57403 28.5528 4.66313C28.5528 2.75222 27.0037 1.20312 25.0928 1.20312C23.1819 1.20312 21.6328 2.75222 21.6328 4.66313C21.6328 6.57403 23.1819 8.12313 25.0928 8.12313Z" fill="white" fill-opacity="0.32" stroke="white" stroke-width="1.71429"/>
<path d="M34.0882 8.12263C35.4097 8.12263 36.481 7.05131 36.481 5.72977C36.481 4.40823 35.4097 3.33691 34.0882 3.33691C32.7666 3.33691 31.6953 4.40823 31.6953 5.72977C31.6953 7.05131 32.7666 8.12263 34.0882 8.12263Z" fill="white" fill-opacity="0.32" stroke="white" stroke-width="1.71429"/>
<path d="M25.8422 18.5596C25.1587 18.5003 24.6003 17.9735 24.4995 17.2949C24.3711 16.4309 24.2422 15.5366 24.2422 14.6208C24.2422 13.7048 24.3711 12.8105 24.4995 11.9466C24.6003 11.2679 25.1587 10.7411 25.8422 10.6819C25.9587 10.6718 26.0756 10.6616 26.193 10.6513C27.3489 10.5501 28.5458 10.4453 29.7718 10.4453C30.9979 10.4453 32.1948 10.5501 33.3507 10.6513C33.468 10.6616 33.585 10.6718 33.7015 10.6819C34.3851 10.7411 34.9433 11.2679 35.0442 11.9466C35.0989 12.3144 35.1536 12.6877 35.1985 13.0658C36.5595 12.4574 38.3658 11.662 38.3658 11.662V17.5796C38.3658 17.5796 36.5595 16.7842 35.1985 16.1758C35.1536 16.5539 35.0988 16.9272 35.0442 17.2949C34.9433 17.9735 34.3851 18.5003 33.7015 18.5596C33.585 18.5696 33.468 18.5799 33.3507 18.5902C32.1948 18.6913 30.9979 18.7962 29.7718 18.7962C28.5458 18.7962 27.3489 18.6913 26.193 18.5902C26.0756 18.5799 25.9587 18.5696 25.8422 18.5596Z" fill="white" fill-opacity="0.32" stroke="white" stroke-width="1.71429" stroke-linejoin="round"/>
</svg>
