<svg width="40" height="20" viewBox="0 0 40 20" fill="none" xmlns="http://www.w3.org/2000/svg">
<path d="M18.3216 9.98221C18.5099 8.08639 18.51 7.04511 18.3216 5.23207C16.5084 5.04369 15.4673 5.04379 13.5714 5.23207" stroke="#4147D5" stroke-width="1.42857" stroke-linecap="round" stroke-linejoin="round"/>
<path d="M18.3151 5.25635C18.3151 5.25635 11.7857 12.3085 10.7143 12.8573C9.30982 13.5766 8.89939 10.2549 7.32143 10.2549C5.35715 10.2549 1.42857 16.4287 1.42857 16.4287" stroke="#4147D5" stroke-width="1.42857" stroke-linecap="round" stroke-linejoin="round"/>
<path d="M38.3216 9.98221C38.5099 8.08639 38.51 7.04511 38.3216 5.23207C36.5084 5.04369 35.4673 5.04379 33.5714 5.23207" stroke="white" stroke-width="1.42857" stroke-linecap="round" stroke-linejoin="round"/>
<path d="M38.3151 5.25635C38.3151 5.25635 31.7857 12.3085 30.7143 12.8573C29.3098 13.5766 28.8994 10.2549 27.3214 10.2549C25.3571 10.2549 21.4286 16.4287 21.4286 16.4287" stroke="white" stroke-width="1.42857" stroke-linecap="round" stroke-linejoin="round"/>
</svg>
