<svg width="40" height="20" viewBox="0 0 40 20" fill="none" xmlns="http://www.w3.org/2000/svg">
<path d="M1.07031 12.1002L8.91687 2.99824C9.48676 2.33717 10.511 2.33717 11.0809 2.99824L18.9275 12.1002" stroke="#1937D5" stroke-width="1.71429" stroke-linecap="round" stroke-linejoin="round"/>
<path d="M3.82253 8.92109L8.91983 2.9825C9.48991 2.31833 10.5178 2.31833 11.0879 2.9825L16.1852 8.92109L16.4763 10.9981C16.7387 12.8698 16.7259 14.7698 16.4382 16.6378C16.2926 17.5831 15.4792 18.2808 14.5229 18.2808H5.48487C4.52847 18.2808 3.71508 17.5831 3.56953 16.6378C3.28187 14.7698 3.26901 12.8698 3.53138 10.9981L3.82253 8.92109Z" fill="#ECF3F8" stroke="#1937D5" stroke-width="1.71429" stroke-linejoin="round"/>
<path d="M9.99949 11.5557C11.3152 11.5557 12.3818 12.6223 12.3818 13.938V18.2807H7.61719V13.938C7.61719 12.6223 8.68379 11.5557 9.99949 11.5557Z" stroke="#1937D5" stroke-width="1.71429" stroke-linecap="round" stroke-linejoin="round"/>
<path d="M21.0703 12.1002L28.9169 2.99824C29.4868 2.33717 30.511 2.33717 31.0809 2.99824L38.9275 12.1002" stroke="white" stroke-width="1.71429" stroke-linecap="round" stroke-linejoin="round"/>
<path d="M23.8225 8.92109L28.9198 2.9825C29.4899 2.31833 30.5178 2.31833 31.0879 2.9825L36.1852 8.92109L36.4763 10.9981C36.7387 12.8698 36.7259 14.7698 36.4382 16.6378C36.2926 17.5831 35.4792 18.2808 34.5229 18.2808H25.4849C24.5285 18.2808 23.7151 17.5831 23.5695 16.6378C23.2819 14.7698 23.269 12.8698 23.5314 10.9981L23.8225 8.92109Z" fill="white" fill-opacity="0.24" stroke="white" stroke-width="1.71429" stroke-linejoin="round"/>
<path d="M29.9995 11.5557C31.3152 11.5557 32.3818 12.6223 32.3818 13.938V18.2807H27.6172V13.938C27.6172 12.6223 28.6838 11.5557 29.9995 11.5557Z" stroke="white" stroke-width="1.71429" stroke-linecap="round" stroke-linejoin="round"/>
</svg>
