<svg width="20" height="20" viewBox="0 0 20 20" fill="none" xmlns="http://www.w3.org/2000/svg" id="icon">
<path d="M1.37012 14.6691C1.59031 16.7273 3.2456 18.3826 5.30268 18.6119C6.83061 18.7821 8.39941 18.9284 9.99888 18.9284C11.5984 18.9284 13.1672 18.7821 14.695 18.6119C16.7522 18.3826 18.4075 16.7273 18.6276 14.6691C18.7902 13.1499 18.9275 11.5901 18.9275 9.99986C18.9275 8.40963 18.7902 6.84983 18.6276 5.33053C18.4075 3.27246 16.7522 1.61716 14.695 1.38787C13.1672 1.21756 11.5984 1.07129 9.99888 1.07129C8.39941 1.07129 6.83061 1.21756 5.30268 1.38787C3.2456 1.61716 1.59031 3.27246 1.37012 5.33053C1.20757 6.84983 1.07031 8.40963 1.07031 9.99986C1.07031 11.5901 1.20758 13.1499 1.37012 14.6691Z" fill="var(--fill)" stroke="var(--stroke)" stroke-width="1.71429"/>
<path d="M18.866 11.4287H14.2667C13.4804 11.4287 12.8626 12.0988 12.5161 12.807C12.1396 13.5764 11.3857 14.2859 9.99548 14.2859C8.60526 14.2859 7.85138 13.5764 7.47491 12.807C7.12838 12.0988 6.51056 11.4287 5.72426 11.4287H1.125C1.17042 12.6278 1.26741 13.8162 1.38687 14.9681C1.58642 16.8924 3.09905 18.424 5.01624 18.6306C6.62885 18.8043 8.30852 18.9287 9.99548 18.9287C11.6824 18.9287 13.3621 18.8043 14.9747 18.6306C16.8919 18.424 18.4046 16.8924 18.6042 14.9681C18.7236 13.8162 18.8206 12.6278 18.866 11.4287Z" fill="none" stroke="var(--stroke)" stroke-width="1.71429" stroke-linejoin="round"/>
</svg>
