<svg width="40" height="20" viewBox="0 0 40 20" fill="none" xmlns="http://www.w3.org/2000/svg">
<path d="M3.6875 3.68652L4.21361 4.21264" stroke="#1937D5" stroke-width="1.71429" stroke-linecap="round" stroke-linejoin="round"/>
<path d="M10 1.07129V1.81533" stroke="#1937D5" stroke-width="1.71429" stroke-linecap="round" stroke-linejoin="round"/>
<path d="M18.9315 10H18.1875" stroke="#1937D5" stroke-width="1.71429" stroke-linecap="round" stroke-linejoin="round"/>
<path d="M1.81437 10H1.07031" stroke="#1937D5" stroke-width="1.71429" stroke-linecap="round" stroke-linejoin="round"/>
<path d="M16.3152 3.68652L15.7891 4.21264" stroke="#1937D5" stroke-width="1.71429" stroke-linecap="round" stroke-linejoin="round"/>
<path d="M14.1374 7.8965C14.5655 8.63493 14.7882 9.4745 14.7823 10.328C14.7786 11.2135 14.528 12.0804 14.0587 12.8312C13.902 13.082 13.7552 13.3018 13.6202 13.504C13.1337 14.2323 12.8 14.7319 12.7067 15.6248H7.29567C7.20415 14.7028 6.86569 14.2018 6.33814 13.4211C6.23141 13.2631 6.11694 13.0937 5.99521 12.9071C5.52895 12.1921 5.26257 11.3654 5.22371 10.5127C5.18485 9.66002 5.37495 8.81248 5.77425 8.05806C6.17355 7.30366 6.76749 6.66988 7.49444 6.22253C8.22139 5.77518 9.05482 5.53056 9.90824 5.51408C10.7616 5.49759 11.6039 5.70983 12.3476 6.12878C13.0913 6.54772 13.7093 7.15809 14.1374 7.8965Z" fill="#ECF2F8" stroke="#1937D5" stroke-width="1.71429" stroke-linecap="round" stroke-linejoin="round"/>
<path d="M11.6551 18.9287H8.35156" stroke="#1937D5" stroke-width="1.71429" stroke-linecap="round" stroke-linejoin="round"/>
<path d="M23.6875 3.68652L24.2136 4.21264" stroke="white" stroke-width="1.71429" stroke-linecap="round" stroke-linejoin="round"/>
<path d="M30 1.07129V1.81533" stroke="white" stroke-width="1.71429" stroke-linecap="round" stroke-linejoin="round"/>
<path d="M38.9315 10H38.1875" stroke="white" stroke-width="1.71429" stroke-linecap="round" stroke-linejoin="round"/>
<path d="M21.8144 10H21.0703" stroke="white" stroke-width="1.71429" stroke-linecap="round" stroke-linejoin="round"/>
<path d="M36.3152 3.68652L35.7891 4.21264" stroke="white" stroke-width="1.71429" stroke-linecap="round" stroke-linejoin="round"/>
<path d="M34.1374 7.8965C34.5655 8.63493 34.7882 9.4745 34.7823 10.328C34.7786 11.2135 34.528 12.0804 34.0587 12.8312C33.902 13.082 33.7552 13.3018 33.6202 13.504C33.1337 14.2323 32.8 14.7319 32.7067 15.6248H27.2957C27.2042 14.7028 26.8657 14.2018 26.3381 13.4211C26.2314 13.2631 26.1169 13.0937 25.9952 12.9071C25.529 12.1921 25.2626 11.3654 25.2237 10.5127C25.1849 9.66002 25.375 8.81248 25.7743 8.05806C26.1736 7.30366 26.7675 6.66988 27.4944 6.22253C28.2214 5.77518 29.0548 5.53056 29.9082 5.51408C30.7616 5.49759 31.6039 5.70983 32.3476 6.12878C33.0913 6.54772 33.7093 7.15809 34.1374 7.8965Z" fill="white" fill-opacity="0.32" stroke="white" stroke-width="1.71429" stroke-linecap="round" stroke-linejoin="round"/>
<path d="M31.6551 18.9287H28.3516" stroke="white" stroke-width="1.71429" stroke-linecap="round" stroke-linejoin="round"/>
</svg>
