<svg width="20" height="20" viewBox="0 0 20 20" fill="none" xmlns="http://www.w3.org/2000/svg" id="icon">
<path d="M3.6875 3.68652L4.21361 4.21264" stroke="black" stroke-width="1.71429" stroke-linecap="round" stroke-linejoin="round"/>
<path d="M10 1.07129V1.81533" stroke="black" stroke-width="1.71429" stroke-linecap="round" stroke-linejoin="round"/>
<path d="M18.9315 10H18.1875" stroke="black" stroke-width="1.71429" stroke-linecap="round" stroke-linejoin="round"/>
<path d="M1.81437 10H1.07031" stroke="black" stroke-width="1.71429" stroke-linecap="round" stroke-linejoin="round"/>
<path d="M16.3152 3.68652L15.7891 4.21264" stroke="black" stroke-width="1.71429" stroke-linecap="round" stroke-linejoin="round"/>
<path d="M14.1374 7.8965C14.5655 8.63493 14.7882 9.4745 14.7823 10.328C14.7786 11.2135 14.528 12.0804 14.0587 12.8312C13.902 13.082 13.7552 13.3018 13.6202 13.504C13.1337 14.2323 12.8 14.7319 12.7067 15.6248H7.29567C7.20415 14.7028 6.86569 14.2018 6.33814 13.4211C6.23141 13.2631 6.11694 13.0937 5.99521 12.9071C5.52895 12.1921 5.26257 11.3654 5.22371 10.5127C5.18485 9.66002 5.37495 8.81248 5.77425 8.05806C6.17355 7.30366 6.76749 6.66988 7.49444 6.22253C8.22139 5.77518 9.05482 5.53056 9.90824 5.51408C10.7616 5.49759 11.6039 5.70983 12.3476 6.12878C13.0913 6.54772 13.7093 7.15809 14.1374 7.8965Z" fill="black" fill-opacity="0.08" stroke="black" stroke-width="1.71429" stroke-linecap="round" stroke-linejoin="round"/>
<path d="M11.6551 18.9287H8.35156" stroke="black" stroke-width="1.71429" stroke-linecap="round" stroke-linejoin="round"/>
</svg>
