<svg width="146" height="139" viewBox="0 0 146 139" fill="none" xmlns="http://www.w3.org/2000/svg" >
<path d="M72.1912 120.395C100.191 120.395 122.891 97.6949 122.891 69.5949C122.891 41.4949 100.191 18.7949 72.1912 18.7949C44.1912 18.7949 21.4912 41.4949 21.4912 69.5949C21.4912 97.6949 44.1912 120.395 72.1912 120.395Z" fill="#EAEEF9"/>
<path d="M34.8913 36.6948H106.991C109.891 36.6948 112.091 38.8948 112.091 41.7948V87.4948C112.091 90.3948 109.891 92.5948 106.991 92.5948H34.8913C31.9913 92.5948 29.7913 90.3948 29.7913 87.4948V41.7948C29.7913 38.8948 32.1913 36.6948 34.8913 36.6948Z" fill="url(#paint0_linear)"/>
<path d="M113.491 65.9947V88.4947C113.491 91.3947 111.191 93.7947 108.191 93.7947H34.0913C31.1913 93.7947 28.7913 91.3947 28.7913 88.4947V64.0947" stroke="#1676EE" stroke-width="3" stroke-linecap="round" stroke-linejoin="round"/>
<path d="M107.191 53.3948H83.7912C81.4912 53.3948 79.2912 54.1948 77.5912 55.5948L71.4912 60.5948C69.7912 61.9948 67.5912 62.7948 65.2912 62.7948H38.8912C36.1912 62.7948 33.9912 64.9948 33.9912 67.6948C33.9912 67.8948 33.9912 68.1948 34.0912 68.3948L38.9912 94.1948C39.3912 96.5948 41.3912 98.3948 43.8912 98.3948H100.391C102.791 98.3948 104.891 96.6948 105.291 94.2948L112.091 58.9948C112.591 56.2948 110.791 53.8948 108.091 53.3948C107.691 53.3948 107.391 53.3948 107.191 53.3948Z" fill="white"/>
<g filter="url(#filter0_d)">
<path d="M117.691 46.4948H87.2911C84.2911 46.4948 81.4911 47.4948 79.1911 49.3948L71.1911 55.8948C68.9911 57.6948 66.0911 58.7948 63.0911 58.7948H28.6911C25.1911 58.7948 22.3911 61.6948 22.3911 65.0948C22.3911 65.3948 22.3911 65.6948 22.4911 65.9948L28.7911 99.6948C29.2911 102.895 31.9911 105.195 35.0911 105.195H108.691C111.891 105.195 114.491 102.995 114.991 99.7948L123.891 53.6948C124.491 50.1948 122.191 47.0948 118.691 46.3948C118.391 46.4948 117.991 46.4948 117.691 46.4948Z" fill="url(#paint1_linear)"/>
</g>
<path d="M58.8913 81.3949C60.6913 81.3949 62.1913 79.8949 62.1913 78.0949C62.1913 76.2949 60.6913 74.7949 58.8913 74.7949C57.0913 74.7949 55.5913 76.2949 55.5913 78.0949C55.5913 79.8949 57.0913 81.3949 58.8913 81.3949Z" fill="#989FB0"/>
<path d="M84.5913 81.2948C86.3913 81.2948 87.8913 79.7948 87.8913 77.9948C87.8913 76.1948 86.3913 74.6948 84.5913 74.6948C82.7913 74.6948 81.2913 76.1948 81.2913 77.9948C81.2913 79.8948 82.7913 81.2948 84.5913 81.2948Z" fill="#989FB0"/>
<path d="M122.591 102.895C122.191 104.595 121.591 106.395 120.891 107.895C118.991 111.595 115.991 114.495 112.291 116.395C108.491 118.295 103.991 119.095 99.4913 118.095C88.8913 115.895 82.0913 105.495 84.2913 94.8948C86.4913 84.2948 96.7913 77.3948 107.391 79.6948C111.191 80.4948 114.491 82.3948 117.291 84.9948C121.991 89.6948 123.991 96.4948 122.591 102.895Z" fill="url(#paint2_linear)"/>
<path d="M109.691 97.1946H105.191V92.6946C105.191 91.7946 104.491 90.9946 103.491 90.9946C102.591 90.9946 101.791 91.6946 101.791 92.6946V97.1946H97.2913C96.3913 97.1946 95.5913 97.8946 95.5913 98.8946C95.5913 99.8946 96.2913 100.595 97.2913 100.595H101.791V105.095C101.791 105.995 102.491 106.795 103.491 106.795C104.391 106.795 105.191 106.095 105.191 105.095V100.595H109.691C110.591 100.595 111.391 99.8946 111.391 98.8946C111.391 97.8946 110.591 97.1946 109.691 97.1946Z" fill="white"/>
<path d="M67.6912 57.6948C64.0912 50.6948 63.2912 42.2948 65.6912 34.6948C67.9912 27.0948 73.4912 20.5948 80.2912 16.8948C82.3912 15.7948 84.7912 14.8948 87.1912 14.7948C89.5912 14.6948 92.1912 15.4948 93.7912 17.4948C95.3912 19.2948 95.6912 22.2948 94.3912 24.2948C92.9912 26.1948 90.1912 26.9948 87.8912 26.3948C84.1912 25.6948 81.1912 22.7948 80.2912 19.2948C79.3912 15.7948 80.5912 11.6948 83.3912 9.3948C85.1912 7.7948 87.6912 6.8948 89.9912 6.1948C101.191 2.8948 113.391 2.4948 124.791 4.9948" stroke="#C9D4E2" stroke-width="2" stroke-miterlimit="10" stroke-dasharray="4 4"/>
<path d="M74.8912 84.8948H68.6912V86.3948H74.8912V84.8948Z" fill="#989FB0"/>
<path d="M130.791 2.39475C130.691 3.89475 130.591 5.29475 129.491 5.59475C128.391 5.89475 127.891 4.89475 127.191 3.49475C126.491 2.19475 126.891 0.794754 128.091 0.494754C129.191 0.194754 130.991 0.594754 130.791 2.39475Z" fill="#DAE2EB"/>
<path d="M129.591 9.59477C129.891 7.79477 130.191 6.79477 129.191 6.29477C128.091 5.79477 127.391 6.69477 126.191 7.89477C125.191 8.99477 125.791 10.5948 126.791 11.0948C127.991 11.6948 129.291 11.0948 129.591 9.59477Z" fill="#DAE2EB"/>
<path d="M130.991 6.29485C130.891 6.99485 130.391 7.49485 129.691 7.59485C129.391 7.59485 129.091 7.59485 128.691 7.59485C127.291 7.39485 126.191 6.49485 126.291 5.59485C126.391 4.69485 127.691 4.19485 129.291 4.39485C129.591 4.39485 129.891 4.49485 130.091 4.59485C130.691 4.79485 131.091 5.49485 130.991 6.29485C130.991 6.29485 130.991 6.19485 130.991 6.29485Z" fill="#989FB0"/>
<path d="M19.3911 34.3948C19.3911 32.6948 19.3911 30.9948 20.5911 30.4948C21.8911 29.9948 22.5911 31.1948 23.5911 32.8948C24.4911 34.3948 24.0911 35.9948 22.7911 36.4948C21.6911 36.9948 19.3911 36.6948 19.3911 34.3948Z" fill="#DAE2EB"/>
<path d="M20.0911 25.9949C19.8911 28.0949 19.5911 29.2949 20.8911 29.7949C22.1911 30.2949 22.8911 29.1949 24.1911 27.5949C25.1911 26.1949 24.4911 24.3949 23.1911 23.8949C21.8911 23.3949 20.2911 24.2949 20.0911 25.9949Z" fill="#DAE2EB"/>
<path d="M18.9912 29.9949C18.9912 29.1949 19.5912 28.5949 20.2912 28.4949C20.5912 28.3949 20.9912 28.3949 21.3912 28.4949C22.9912 28.5949 24.3912 29.4949 24.2912 30.4949C24.1912 31.4949 22.8912 32.1949 21.1912 31.9949C20.8912 31.9949 20.5912 31.8949 20.2912 31.7949C19.4912 31.6949 18.9912 30.8949 18.9912 29.9949Z" fill="#989FB0"/>
<path d="M25.7913 30.2949C36.2913 30.2949 55.6913 36.3949 55.9913 58.7949" stroke="#C9D4E2" stroke-width="2" stroke-miterlimit="10" stroke-dasharray="4 4"/>
<defs>
<filter id="filter0_d" x="0.391113" y="35.3948" width="145.595" height="102.8" filterUnits="userSpaceOnUse" color-interpolation-filters="sRGB">
<feFlood flood-opacity="0" result="BackgroundImageFix"/>
<feColorMatrix in="SourceAlpha" type="matrix" values="0 0 0 0 0 0 0 0 0 0 0 0 0 0 0 0 0 0 127 0"/>
<feOffset dy="11"/>
<feGaussianBlur stdDeviation="11"/>
<feColorMatrix type="matrix" values="0 0 0 0 0.397708 0 0 0 0 0.47749 0 0 0 0 0.575 0 0 0 0.27 0"/>
<feBlend mode="normal" in2="BackgroundImageFix" result="effect1_dropShadow"/>
<feBlend mode="normal" in="SourceGraphic" in2="effect1_dropShadow" result="shape"/>
</filter>
<linearGradient id="paint0_linear" x1="70.9478" y1="38.6367" x2="70.9478" y2="70.0128" gradientUnits="userSpaceOnUse">
<stop stop-color="#B0BACC"/>
<stop offset="1" stop-color="#969EAE"/>
</linearGradient>
<linearGradient id="paint1_linear" x1="73.1555" y1="45.0347" x2="73.1555" y2="105.829" gradientUnits="userSpaceOnUse">
<stop stop-color="#FDFEFF"/>
<stop offset="0.9964" stop-color="#ECF0F5"/>
</linearGradient>
<linearGradient id="paint2_linear" x1="83.86" y1="98.8943" x2="123.037" y2="98.8943" gradientUnits="userSpaceOnUse">
<stop stop-color="#B0BACC"/>
<stop offset="1" stop-color="#969EAE"/>
</linearGradient>
</defs>
</svg>
