<svg width="140" height="144" viewBox="0 0 140 144" fill="none" xmlns="http://www.w3.org/2000/svg">
<path d="M71.5665 127.031C104.367 127.031 130.967 100.631 130.967 68.0312C130.967 35.4313 104.367 9.03125 71.5665 9.03125C38.7665 9.03125 12.1665 35.4313 12.1665 68.0312C12.1665 100.631 38.7665 127.031 71.5665 127.031Z" fill="#EAEEF9"/>
<path d="M117.067 60.3312V96.4312C117.067 103.931 110.967 110.031 103.367 110.031H39.9666C32.4666 110.031 26.3666 104.031 26.2666 96.5312C26.2666 96.4312 26.2666 96.4312 26.2666 96.3312V60.3312C26.2666 60.2312 26.2666 60.2312 26.2666 60.1312C26.2666 59.9312 26.2666 59.7312 26.3666 59.5312C26.4666 59.2312 26.5666 59.0312 26.6666 58.7312L43.6666 26.2312C44.2666 24.9312 45.5666 24.2312 46.9666 24.2312H96.2666C97.6666 24.2312 98.8666 24.9312 99.5666 26.2312L116.567 58.7312C116.667 58.9312 116.767 59.2312 116.867 59.5312C117.067 59.7312 117.067 60.0312 117.067 60.3312Z" fill="url(#paint0_linear)"/>
<g filter="url(#filter0_d)">
<path d="M84.6666 60.6312H58.9666C57.8666 60.6312 56.9666 59.8312 56.9666 58.6312V23.5312C56.9666 22.4312 57.7666 21.5312 58.9666 21.5312H84.5666C85.6666 21.5312 86.5666 22.3312 86.5666 23.5312V58.6312C86.5666 59.7312 85.7666 60.6312 84.6666 60.6312Z" fill="#F5F8FF"/>
</g>
<g filter="url(#filter1_d)">
<path d="M93.1666 68.9313H50.4666C49.0666 68.9313 47.9666 67.7313 47.9666 66.4313V32.3313C47.9666 30.9313 49.1666 29.8313 50.4666 29.8313H93.1666C94.5666 29.8313 95.6666 31.0313 95.6666 32.3313V66.4313C95.5666 67.8313 94.5666 68.9313 93.1666 68.9313Z" fill="#F5F8FF"/>
</g>
<g filter="url(#filter2_d)">
<path d="M98.0665 78.6312H45.6665C44.1665 78.6312 42.8665 77.3312 42.8665 75.9312V42.3312C42.8665 40.8312 44.1665 39.6312 45.6665 39.6312H98.0665C99.5665 39.6312 100.866 40.9312 100.866 42.3312V75.8312C100.766 77.4312 99.5665 78.6312 98.0665 78.6312Z" fill="#F5F8FF"/>
</g>
<g filter="url(#filter3_d)">
<path d="M103.366 88.0312H40.3665C38.6665 88.0312 37.3665 86.6312 37.3665 85.1312V52.0312C37.3665 50.3312 38.7665 49.1312 40.3665 49.1312H103.366C105.066 49.1312 106.366 50.5312 106.366 52.0312V85.0312C106.266 86.7312 105.066 88.0312 103.366 88.0312Z" fill="#F5F8FF"/>
</g>
<path d="M84.4664 62.2313H60.7664C60.1664 62.2313 59.5664 61.7313 59.5664 61.0313C59.5664 60.4313 60.0664 59.8313 60.7664 59.8313H84.4664C85.0664 59.8313 85.6664 60.3313 85.6664 61.0313C85.6664 61.7313 85.1664 62.2313 84.4664 62.2313Z" fill="#E6ECF5"/>
<path d="M77.5665 69.2313H47.5665C47.1665 69.2313 46.8665 68.9313 46.8665 68.5313C46.8665 68.1313 47.1665 67.8313 47.5665 67.8313H77.4665C77.8665 67.8313 78.1665 68.1313 78.1665 68.5313C78.3665 68.7313 78.0665 69.2313 77.5665 69.2313Z" fill="#E6ECF5"/>
<path d="M97.2665 69.2313H82.1665C81.7665 69.2313 81.4666 68.9313 81.4666 68.5313C81.4666 68.1313 81.7665 67.8313 82.1665 67.8313H97.1665C97.5665 67.8313 97.8665 68.1313 97.8665 68.5313C98.0665 68.7313 97.7665 69.2313 97.2665 69.2313Z" fill="#E6ECF5"/>
<g filter="url(#filter4_d)">
<path d="M111.849 62.1412V96.3671C111.849 101.235 107.955 105.129 102.998 105.129H40.3349C35.467 105.129 31.4841 101.235 31.4841 96.3671V61.9641C31.4841 61.7871 31.4841 61.6101 31.5726 61.4331H48.7523C51.7616 61.4331 54.2398 63.8228 54.2398 66.9206C54.2398 68.4252 54.8594 69.8413 55.8329 70.8149C56.895 71.877 58.1341 72.408 59.7273 72.408H84.6943C87.7035 72.408 90.1818 70.0183 90.1818 66.9206C90.1818 65.4159 90.8013 63.9998 91.7749 63.0262C92.837 61.9641 94.0761 61.4331 95.5807 61.4331H111.672C111.849 61.6101 111.849 61.8756 111.849 62.1412Z" fill="white"/>
</g>
<g filter="url(#filter5_d)">
<path d="M117.067 60.3312V100.131C117.067 105.631 112.667 110.031 107.067 110.031H36.2666C30.7666 110.031 26.2666 105.631 26.2666 100.131V60.1312C26.2666 59.9312 26.2666 59.7313 26.3666 59.5312H49.1666C52.5666 59.5312 55.3666 62.2313 55.3666 65.7313C55.3666 67.4313 56.0666 69.0312 57.1666 70.1312C58.3666 71.3312 59.7666 71.9313 61.5666 71.9313H81.8666C85.2666 71.9313 88.0666 69.2313 88.0666 65.7313C88.0666 64.0313 88.7666 62.4312 89.8666 61.3312C91.0666 60.1312 92.4666 59.5312 94.1666 59.5312H116.867C117.067 59.7313 117.067 60.0312 117.067 60.3312Z" fill="url(#paint1_linear)"/>
</g>
<path d="M107.067 95.6312H86.4665C85.7665 95.6312 85.1665 95.1313 85.1665 94.3313C85.1665 93.6313 85.6665 93.0312 86.4665 93.0312H106.867C107.567 93.0312 108.167 93.5313 108.167 94.3313C108.267 94.9313 107.667 95.6312 107.067 95.6312Z" fill="#E6ECF5"/>
<path d="M97.8665 101.931H86.4665C85.7665 101.931 85.1665 101.431 85.1665 100.631C85.1665 99.9313 85.6665 99.3313 86.4665 99.3313H97.7665C98.4665 99.3313 99.0665 99.8313 99.0665 100.631C99.1665 101.231 98.5665 101.931 97.8665 101.931Z" fill="#E6ECF5"/>
<path d="M90.7739 106.131C90.3739 107.831 89.7739 109.631 89.0739 111.131C87.1739 114.831 84.1739 117.731 80.4739 119.631C76.6739 121.531 72.1739 122.331 67.6739 121.331C56.9739 119.031 50.1739 108.731 52.3739 98.1313C54.5739 87.5313 64.8739 80.6313 75.4739 82.9313C79.2739 83.7313 82.5739 85.6313 85.3739 88.2313C90.1739 92.9313 92.0739 99.6313 90.7739 106.131Z" fill="url(#paint2_linear)"/>
<path d="M77.7665 100.331H73.2665V95.8313C73.2665 94.9313 72.5665 94.1313 71.5665 94.1313C70.6665 94.1313 69.8665 94.8313 69.8665 95.8313V100.331H65.3665C64.4665 100.331 63.6665 101.031 63.6665 102.031C63.6665 103.031 64.3665 103.731 65.3665 103.731H69.8665V108.231C69.8665 109.131 70.5665 109.931 71.5665 109.931C72.4665 109.931 73.2665 109.231 73.2665 108.231V103.731H77.7665C78.6665 103.731 79.4665 103.031 79.4665 102.031C79.4665 101.031 78.6665 100.331 77.7665 100.331Z" fill="white"/>
<path d="M129.449 39.8312C131.713 39.8312 133.549 37.9956 133.549 35.7312C133.549 33.4669 131.713 31.6312 129.449 31.6312C127.184 31.6312 125.349 33.4669 125.349 35.7312C125.349 37.9956 127.184 39.8312 129.449 39.8312Z" fill="#EAEEF9"/>
<path d="M125.349 26.5313C126.895 26.5313 128.149 25.2777 128.149 23.7313C128.149 22.1849 126.895 20.9313 125.349 20.9313C123.802 20.9313 122.549 22.1849 122.549 23.7313C122.549 25.2777 123.802 26.5313 125.349 26.5313Z" fill="#EAEEF9"/>
<path d="M11.9487 35.7312C13.4951 35.7312 14.7487 34.4776 14.7487 32.9312C14.7487 31.3848 13.4951 30.1312 11.9487 30.1312C10.4023 30.1312 9.14868 31.3848 9.14868 32.9312C9.14868 34.4776 10.4023 35.7312 11.9487 35.7312Z" fill="#EAEEF9"/>
<path d="M5.64873 97.3313C8.52061 97.3313 10.8487 95.0032 10.8487 92.1313C10.8487 89.2594 8.52061 86.9313 5.64873 86.9313C2.77685 86.9313 0.44873 89.2594 0.44873 92.1313C0.44873 95.0032 2.77685 97.3313 5.64873 97.3313Z" fill="#EAEEF9"/>
<defs>
<filter id="filter0_d" x="34.9666" y="0.53125" width="73.6" height="83.1" filterUnits="userSpaceOnUse" color-interpolation-filters="sRGB">
<feFlood flood-opacity="0" result="BackgroundImageFix"/>
<feColorMatrix in="SourceAlpha" type="matrix" values="0 0 0 0 0 0 0 0 0 0 0 0 0 0 0 0 0 0 127 0"/>
<feOffset dy="1"/>
<feGaussianBlur stdDeviation="11"/>
<feColorMatrix type="matrix" values="0 0 0 0 0.397708 0 0 0 0 0.47749 0 0 0 0 0.575 0 0 0 0.18 0"/>
<feBlend mode="normal" in2="BackgroundImageFix" result="effect1_dropShadow"/>
<feBlend mode="normal" in="SourceGraphic" in2="effect1_dropShadow" result="shape"/>
</filter>
<filter id="filter1_d" x="25.9666" y="8.8313" width="91.7" height="83.1" filterUnits="userSpaceOnUse" color-interpolation-filters="sRGB">
<feFlood flood-opacity="0" result="BackgroundImageFix"/>
<feColorMatrix in="SourceAlpha" type="matrix" values="0 0 0 0 0 0 0 0 0 0 0 0 0 0 0 0 0 0 127 0"/>
<feOffset dy="1"/>
<feGaussianBlur stdDeviation="11"/>
<feColorMatrix type="matrix" values="0 0 0 0 0.397708 0 0 0 0 0.47749 0 0 0 0 0.575 0 0 0 0.18 0"/>
<feBlend mode="normal" in2="BackgroundImageFix" result="effect1_dropShadow"/>
<feBlend mode="normal" in="SourceGraphic" in2="effect1_dropShadow" result="shape"/>
</filter>
<filter id="filter2_d" x="20.8665" y="18.6312" width="102" height="83" filterUnits="userSpaceOnUse" color-interpolation-filters="sRGB">
<feFlood flood-opacity="0" result="BackgroundImageFix"/>
<feColorMatrix in="SourceAlpha" type="matrix" values="0 0 0 0 0 0 0 0 0 0 0 0 0 0 0 0 0 0 127 0"/>
<feOffset dy="1"/>
<feGaussianBlur stdDeviation="11"/>
<feColorMatrix type="matrix" values="0 0 0 0 0.397708 0 0 0 0 0.47749 0 0 0 0 0.575 0 0 0 0.18 0"/>
<feBlend mode="normal" in2="BackgroundImageFix" result="effect1_dropShadow"/>
<feBlend mode="normal" in="SourceGraphic" in2="effect1_dropShadow" result="shape"/>
</filter>
<filter id="filter3_d" x="15.3665" y="28.1312" width="113" height="82.9" filterUnits="userSpaceOnUse" color-interpolation-filters="sRGB">
<feFlood flood-opacity="0" result="BackgroundImageFix"/>
<feColorMatrix in="SourceAlpha" type="matrix" values="0 0 0 0 0 0 0 0 0 0 0 0 0 0 0 0 0 0 127 0"/>
<feOffset dy="1"/>
<feGaussianBlur stdDeviation="11"/>
<feColorMatrix type="matrix" values="0 0 0 0 0.397708 0 0 0 0 0.47749 0 0 0 0 0.575 0 0 0 0.18 0"/>
<feBlend mode="normal" in2="BackgroundImageFix" result="effect1_dropShadow"/>
<feBlend mode="normal" in="SourceGraphic" in2="effect1_dropShadow" result="shape"/>
</filter>
<filter id="filter4_d" x="18.4841" y="45.4331" width="106.365" height="69.6963" filterUnits="userSpaceOnUse" color-interpolation-filters="sRGB">
<feFlood flood-opacity="0" result="BackgroundImageFix"/>
<feColorMatrix in="SourceAlpha" type="matrix" values="0 0 0 0 0 0 0 0 0 0 0 0 0 0 0 0 0 0 127 0"/>
<feOffset dy="-3"/>
<feGaussianBlur stdDeviation="6.5"/>
<feColorMatrix type="matrix" values="0 0 0 0 0.397708 0 0 0 0 0.47749 0 0 0 0 0.575 0 0 0 0.27 0"/>
<feBlend mode="normal" in2="BackgroundImageFix" result="effect1_dropShadow"/>
<feBlend mode="normal" in="SourceGraphic" in2="effect1_dropShadow" result="shape"/>
</filter>
<filter id="filter5_d" x="4.2666" y="48.5312" width="134.8" height="94.5" filterUnits="userSpaceOnUse" color-interpolation-filters="sRGB">
<feFlood flood-opacity="0" result="BackgroundImageFix"/>
<feColorMatrix in="SourceAlpha" type="matrix" values="0 0 0 0 0 0 0 0 0 0 0 0 0 0 0 0 0 0 127 0"/>
<feOffset dy="11"/>
<feGaussianBlur stdDeviation="11"/>
<feColorMatrix type="matrix" values="0 0 0 0 0.397708 0 0 0 0 0.47749 0 0 0 0 0.575 0 0 0 0.27 0"/>
<feBlend mode="normal" in2="BackgroundImageFix" result="effect1_dropShadow"/>
<feBlend mode="normal" in="SourceGraphic" in2="effect1_dropShadow" result="shape"/>
</filter>
<linearGradient id="paint0_linear" x1="71.6738" y1="27.2118" x2="71.6738" y2="75.3705" gradientUnits="userSpaceOnUse">
<stop stop-color="#B0BACC"/>
<stop offset="1" stop-color="#969EAE"/>
</linearGradient>
<linearGradient id="paint1_linear" x1="71.637" y1="58.3631" x2="71.637" y2="110.576" gradientUnits="userSpaceOnUse">
<stop stop-color="#FDFEFF"/>
<stop offset="0.9964" stop-color="#ECF0F5"/>
</linearGradient>
<linearGradient id="paint2_linear" x1="71.5697" y1="83.853" x2="71.5697" y2="105.898" gradientUnits="userSpaceOnUse">
<stop stop-color="#B0BACC"/>
<stop offset="1" stop-color="#969EAE"/>
</linearGradient>
</defs>
</svg>
