<svg width="145" height="103" viewBox="0 0 145 103" fill="none" xmlns="http://www.w3.org/2000/svg">
<path d="M120.686 86.1246H12.1912C19.07 70.8011 40.713 59.6161 66.4385 59.6161C92.1082 59.5601 113.807 70.7451 120.686 86.1246Z" fill="#EAEEF9"/>
<path d="M132.039 86.1245H143.447" stroke="#D5DAE8" stroke-width="2" stroke-miterlimit="10" stroke-linecap="round" stroke-linejoin="round"/>
<path d="M1.0061 86.1245H126.334" stroke="#D5DAE8" stroke-width="2" stroke-miterlimit="10" stroke-linecap="round" stroke-linejoin="round"/>
<path d="M35.2883 93.5625H130.529" stroke="#D5DAE8" stroke-width="2" stroke-miterlimit="10" stroke-linecap="round" stroke-linejoin="round"/>
<path d="M13.4775 93.5625H29.1925" stroke="#D5DAE8" stroke-width="2" stroke-miterlimit="10" stroke-linecap="round" stroke-linejoin="round"/>
<path d="M119.511 22.6494C105.027 35.624 96.638 51.2272 95.7432 70.5213" stroke="#D5DAE8" stroke-width="4" stroke-miterlimit="10" stroke-linecap="round" stroke-linejoin="round"/>
<path d="M16.9929 31.3794C28.242 41.0678 34.8772 52.8533 35.847 67.5675" stroke="#D5DAE8" stroke-width="4" stroke-miterlimit="10" stroke-linecap="round" stroke-linejoin="round"/>
<path d="M120.35 22.7053C120.35 22.7053 116.212 18.0635 111.011 13.5336L111.794 11.6321L109.277 12.0795C107.544 10.6255 105.698 9.22736 103.853 8.10885C107.432 5.9837 110.508 6.2074 113.304 7.997C118.393 11.1288 119.735 17.2246 120.35 22.7053Z" fill="url(#paint0_linear)"/>
<path d="M16.3532 31.4344C16.3532 31.4344 19.4432 27.8298 23.3459 24.2947L22.72 22.8549L24.6477 23.159C25.9494 22.0234 27.3373 20.9287 28.7294 20.0475C25.9658 18.4786 23.6212 18.695 21.5134 20.1026C17.6753 22.5688 16.7414 27.2418 16.3532 31.4344Z" fill="url(#paint1_linear)"/>
<path d="M118.617 21.8106C118.617 21.8106 113.472 20.4684 107.655 19.6854L107.32 17.9517L105.754 19.4617C103.797 19.238 101.839 19.1262 100.05 19.1821C101.615 15.9944 103.852 14.7081 106.761 14.6522C111.738 14.4844 115.597 18.2314 118.617 21.8106Z" fill="url(#paint2_linear)"/>
<path d="M17.6634 30.7258C17.6634 30.7258 21.5708 29.6248 25.9987 28.9407L26.2291 27.6124L27.4468 28.7417C28.9376 28.5419 30.43 28.4274 31.7969 28.4435C30.5542 26.0335 28.8276 25.0849 26.6069 25.0855C22.8052 25.0314 19.9153 27.9488 17.6634 30.7258Z" fill="url(#paint3_linear)"/>
<path d="M119.735 23.712C119.735 23.712 119.623 17.1128 118.561 9.95443L120.518 9.00371L118.225 7.6615C117.834 5.31265 117.274 2.90787 116.603 0.782715C120.91 1.56567 123.202 3.80267 124.265 7.2141C126.055 13.0862 122.923 18.9025 119.735 23.712Z" fill="url(#paint4_linear)"/>
<path d="M16.8379 32.1938C16.8379 32.1938 16.8252 27.1548 17.5299 21.6749L16.0217 20.9783L17.752 19.9197C18.0159 18.121 18.407 16.277 18.8877 14.6449C15.6123 15.3065 13.8953 17.0482 13.1349 19.668C11.8562 24.1769 14.3332 28.5699 16.8379 32.1938Z" fill="url(#paint5_linear)"/>
<path d="M118.673 23.2086C118.673 23.2086 122.699 27.9623 126.502 33.7225L128.46 33.1633L127.677 35.5681C128.851 37.5254 129.969 39.5388 130.864 41.4961C133.437 38.2525 133.661 35.1766 132.262 32.1007C129.858 26.7878 123.985 24.6067 118.673 23.2086Z" fill="url(#paint6_linear)"/>
<path d="M17.6416 31.7938C17.6416 31.7938 14.6387 35.4822 11.8215 39.9356L10.319 39.5378L10.9524 41.3618C10.0851 42.8734 9.26121 44.4268 8.60728 45.9342C6.5954 43.4965 6.37893 41.1519 7.40043 38.7833C9.15708 34.6921 13.607 32.94 17.6416 31.7938Z" fill="url(#paint7_linear)"/>
<path d="M118.84 22.5376C118.84 22.5376 125.328 23.5443 132.318 25.6135L133.549 23.8239L134.555 26.2846C136.848 27.0116 139.141 27.8505 141.154 28.8572C140.987 24.495 139.085 21.8665 135.842 20.3566C130.249 17.6721 124.041 19.9651 118.84 22.5376Z" fill="url(#paint8_linear)"/>
<path d="M17.5034 31.284C17.5034 31.284 12.5665 32.1488 7.26117 33.8322L6.29542 32.4845L5.5636 34.3777C3.82417 34.9668 2.08641 35.6412 0.56458 36.4395C0.627815 33.1073 2.04016 31.0726 4.49366 29.8718C8.72262 27.7397 13.4951 29.3977 17.5034 31.284Z" fill="url(#paint9_linear)"/>
<path d="M120.861 20.7448C121.832 19.7732 121.832 18.198 120.861 17.2264C119.889 16.2548 118.314 16.2548 117.342 17.2264C116.371 18.198 116.371 19.7732 117.342 20.7448C118.314 21.7164 119.889 21.7164 120.861 20.7448Z" fill="url(#paint10_linear)"/>
<path d="M15.9347 29.9456C15.1786 29.2184 15.1552 28.016 15.8824 27.2599C16.6096 26.5038 17.812 26.4804 18.568 27.2076C19.3241 27.9348 19.3475 29.1372 18.6203 29.8933C17.8931 30.6493 16.6907 30.6727 15.9347 29.9456Z" fill="url(#paint11_linear)"/>
<path d="M124.389 24.8077C125.758 23.4387 125.758 21.219 124.389 19.85C123.02 18.4809 120.8 18.4809 119.431 19.85C118.062 21.219 118.062 23.4387 119.431 24.8077C120.8 26.1768 123.02 26.1768 124.389 24.8077Z" fill="url(#paint12_linear)"/>
<path d="M13.302 33.0994C12.2366 32.0747 12.2036 30.3804 13.2283 29.315C14.253 28.2497 15.9473 28.2167 17.0126 29.2414C18.078 30.266 18.111 31.9603 17.0863 33.0257C16.0617 34.0911 14.3673 34.124 13.302 33.0994Z" fill="url(#paint13_linear)"/>
<path d="M119.358 24.4178C120.241 23.5345 120.241 22.1025 119.358 21.2192C118.475 20.3359 117.043 20.3359 116.159 21.2192C115.276 22.1025 115.276 23.5345 116.159 24.4178C117.043 25.301 118.475 25.301 119.358 24.4178Z" fill="url(#paint14_linear)"/>
<path d="M17.1364 32.7269C16.4491 32.0658 16.4278 30.9727 17.0889 30.2854C17.7499 29.598 18.843 29.5768 19.5304 30.2378C20.2177 30.8989 20.239 31.992 19.5779 32.6793C18.9168 33.3667 17.8237 33.388 17.1364 32.7269Z" fill="url(#paint15_linear)"/>
<path opacity="0.4" d="M24.1592 80.8675C26.0047 80.476 27.9621 81.0352 29.3602 82.2656" stroke="#D5DAE8" stroke-miterlimit="10" stroke-linecap="round" stroke-linejoin="round"/>
<path opacity="0.4" d="M43.9006 74.7717C45.6343 74.1006 47.368 73.5414 49.2135 73.094C50.332 72.8143 51.5065 72.6466 52.625 72.8703C53.7435 73.094 54.806 73.9328 55.0297 75.0513" stroke="#D5DAE8" stroke-miterlimit="10" stroke-linecap="round" stroke-linejoin="round"/>
<path opacity="0.4" d="M69.123 77.1764C71.416 74.3801 75.5544 73.3175 78.9099 74.6038C79.637 74.8834 80.3081 75.2749 81.091 75.219C81.9299 75.1631 82.601 74.6038 83.2162 74.0446C83.8313 73.4853 84.3906 72.8701 85.1736 72.5346C85.9565 72.255 86.9632 72.4227 87.3546 73.1498" stroke="#D5DAE8" stroke-miterlimit="10" stroke-linecap="round" stroke-linejoin="round"/>
<path opacity="0.4" d="M91.437 80.1964C94.2892 78.2391 98.0362 77.6239 101.392 78.4628" stroke="#D5DAE8" stroke-miterlimit="10" stroke-linecap="round" stroke-linejoin="round"/>
<path opacity="0.4" d="M39.2029 68.6759C39.3707 67.7811 40.4332 67.2777 41.384 67.3896C42.3347 67.4455 43.1736 67.8929 44.1243 68.0607C45.3546 68.2844 46.6409 67.9488 47.6476 67.1659" stroke="#D5DAE8" stroke-miterlimit="10" stroke-linecap="round" stroke-linejoin="round"/>
<path opacity="0.4" d="M27.0112 77.1206C28.8568 77.2324 30.7582 76.6173 32.2682 75.5547" stroke="#D5DAE8" stroke-miterlimit="10" stroke-linecap="round" stroke-linejoin="round"/>
<path opacity="0.4" d="M74.8274 67.9487C76.6729 67.6691 78.5744 67.9487 80.1962 68.7876" stroke="#D5DAE8" stroke-miterlimit="10" stroke-linecap="round" stroke-linejoin="round"/>
<path opacity="0.6" d="M65.5996 66.1034C73.661 66.1034 80.196 65.0907 80.196 63.8415C80.196 62.5924 73.661 61.5797 65.5996 61.5797C57.5382 61.5797 51.0032 62.5924 51.0032 63.8415C51.0032 65.0907 57.5382 66.1034 65.5996 66.1034Z" fill="#D5DAE8"/>
<path d="M50.8438 101.174H101.642" stroke="#D5DAE8" stroke-width="2" stroke-miterlimit="10" stroke-linecap="round" stroke-linejoin="round"/>
<path d="M84.7394 43.3463C84.7394 48.1463 83.0287 52.5123 80.1691 55.9336C76.5691 60.2485 71.1563 62.9805 65.0796 62.9805C59.2583 62.9805 54.0497 60.4528 50.4497 56.4442C47.3603 52.9719 45.4709 48.3761 45.4709 43.3463C45.4709 32.4951 54.254 23.712 65.1052 23.712C75.9563 23.712 84.7394 32.4951 84.7394 43.3463Z" fill="#DCE1EE"/>
<path d="M80.1948 55.9337C76.5947 60.2486 71.1819 62.9805 65.1053 62.9805C59.2839 62.9805 54.0754 60.4528 50.4753 56.4443C51.0881 55.9592 51.8541 55.5251 52.7988 55.1422L53.5137 54.8613C54.8669 54.3251 56.6286 53.6613 59.0031 52.6655C59.5393 52.4358 59.9733 52.0272 60.2031 51.4911C60.3307 51.2102 60.4073 50.8783 60.4073 50.5464V46.1293C60.3307 46.0272 60.2542 45.9506 60.2031 45.8485C59.8201 45.2867 59.5648 44.6229 59.4882 43.908L59.1052 43.7293C57.9563 44.0101 58.0329 42.7846 57.752 40.4356C57.6243 39.4654 57.7775 39.2612 58.2116 39.108L58.569 38.6229C56.3733 33.6441 57.4711 30.5292 59.6414 29.4313C58.9265 27.8483 58.8754 27.2866 58.8754 27.2866C58.8754 27.2866 63.4967 28.0526 65.1053 27.7462C67.1223 27.3377 70.2372 27.8228 71.3862 30.5036C73.3011 31.2696 74.067 32.4696 74.2202 33.7973C74.5011 35.8909 73.3011 38.1888 73.0713 39.0824C73.0968 39.1335 73.1224 39.159 73.1224 39.1846C73.4287 39.3378 73.5309 39.5931 73.4287 40.4356C73.1479 42.6569 73.2245 44.0357 72.0755 43.7293L71.0542 45.5165C71.0032 45.7208 71.0032 45.7974 70.9777 45.9506C70.9266 46.2825 70.9521 46.9463 70.9521 50.5974C70.9521 51.0315 71.0798 51.44 71.3096 51.823C71.5649 52.206 71.9223 52.5379 72.3819 52.7166C72.3819 52.7166 72.4075 52.7166 72.433 52.7421C75.0628 53.84 76.9522 54.5549 78.3309 55.0911C79.0458 55.3209 79.6586 55.6273 80.1948 55.9337Z" fill="white"/>
<path d="M73.1224 39.0569C73.2246 38.4952 72.9692 37.8058 72.765 37.3207C72.7395 37.2441 72.6884 37.1675 72.6629 37.0654C71.7692 35.2781 69.8033 34.5632 67.9139 34.4611C63.0883 34.2058 62.6543 35.1249 61.1479 33.7462C61.6074 34.4611 61.6585 35.559 60.9436 36.9377C60.433 37.9079 59.4627 38.342 58.6202 38.6228C56.4244 33.6441 57.5223 30.5291 59.6925 29.4313C58.9776 27.8483 58.9266 27.2866 58.9266 27.2866C58.9266 27.2866 63.5479 28.0525 65.1309 27.7461C67.1479 27.3376 70.2628 27.8227 71.4118 30.5036C73.3267 31.2696 74.0671 32.4696 74.2459 33.7973C74.5267 35.8654 73.3522 38.1377 73.1224 39.0569Z" fill="url(#paint16_linear)"/>
<path d="M71.3607 51.7718V52.6399H60.2031V51.5165C60.3308 51.2357 60.4074 50.9037 60.4074 50.5718V46.1292C60.3308 46.0271 60.2542 45.9505 60.2031 45.8484V45.593C60.4329 46.0016 60.7393 46.3845 61.1223 46.6909L64.6202 49.1165C65.4372 49.8059 66.6117 49.8314 67.4543 49.1675L70.7224 46.2314C70.8245 46.1292 70.9522 46.0271 71.0543 45.925C71.0032 46.2569 71.0288 46.9207 71.0288 50.5718C71.0032 51.0059 71.1309 51.4399 71.3607 51.7718Z" fill="url(#paint17_linear)"/>
<defs>
<linearGradient id="paint0_linear" x1="112.103" y1="7.14461" x2="112.103" y2="16.193" gradientUnits="userSpaceOnUse">
<stop stop-color="#EAEEF5"/>
<stop offset="1" stop-color="#D4DAE4"/>
</linearGradient>
<linearGradient id="paint1_linear" x1="22.4176" y1="19.4341" x2="22.552" y2="26.3409" gradientUnits="userSpaceOnUse">
<stop stop-color="#EAEEF5"/>
<stop offset="1" stop-color="#D4DAE4"/>
</linearGradient>
<linearGradient id="paint2_linear" x1="109.335" y1="14.8956" x2="109.335" y2="18.9166" gradientUnits="userSpaceOnUse">
<stop stop-color="#EAEEF5"/>
<stop offset="1" stop-color="#D4DAE4"/>
</linearGradient>
<linearGradient id="paint3_linear" x1="24.6458" y1="25.3095" x2="24.7055" y2="28.3788" gradientUnits="userSpaceOnUse">
<stop stop-color="#EAEEF5"/>
<stop offset="1" stop-color="#D4DAE4"/>
</linearGradient>
<linearGradient id="paint4_linear" x1="120.696" y1="1.57925" x2="120.696" y2="14.4492" gradientUnits="userSpaceOnUse">
<stop stop-color="#EAEEF5"/>
<stop offset="1" stop-color="#D4DAE4"/>
</linearGradient>
<linearGradient id="paint5_linear" x1="15.7756" y1="15.3137" x2="15.9669" y2="25.1376" gradientUnits="userSpaceOnUse">
<stop stop-color="#EAEEF5"/>
<stop offset="1" stop-color="#D4DAE4"/>
</linearGradient>
<linearGradient id="paint6_linear" x1="125.895" y1="23.8439" x2="125.895" y2="34.1085" gradientUnits="userSpaceOnUse">
<stop stop-color="#EAEEF5"/>
<stop offset="1" stop-color="#D4DAE4"/>
</linearGradient>
<linearGradient id="paint7_linear" x1="12.138" y1="32.3861" x2="12.2906" y2="40.2212" gradientUnits="userSpaceOnUse">
<stop stop-color="#EAEEF5"/>
<stop offset="1" stop-color="#D4DAE4"/>
</linearGradient>
<linearGradient id="paint8_linear" x1="129.999" y1="19.4916" x2="129.999" y2="24.9376" gradientUnits="userSpaceOnUse">
<stop stop-color="#EAEEF5"/>
<stop offset="1" stop-color="#D4DAE4"/>
</linearGradient>
<linearGradient id="paint9_linear" x1="8.94042" y1="29.1248" x2="9.02135" y2="33.2818" gradientUnits="userSpaceOnUse">
<stop stop-color="#EAEEF5"/>
<stop offset="1" stop-color="#D4DAE4"/>
</linearGradient>
<linearGradient id="paint10_linear" x1="117.465" y1="17.3483" x2="119.44" y2="19.3232" gradientUnits="userSpaceOnUse">
<stop stop-color="#B0BACC"/>
<stop offset="1" stop-color="#969EAE"/>
</linearGradient>
<linearGradient id="paint11_linear" x1="18.4763" y1="27.3025" x2="16.9983" y2="28.8393" gradientUnits="userSpaceOnUse">
<stop stop-color="#B0BACC"/>
<stop offset="1" stop-color="#969EAE"/>
</linearGradient>
<linearGradient id="paint12_linear" x1="119.604" y1="20.0218" x2="122.386" y2="22.8046" gradientUnits="userSpaceOnUse">
<stop stop-color="#B0BACC"/>
<stop offset="1" stop-color="#969EAE"/>
</linearGradient>
<linearGradient id="paint13_linear" x1="16.8834" y1="29.3751" x2="14.8007" y2="31.5405" gradientUnits="userSpaceOnUse">
<stop stop-color="#B0BACC"/>
<stop offset="1" stop-color="#969EAE"/>
</linearGradient>
<linearGradient id="paint14_linear" x1="116.271" y1="21.3301" x2="118.066" y2="23.1254" gradientUnits="userSpaceOnUse">
<stop stop-color="#B0BACC"/>
<stop offset="1" stop-color="#969EAE"/>
</linearGradient>
<linearGradient id="paint15_linear" x1="19.447" y1="30.3241" x2="18.1033" y2="31.7212" gradientUnits="userSpaceOnUse">
<stop stop-color="#B0BACC"/>
<stop offset="1" stop-color="#969EAE"/>
</linearGradient>
<linearGradient id="paint16_linear" x1="57.4142" y1="33.173" x2="74.292" y2="33.173" gradientUnits="userSpaceOnUse">
<stop stop-color="#B0BACC"/>
<stop offset="1" stop-color="#969EAE"/>
</linearGradient>
<linearGradient id="paint17_linear" x1="65.7853" y1="52.6828" x2="65.7853" y2="48.8007" gradientUnits="userSpaceOnUse">
<stop stop-color="white"/>
<stop offset="1" stop-color="#E2E5EC"/>
</linearGradient>
</defs>
</svg>
