<svg width="141" height="113" viewBox="0 0 141 113" fill="none" xmlns="http://www.w3.org/2000/svg">
<path d="M72.3945 104.905C100.021 104.905 122.416 82.4891 122.416 54.8382C122.416 27.1873 100.021 4.77185 72.3945 4.77185C44.7684 4.77185 22.3729 27.1873 22.3729 54.8382C22.3729 82.4891 44.7684 104.905 72.3945 104.905Z" fill="#EAEEF9"/>
<path d="M131.693 66.208C133.806 66.208 135.518 64.4942 135.518 62.38C135.518 60.2659 133.806 58.552 131.693 58.552C129.581 58.552 127.869 60.2659 127.869 62.38C127.869 64.4942 129.581 66.208 131.693 66.208Z" fill="#EAEEF9"/>
<path d="M26.8015 20.423C28.1911 20.423 29.3176 19.2954 29.3176 17.9045C29.3176 16.5136 28.1911 15.3861 26.8015 15.3861C25.4118 15.3861 24.2853 16.5136 24.2853 17.9045C24.2853 19.2954 25.4118 20.423 26.8015 20.423Z" fill="#EAEEF9"/>
<path d="M68.1674 95.7526C68.1674 100.487 66.1544 104.718 62.9337 107.74C62.0279 108.546 61.1221 109.251 60.015 109.856C57.5994 111.266 54.7813 112.072 51.7619 112.072C48.7425 112.072 45.9244 111.266 43.5089 109.856C43.1063 109.654 42.8043 109.453 42.4017 109.151C38.1746 106.229 35.3564 101.293 35.3564 95.7526C35.3564 86.6862 42.7037 79.4332 51.6613 79.4332C60.8201 79.3324 68.1674 86.6862 68.1674 95.7526Z" fill="#DCE2F0"/>
<path d="M48.4406 99.3787C48.6419 99.5802 48.8432 99.8824 49.1451 100.084C49.3464 100.285 49.5477 100.386 49.749 100.588C49.8497 100.688 50.051 100.789 50.1516 100.89C50.1516 100.89 50.2523 100.89 50.2523 100.991L50.3529 101.091V102.502C50.3529 102.502 50.3529 102.502 50.2523 102.401C50.1516 102.3 49.9503 102.199 49.8497 102.099C49.6484 101.998 49.4471 101.796 49.2458 101.696C49.1451 101.696 49.1451 101.595 49.0445 101.595C48.34 101.192 47.7361 100.789 47.7361 100.285C47.8367 100.084 48.038 99.7817 48.4406 99.3787ZM62.7325 107.236C62.1286 105.927 61.0215 104.617 59.6124 103.912C58.9079 103.61 58.1027 103.307 57.2976 103.307C57.0963 103.307 56.7943 103.307 56.593 103.307C56.4924 103.307 56.3917 103.307 56.2911 103.307C55.184 103.207 55.0833 103.005 55.0833 103.005V100.688C55.7878 100.084 56.4924 99.3787 57.0963 98.6736C57.5995 97.9684 58.0021 97.1625 58.2034 96.1551C59.1092 95.9537 59.7131 95.1478 59.6124 94.1404C59.6124 93.7374 59.3105 93.3345 59.3105 92.9315C59.3105 92.7301 59.3105 92.5286 59.3105 92.3271C59.3105 92.2264 59.3105 92.0249 59.3105 91.9242C59.3105 91.8234 59.3105 91.622 59.3105 91.5212C59.2098 90.8161 59.0086 90.1109 58.606 89.305C57.3982 87.0888 55.184 85.6785 52.5671 85.6785C52.0639 85.6785 51.5607 85.7792 51.0574 85.8799C50.1516 86.0814 49.2458 86.4844 48.5413 87.0888C48.4406 87.1895 48.2393 87.2903 48.1387 87.4917L48.038 87.5925C47.2329 88.3984 46.5283 89.305 46.2264 90.4131C45.8238 91.5212 45.8238 92.6293 45.9244 93.7374C45.9244 93.7374 45.9244 93.7374 45.9244 93.8382V93.9389C45.9244 94.1404 46.0251 94.1404 45.9244 94.2411C45.9244 94.3419 45.8238 94.3419 45.8238 94.4426C45.6225 94.7448 45.5219 95.1478 45.7231 95.7522C46.1257 96.7595 46.7296 96.6588 47.4341 97.1625C47.4341 97.1625 47.3335 97.1625 47.3335 97.2632L46.629 97.4647C43.4083 98.4721 42.3011 101.192 43.7102 102.905C44.2134 103.509 45.0186 104.013 46.2264 104.315C45.9244 104.315 45.6225 104.516 45.4212 104.718C44.0121 105.826 43.1063 107.538 42.905 109.15C42.905 109.251 42.905 109.352 42.905 109.452C43.3076 109.654 43.6096 109.956 44.0121 110.158H60.015C61.0215 109.553 62.028 108.848 62.9338 108.042C62.8331 107.538 62.8331 107.337 62.7325 107.236Z" fill="white"/>
<path d="M62.9337 107.74C62.0279 108.546 61.1221 109.251 60.015 109.856C57.5994 111.266 54.7813 112.072 51.7619 112.072C48.7425 112.072 45.9244 111.266 43.5088 109.856C43.1063 109.654 42.8043 109.453 42.4017 109.15C42.4017 109.05 42.4017 108.949 42.4017 108.848C42.603 107.236 43.5089 105.524 44.9179 104.416C45.1192 104.214 45.4211 104.114 45.7231 104.013C44.5153 103.811 43.7101 103.308 43.2069 102.603H47.0315C48.1386 104.114 49.8496 105.02 51.8626 105.02C53.5736 105.02 55.0833 104.315 56.1904 103.207C56.291 103.207 56.3917 103.207 56.4923 103.207C56.6936 103.207 56.8949 103.207 57.1968 103.207C58.002 103.207 58.8072 103.408 59.5117 103.811C60.9208 104.517 61.9273 105.725 62.6318 107.136C62.8331 107.337 62.8331 107.539 62.9337 107.74Z" fill="#EAEEF9"/>
<path d="M55.184 100.689V102.804L48.8433 103.006L49.1452 101.595C49.2458 101.595 49.2458 101.696 49.3465 101.696C49.5478 101.797 49.7491 101.998 49.9504 102.099C50.051 102.2 50.1517 102.3 50.353 102.401C50.353 102.401 50.4536 102.401 50.4536 102.502V101.092L50.353 100.991C51.4601 101.595 52.9698 101.998 55.184 100.689Z" fill="url(#paint0_linear)"/>
<path d="M59.3105 91.9245C58.1027 92.3274 56.6937 92.5289 55.3853 92.4282C53.2717 92.2267 51.2587 91.4208 49.6484 90.0105C49.1452 91.5215 47.8367 92.6297 46.327 93.3348C46.1257 93.4356 45.9244 93.5363 45.7232 93.5363C45.7232 93.5363 45.7232 93.5363 45.7232 93.4356C45.6225 92.3274 45.6225 91.2193 46.0251 90.1112C46.327 89.0031 47.0316 88.0965 47.8367 87.2906L47.9374 87.1899C48.038 87.0891 48.2393 86.9884 48.34 86.7869C49.0445 86.1825 49.9503 85.7795 50.8562 85.5781C51.3594 85.4773 51.8626 85.3766 52.3659 85.3766C54.9827 85.3766 57.2976 86.7869 58.4047 89.0031C58.8073 89.809 59.0086 90.6149 59.1092 91.2193C59.3105 91.6223 59.3105 91.8238 59.3105 91.9245Z" fill="#A2ABBC"/>
<path d="M51.2588 106.834C50.6549 107.539 49.6485 107.539 48.7426 107.539C49.6485 106.632 49.1452 103.711 45.9245 104.013C41.496 103.207 41.8986 98.5731 46.3271 97.1628L47.0316 96.9613L47.1323 97.062C47.4342 97.9687 47.9375 98.7746 48.4407 99.379C46.629 100.89 49.1452 101.293 50.353 102.502C51.3595 103.106 52.2653 105.625 51.2588 106.834Z" fill="#A2ABBC"/>
<path d="M68.1674 95.7526C68.1674 100.487 66.1544 104.718 62.9337 107.74C62.0279 108.546 61.1221 109.251 60.015 109.856C57.5994 111.266 54.7813 112.072 51.7619 112.072C48.7425 112.072 45.9244 111.266 43.5089 109.856C43.1063 109.654 42.8043 109.453 42.4017 109.151C38.1746 106.229 35.3564 101.293 35.3564 95.7526C35.3564 86.6862 42.7037 79.4332 51.6613 79.4332C60.8201 79.3324 68.1674 86.6862 68.1674 95.7526Z" stroke="white" stroke-width="1.6434" stroke-miterlimit="10" stroke-linecap="round" stroke-linejoin="round"/>
<path d="M113.459 55.6592C113.459 60.1923 111.647 64.2218 108.829 67.2439C108.628 67.5461 108.326 67.7476 108.024 67.9491C105.004 70.7697 100.978 72.4823 96.5499 72.4823C93.0272 72.4823 89.7059 71.3741 86.9884 69.4601C86.1832 68.9565 85.4787 68.2513 84.7742 67.6469C81.6541 64.6248 79.7418 60.3938 79.7418 55.6592C79.7418 46.3913 87.2904 38.8361 96.5499 38.8361C105.91 38.8361 113.459 46.3913 113.459 55.6592Z" fill="#E9F0F8"/>
<path d="M113.459 55.659C113.459 60.5951 111.345 64.9268 108.024 68.0497C105.004 70.8703 100.978 72.5828 96.5499 72.5828C93.0272 72.5828 89.7059 71.4747 86.9884 69.5607C82.5599 66.5386 79.7418 61.5018 79.7418 55.7597C79.7418 46.4919 87.2904 38.9366 96.5499 38.9366C105.809 38.9366 113.459 46.3912 113.459 55.659Z" fill="#DCE2F0"/>
<path d="M108.829 67.244C108.628 67.5462 108.326 67.7477 108.024 67.9491C105.004 70.7698 100.978 72.4823 96.5499 72.4823C93.0272 72.4823 89.7059 71.3742 86.9884 69.4602C86.1832 68.9565 85.4787 68.2514 84.7742 67.6469C85.1768 67.1432 85.7806 66.841 87.0891 66.3373L87.5923 66.1359C88.5988 65.7329 90.0078 65.2292 91.8195 64.4233C92.1214 64.3226 92.3227 64.1211 92.524 63.9197C92.6246 63.8189 92.7253 63.7182 92.7253 63.5167C92.8259 63.3152 92.9266 63.013 92.9266 62.8115V59.3865C92.8259 59.2858 92.8259 59.2857 92.7253 59.185C92.4233 58.7821 92.2221 58.2784 92.2221 57.674L92.0208 57.5732C91.1149 57.7747 91.2156 56.8681 91.0143 55.0548C90.9136 54.3496 91.0143 54.1482 91.4169 54.0474L91.7188 53.6445C91.1149 52.2341 90.813 50.9246 90.813 49.9172C90.813 48.2047 91.5175 47.0966 92.524 46.5929C91.9201 45.384 91.9201 44.9811 91.9201 44.9811C91.9201 44.9811 95.4428 45.5855 96.6505 45.384C98.1602 45.0818 100.576 45.4848 101.482 47.4995C102.991 48.1039 103.495 49.0106 103.696 50.0179C103.897 51.6297 102.991 53.3423 102.79 54.0474V54.1482C102.991 54.2489 103.092 54.4504 102.991 55.1555C102.79 56.8681 102.79 57.8754 101.985 57.674L101.18 59.0843C101.18 59.2857 101.18 59.2858 101.079 59.3865C101.079 59.6887 101.079 60.1924 101.079 62.9123C101.079 63.2145 101.18 63.6174 101.381 63.8189C101.482 63.9197 101.482 64.0204 101.582 64.0204C101.784 64.2219 101.985 64.4233 102.186 64.4233C104.199 65.2292 105.608 65.8337 106.715 66.2366C107.722 66.6396 108.426 66.9418 108.829 67.244Z" fill="white"/>
<path d="M108.829 67.244C108.628 67.5462 108.326 67.7477 108.024 67.9492C105.004 70.7698 100.978 72.4823 96.5499 72.4823C93.0272 72.4823 89.7059 71.3742 86.9884 69.4602C86.1832 68.9565 85.4787 68.2514 84.7742 67.6469C85.1768 67.1433 85.7806 66.841 87.0891 66.3374L87.5923 66.1359C88.5988 65.7329 90.0078 65.2293 91.8195 64.4234C92.1214 64.3226 92.3227 64.1212 92.524 63.9197C93.5305 65.33 95.1408 66.2366 97.0531 66.2366C98.8648 66.2366 100.475 65.33 101.482 64.0204C101.683 64.2219 101.884 64.4234 102.085 64.4234C104.098 65.2293 105.507 65.8337 106.615 66.2366C107.722 66.6396 108.426 66.9418 108.829 67.244Z" fill="#EAEEF9"/>
<path d="M102.689 53.9467C102.79 53.5437 102.589 52.9393 102.387 52.6371C102.387 52.5364 102.287 52.5364 102.287 52.4356C101.582 51.0253 100.072 50.5216 98.6634 50.4209C94.9394 50.2194 94.6375 50.9246 93.5304 49.9172C93.933 50.4209 93.933 51.3275 93.3291 52.3349C92.9265 53.04 92.222 53.443 91.5174 53.6445C89.8064 49.8165 90.7123 47.3988 92.3226 46.5929C91.7187 45.384 91.7187 44.9811 91.7187 44.9811C91.7187 44.9811 95.2414 45.5855 96.4491 45.384C97.9589 45.0818 100.374 45.4848 101.28 47.4995C102.79 48.1039 103.293 49.0106 103.494 50.0179C103.796 51.529 102.891 53.2415 102.689 53.9467Z" fill="#A2ABBC"/>
<path d="M93.0272 62.8115V59.3865C92.9266 59.2857 92.9266 59.2857 92.8259 59.185V58.9835C93.0272 59.2857 93.2285 59.5879 93.5305 59.7894L96.2479 61.7034C96.8518 62.2071 97.7576 62.2071 98.3615 61.7034L100.878 59.4872C100.978 59.3865 101.079 59.3865 101.18 59.2857C101.18 59.5879 101.18 60.0916 101.18 62.8115C101.18 63.013 101.18 63.1137 101.28 63.3152H93.0272C92.9266 63.1137 93.0272 63.013 93.0272 62.8115Z" fill="url(#paint1_linear)"/>
<path d="M113.459 55.659C113.459 60.5951 111.345 64.9268 108.024 68.0497C105.004 70.8703 100.978 72.5828 96.5499 72.5828C93.0272 72.5828 89.7059 71.4747 86.9884 69.5607C82.5599 66.5386 79.7418 61.5018 79.7418 55.7597C79.7418 46.4919 87.2904 38.9366 96.5499 38.9366C105.809 38.9366 113.459 46.3912 113.459 55.659Z" stroke="white" stroke-width="1.6604" stroke-miterlimit="10" stroke-linecap="round" stroke-linejoin="round"/>
<path d="M0.633301 67.3449C0.633301 70.5685 3.25012 73.1877 6.47083 73.1877H58.2034C58.7066 73.1877 59.2099 73.3891 59.5118 73.6913L66.7584 80.9444C66.9597 81.2466 67.3623 81.3474 67.7649 81.1459C68.0668 81.0452 68.3688 80.6422 68.3688 80.34V46.7945C68.3688 43.5709 65.7519 40.9518 62.5312 40.9518H6.47083C3.25012 40.9518 0.633301 43.5709 0.633301 46.7945V67.3449Z" fill="#CED6E2"/>
<path d="M43.6333 16.8317C43.6333 20.0553 46.2501 22.6745 49.4708 22.6745H58.2034C58.7066 22.6745 59.2099 22.876 59.5118 23.1782L66.7584 30.4312C66.9597 30.7334 67.3623 30.8342 67.7649 30.6327C68.0668 30.532 68.3688 30.129 68.3688 29.8268V6.28135C68.3688 3.05776 65.7519 0.438599 62.5312 0.438599H49.4708C46.2501 0.438599 43.6333 3.05776 43.6333 6.28135V16.8317Z" fill="#CED6E2"/>
<path opacity="0.7" d="M55.6873 54.0476H11.2013C10.7987 54.0476 10.3961 53.6447 10.3961 53.2417V50.6225C10.3961 50.2196 10.7987 49.8167 11.2013 49.8167H55.6873C56.0899 49.8167 56.4925 50.2196 56.4925 50.6225V53.2417C56.4925 53.7454 56.1905 54.0476 55.6873 54.0476Z" fill="url(#paint2_linear)"/>
<path opacity="0.7" d="M38.5773 65.028H11.2013C10.7987 65.028 10.3961 64.625 10.3961 64.2221V61.6029C10.3961 61.1999 10.7987 60.797 11.2013 60.797H38.5773C38.9799 60.797 39.3825 61.1999 39.3825 61.6029V64.2221C39.3825 64.7257 39.0805 65.028 38.5773 65.028Z" fill="url(#paint3_linear)"/>
<path d="M140.633 27.755C140.633 30.6764 138.318 32.9933 135.4 32.9933H88.9007C88.4981 32.9933 87.9949 33.1948 87.6929 33.497L81.1509 40.0449C80.9496 40.2464 80.547 40.3471 80.2451 40.2464C79.9431 40.1457 79.7418 39.8435 79.7418 39.5412V9.32012C79.7418 6.39874 82.0567 4.08179 84.9755 4.08179H135.299C138.218 4.08179 140.533 6.39874 140.533 9.32012V27.755H140.633Z" fill="#CED6E2"/>
<path opacity="0.7" d="M130.267 15.8681H90.3098C89.9072 15.8681 89.6052 15.5658 89.6052 15.1629V12.7452C89.6052 12.3423 89.9072 12.04 90.3098 12.04H130.267C130.669 12.04 130.971 12.3423 130.971 12.7452V15.1629C130.971 15.5658 130.669 15.8681 130.267 15.8681Z" fill="url(#paint4_linear)"/>
<path opacity="0.7" d="M114.968 25.7402H90.3098C89.9072 25.7402 89.6052 25.438 89.6052 25.0351V22.6174C89.6052 22.2144 89.9072 21.9122 90.3098 21.9122H114.968C115.371 21.9122 115.673 22.2144 115.673 22.6174V25.0351C115.673 25.3373 115.27 25.7402 114.968 25.7402Z" fill="url(#paint5_linear)"/>
<path d="M56.0222 5.06775C52.4177 5.06775 49.5222 7.99275 49.5222 11.5677C49.5222 15.1427 52.4472 18.0677 56.0222 18.0677C59.5972 18.0677 62.5222 15.1723 62.5222 11.5677C62.5222 7.99275 59.6268 5.09729 56.0222 5.06775ZM58.504 8.34729C59.0949 8.34729 59.5677 8.82002 59.5677 9.41093C59.5677 10.0018 59.0949 10.4746 58.504 10.4746C57.9131 10.4746 57.4404 10.0018 57.4404 9.41093C57.4404 8.82002 57.9131 8.34729 58.504 8.34729ZM53.5699 8.31775C54.1609 8.31775 54.6336 8.79048 54.6336 9.38139C54.6336 9.97229 54.1609 10.445 53.5699 10.445C52.979 10.445 52.5063 9.97229 52.5063 9.38139C52.5063 8.82002 52.979 8.31775 53.5699 8.31775ZM59.7745 13.0746C58.9768 15.1427 56.6722 16.1768 54.604 15.4087C53.5404 14.995 52.6836 14.1382 52.2699 13.0746C52.1813 12.8087 52.2995 12.5427 52.5654 12.4541C52.6245 12.4246 52.6836 12.4246 52.7427 12.4246H59.3018C59.5677 12.4246 59.804 12.6609 59.804 12.9268C59.804 12.9564 59.804 13.0155 59.7745 13.0746Z" fill="white"/>
<defs>
<linearGradient id="paint0_linear" x1="52.0014" y1="102.933" x2="52.0014" y2="101.72" gradientUnits="userSpaceOnUse">
<stop stop-color="white"/>
<stop offset="0.9913" stop-color="#D6DEEA"/>
</linearGradient>
<linearGradient id="paint1_linear" x1="97.0368" y1="63.1803" x2="97.0368" y2="60.9114" gradientUnits="userSpaceOnUse">
<stop stop-color="white"/>
<stop offset="0.9913" stop-color="#D6DEEA"/>
</linearGradient>
<linearGradient id="paint2_linear" x1="57.7247" y1="51.92" x2="10.7211" y2="51.92" gradientUnits="userSpaceOnUse">
<stop offset="0.00651336" stop-color="#A6AEBE" stop-opacity="0"/>
<stop offset="1" stop-color="#A6AAB5"/>
</linearGradient>
<linearGradient id="paint3_linear" x1="40.1573" y1="62.9003" x2="10.6005" y2="62.9003" gradientUnits="userSpaceOnUse">
<stop offset="0.00651336" stop-color="#A6AEBE" stop-opacity="0"/>
<stop offset="1" stop-color="#A6AAB5"/>
</linearGradient>
<linearGradient id="paint4_linear" x1="132.077" y1="13.9431" x2="89.8969" y2="13.9431" gradientUnits="userSpaceOnUse">
<stop offset="0.00651336" stop-color="#A6AEBE" stop-opacity="0"/>
<stop offset="1" stop-color="#A6AAB5"/>
</linearGradient>
<linearGradient id="paint5_linear" x1="116.37" y1="23.8153" x2="89.789" y2="23.8153" gradientUnits="userSpaceOnUse">
<stop offset="0.00651336" stop-color="#A6AEBE" stop-opacity="0"/>
<stop offset="1" stop-color="#A6AAB5"/>
</linearGradient>
</defs>
</svg>
