<svg width="166" height="141" viewBox="0 0 166 141" fill="none" xmlns="http://www.w3.org/2000/svg">
<path d="M84.9755 112.977C110.779 112.977 131.75 92.0063 131.75 66.2032C131.75 40.4002 110.779 19.4292 84.9755 19.4292C59.0758 19.4292 38.2014 40.3036 38.2014 66.2032C38.2014 92.0063 59.0758 112.977 84.9755 112.977Z" fill="#EAEEF9"/>
<path d="M55.5442 53.4172H112.085C114.202 53.4172 116.108 55.2172 116.108 57.4407V93.1227C116.108 95.2403 114.308 97.1462 112.085 97.1462H55.5442C53.4266 97.1462 51.5208 95.3462 51.5208 93.1227V57.4407C51.5208 55.2172 53.4266 53.4172 55.5442 53.4172Z" fill="url(#paint0_linear)"/>
<path d="M139.384 54.5097C140.834 53.1567 140.931 50.934 139.578 49.4844C138.225 48.0348 136.002 47.9382 134.552 49.2911C133.103 50.6441 133.006 52.8668 134.359 54.3164C135.615 55.6694 137.935 55.8627 139.384 54.5097Z" fill="#EAEEF9"/>
<path d="M139.577 38.564C140.157 37.9841 140.254 37.0177 139.674 36.4379C139.094 35.858 138.128 35.7614 137.548 36.3412C136.968 36.9211 136.871 37.8875 137.451 38.4673C138.031 39.1438 138.998 39.1438 139.577 38.564Z" fill="#EAEEF9"/>
<path d="M101.598 16.6266C101.984 16.24 102.081 15.5635 101.694 15.177C101.308 14.7904 100.631 14.6938 100.245 15.0803C99.8583 15.4669 99.7616 16.1434 100.148 16.5299C100.535 16.9165 101.211 17.0131 101.598 16.6266Z" fill="#EAEEF9"/>
<g filter="url(#filter0_d)">
<path d="M136.649 34.5703L122.567 59.6641C122.037 60.5111 120.979 60.8288 120.237 60.2994L96.0965 46.2172C95.2495 45.6878 94.9318 44.629 95.4612 43.8878L113.99 11.9117C114.52 11.0646 115.579 10.747 116.32 11.2764L133.79 21.441L136.649 34.5703Z" fill="#F2F6FA"/>
</g>
<path d="M133.79 21.4409L129.767 28.2173C129.237 29.2761 129.555 30.3349 130.508 30.9702L136.543 34.4643" fill="#D5DAE6"/>
<path d="M117.167 28.0055C117.59 27.8997 118.014 27.8997 118.332 27.8997C118.755 27.8997 119.179 27.8997 119.602 27.8997C120.026 28.0055 120.555 28.1114 120.979 28.2173C121.508 28.4291 121.932 28.6408 122.355 28.8526C122.99 29.1702 123.52 29.5938 123.943 30.1232C124.367 30.5467 124.685 31.0761 124.896 31.7114C125.108 32.2408 125.108 32.8761 125.108 33.4055C125.002 34.0408 124.79 34.6761 124.473 35.2055C124.155 35.7349 123.837 36.1584 123.414 36.5819C122.99 36.8996 122.673 37.1113 122.143 37.3231C121.72 37.5348 121.296 37.6407 120.873 37.6407L119.708 37.7466C119.39 37.7466 119.073 37.8525 118.649 37.9584C118.332 38.0643 118.12 38.1701 117.908 38.3819L116.743 39.8642L114.838 38.8054L115.685 36.8996C115.79 36.5819 116.108 36.2643 116.32 36.0525C116.638 35.8407 116.955 35.7349 117.273 35.629C117.696 35.5231 118.014 35.5231 118.438 35.4172C118.861 35.4172 119.285 35.3113 119.708 35.2055C120.132 35.0996 120.449 34.9937 120.873 34.7819C121.296 34.5702 121.508 34.2525 121.72 33.829C121.826 33.6172 121.932 33.2996 122.037 32.982C122.037 32.6643 122.037 32.4525 121.932 32.2408C121.826 31.9231 121.72 31.7114 121.508 31.4996C121.296 31.2879 121.085 31.0761 120.767 30.8643C120.449 30.6526 120.026 30.4408 119.602 30.3349C119.285 30.229 118.967 30.229 118.649 30.229C118.332 30.229 118.12 30.229 117.908 30.229C117.802 30.229 117.59 30.229 117.485 30.1232C117.273 30.0173 117.061 29.6996 117.061 29.4879L117.167 28.0055ZM111.767 41.9819C111.873 41.7701 112.085 41.5583 112.296 41.3466C112.508 41.2407 112.72 41.0289 112.932 41.0289C113.461 40.923 113.991 40.923 114.414 41.2407C114.626 41.3466 114.838 41.5583 115.049 41.7701C115.155 41.9819 115.261 42.1936 115.367 42.4054C115.685 43.4642 115.049 44.4171 113.991 44.7348C113.461 44.8406 112.932 44.7348 112.508 44.523C112.296 44.4171 112.085 44.2054 111.873 43.9936C111.767 43.7818 111.555 43.5701 111.555 43.3583C111.449 43.1465 111.449 42.8289 111.555 42.6171C111.555 42.4054 111.661 42.1936 111.767 41.9819Z" fill="#CED6E2"/>
<g filter="url(#filter1_d)">
<path d="M46.1207 23.6646L62.2146 40.4997C62.744 41.135 62.744 41.982 62.1088 42.5114L45.6972 58.076C45.0619 58.6054 44.2148 58.6054 43.6854 57.9701L23.1445 36.2644C22.6151 35.6292 22.6151 34.7821 23.2504 34.2527L35.2149 23.0293L46.1207 23.6646Z" fill="#F2F6FA"/>
</g>
<path d="M35.1091 22.8174L39.5561 27.4762C40.1914 28.1114 41.2502 28.1114 41.8855 27.4762L46.0149 23.5586" fill="#D5DAE6"/>
<path d="M36.3796 37.3233C36.3796 37.0056 36.4855 36.688 36.5914 36.3703C36.6973 36.0527 36.8032 35.735 36.909 35.4174C37.0149 35.0998 37.2267 34.7821 37.4385 34.4645C37.6502 34.1468 37.9679 33.8292 38.2855 33.5115C38.709 33.088 39.1325 32.7704 39.662 32.5586C40.0855 32.3468 40.6149 32.241 41.0384 32.241C41.4619 32.241 41.9913 32.3468 42.4149 32.4527C42.8384 32.6645 43.2619 32.9821 43.6854 33.2998C44.0031 33.6174 44.3207 34.0409 44.4266 34.4645C44.5325 34.7821 44.6384 35.2056 44.7443 35.6292C44.7443 35.9468 44.7443 36.3703 44.7443 36.688C44.6384 37.0056 44.6384 37.3233 44.5325 37.6409C44.5325 37.9585 44.4266 38.1703 44.4266 38.488C44.4266 38.6997 44.4266 38.9115 44.6384 39.1232L45.4854 40.3938L44.2148 41.5585L42.9443 40.3938C42.7325 40.1821 42.5207 39.9703 42.4149 39.6526C42.309 39.335 42.309 39.1232 42.309 38.8056C42.309 38.488 42.4149 38.1703 42.4149 37.8527C42.5207 37.535 42.5207 37.2174 42.5207 36.8997C42.5207 36.5821 42.5207 36.2645 42.4149 35.9468C42.309 35.6292 42.0972 35.3115 41.8855 34.9939C41.7796 34.7821 41.5678 34.6762 41.3561 34.5704C41.1443 34.4645 40.9325 34.4645 40.7208 34.4645C40.509 34.4645 40.2972 34.5704 40.0855 34.6762C39.8737 34.7821 39.662 34.888 39.4502 35.0998C39.2384 35.3115 39.0267 35.6292 38.8149 35.8409C38.709 36.0527 38.6031 36.2644 38.4973 36.5821C38.3914 36.7939 38.3914 37.0056 38.3914 37.1115C38.3914 37.2174 38.2855 37.3233 38.1796 37.4291C38.0737 37.6409 37.7561 37.6409 37.5443 37.535L36.3796 37.3233ZM46.1207 44.7349C46.0148 44.6291 45.9089 44.4173 45.8031 44.2055C45.6972 43.9938 45.6972 43.782 45.6972 43.5703C45.6972 43.1467 45.9089 42.7232 46.2266 42.4056C46.3325 42.2997 46.5442 42.1938 46.756 42.0879C46.9678 41.982 47.1795 41.982 47.3913 41.982C48.0266 41.982 48.6619 42.4056 48.8736 43.0408C48.9795 43.2526 48.9795 43.4644 48.9795 43.6761C48.9795 43.8879 48.8736 44.0997 48.8736 44.3114C48.7677 44.5232 48.6619 44.6291 48.4501 44.8408C48.3442 44.9467 48.1324 45.1585 47.9207 45.1585C47.4972 45.2644 47.0736 45.2644 46.756 45.1585C46.4384 45.0526 46.2266 44.9467 46.1207 44.7349Z" fill="#CED6E2"/>
<g filter="url(#filter2_d)">
<path d="M88.1555 50.1348L81.9086 72.4758C81.6968 73.2169 80.8497 73.7463 80.1086 73.4287L58.4029 67.0758C57.6618 66.8641 57.1324 66.017 57.45 65.2758L65.9205 36.4762C66.1323 35.735 66.9793 35.2056 67.7205 35.5232L83.4968 40.182L88.1555 50.1348Z" fill="#F2F6FA"/>
</g>
<path d="M83.4988 40.2212L81.4849 46.5349C81.2732 47.3819 81.8026 48.3349 82.6496 48.5466L88.234 50.1246" fill="#D5DAE6"/>
<path d="M71.5322 48.7584C71.8499 48.6525 72.1675 48.5466 72.4852 48.4408C72.8028 48.3349 73.1205 48.229 73.544 48.229C73.9675 48.229 74.2851 48.229 74.7087 48.229C75.1322 48.229 75.5557 48.3349 75.9792 48.4408C76.5086 48.5466 77.0381 48.8643 77.4616 49.1819C77.8851 49.4996 78.2027 49.8172 78.5204 50.2407C78.7322 50.6643 78.9439 51.0878 79.0498 51.5113C79.1557 52.0407 79.0498 52.5701 78.9439 52.9937C78.838 53.4172 78.6263 53.8407 78.3086 54.2642C78.0969 54.5819 77.7792 54.8995 77.4616 55.1113C77.1439 55.323 76.8263 55.5348 76.5086 55.6407L75.5557 55.9583C75.344 56.0642 75.0263 56.1701 74.8146 56.276C74.6028 56.3819 74.391 56.5936 74.391 56.8054L73.7557 58.1818L72.0616 57.4407L72.3793 55.7466C72.3793 55.4289 72.591 55.2172 72.8028 55.0054C73.0146 54.7936 73.2263 54.5819 73.544 54.476C73.8616 54.3701 74.1793 54.2642 74.391 54.1584C74.7087 54.0525 75.0263 53.9466 75.344 53.7348C75.6616 53.6289 75.8734 53.4172 76.191 53.2054C76.4028 52.9937 76.6145 52.676 76.7204 52.2525C76.7204 52.1466 76.7204 51.9348 76.7204 51.7231C76.7204 51.5113 76.6145 51.2996 76.5086 51.0878C76.4028 50.876 76.191 50.7702 75.9792 50.5584C75.7675 50.4525 75.5557 50.3466 75.2381 50.2407C74.9204 50.1349 74.6028 50.1349 74.1793 50.1349C73.9675 50.1349 73.6499 50.1349 73.4381 50.2407C73.2263 50.2407 73.0146 50.3466 72.9087 50.3466C72.8028 50.3466 72.6969 50.4525 72.4852 50.3466C72.2734 50.3466 72.0616 50.1349 72.0616 49.9231L71.5322 48.7584ZM69.944 60.9347C70.0499 60.723 70.0499 60.5112 70.2617 60.4053C70.3675 60.1936 70.5793 60.0877 70.6852 59.9818C71.1087 59.7701 71.5322 59.7701 71.8499 59.8759C72.0616 59.9818 72.2734 60.0877 72.3793 60.1936C72.4852 60.2995 72.6969 60.5112 72.8028 60.6171C73.2263 61.3583 72.9087 62.3112 72.1675 62.6288C71.744 62.8406 71.3205 62.8406 71.0028 62.7347C70.7911 62.6288 70.5793 62.6288 70.4734 62.4171C70.2617 62.3112 70.1558 62.0994 70.0499 61.9936C69.944 61.7818 69.944 61.6759 69.8381 61.4641C69.944 61.3583 69.944 61.1465 69.944 60.9347Z" fill="#CED6E2"/>
<g filter="url(#filter3_d)">
<path d="M139.19 88.3578L118.649 99.4753C118.014 99.793 117.061 99.5812 116.743 98.84L106.473 78.8285C106.155 78.1932 106.367 77.2403 107.108 76.9226L133.79 62.8404C134.426 62.5228 135.379 62.7346 135.696 63.4757L143.108 77.9815L139.19 88.3578Z" fill="#F2F6FA"/>
</g>
<path d="M143.002 78.1934L137.284 81.158C136.543 81.5816 136.226 82.6404 136.543 83.3815L139.084 88.4638" fill="#D5DAE6"/>
<path d="M128.814 75.4404C129.132 75.5463 129.343 75.7581 129.661 75.864C129.979 75.9698 130.19 76.1816 130.508 76.4992C130.826 76.8169 131.037 77.0286 131.249 77.3463C131.567 77.6639 131.779 77.9816 131.99 78.4051C132.308 78.8286 132.414 79.4639 132.414 79.8874C132.52 80.4168 132.414 80.8404 132.414 81.3698C132.308 81.7933 132.096 82.2168 131.884 82.6404C131.567 83.0639 131.143 83.3815 130.72 83.5933C130.402 83.805 129.873 83.9109 129.449 84.0168C129.132 84.1227 128.602 84.1227 128.284 84.0168C127.967 83.9109 127.543 83.9109 127.226 83.6992L126.379 83.2756C126.167 83.1698 125.849 83.0639 125.637 82.958C125.426 82.8521 125.108 82.8521 125.002 83.0639L123.626 83.5933L122.885 82.0051L124.261 81.0521C124.473 80.8404 124.79 80.8404 125.108 80.8404C125.426 80.8404 125.637 80.8404 125.955 80.9462C126.273 81.0521 126.484 81.2639 126.696 81.3698C127.014 81.4757 127.226 81.6874 127.649 81.7933C127.967 81.8992 128.179 81.8992 128.602 82.0051C128.92 82.0051 129.237 81.8992 129.661 81.6874C129.979 81.4757 130.402 81.158 130.402 80.6286C130.508 80.4168 130.402 80.2051 130.402 79.8874C130.296 79.6757 130.296 79.4639 130.084 79.1463C129.979 78.8286 129.767 78.6169 129.555 78.2992C129.449 78.1933 129.237 77.9816 129.026 77.8757C128.92 77.7698 128.708 77.6639 128.602 77.5581C128.496 77.4522 128.39 77.4522 128.284 77.2404C128.179 77.1345 128.179 76.8169 128.284 76.711L128.814 75.4404ZM118.967 82.7462C119.179 82.6404 119.285 82.5345 119.602 82.6404C119.814 82.5345 120.026 82.6404 120.132 82.6404C120.555 82.7462 120.873 83.0639 120.979 83.3815C121.085 83.5933 121.085 83.805 121.085 84.0168C121.085 84.1227 121.085 84.4403 121.085 84.5462C120.979 84.8639 120.661 85.2874 120.343 85.3933C120.132 85.4991 119.92 85.4991 119.708 85.4991C119.602 85.4991 119.285 85.4991 119.179 85.4991C118.755 85.3933 118.438 85.0756 118.332 84.758C118.226 84.5462 118.226 84.3344 118.226 84.1227C118.12 83.9109 118.226 83.6992 118.226 83.5933C118.332 83.3815 118.438 83.2756 118.438 83.0639C118.543 82.958 118.861 82.958 118.967 82.7462Z" fill="#CED6E2"/>
<path d="M117.167 76.3932V93.9695C117.167 96.193 115.261 98.0989 113.038 98.0989H54.9089C52.6854 98.0989 50.7795 96.193 50.7795 93.9695V74.9109" stroke="#1676EE" stroke-width="3" stroke-linecap="round" stroke-linejoin="round"/>
<path d="M114.943 65.064H95.0378C93.1319 65.064 91.2261 65.6993 89.7437 66.9698L84.4497 71.2051C82.9673 72.3698 81.0615 73.1109 79.1556 73.1109H56.497C54.2735 73.1109 52.3677 74.9109 52.3677 77.2403C52.3677 77.4521 52.3677 77.6638 52.4736 77.8756L56.6029 99.5812C56.9206 101.593 58.7205 103.181 60.7323 103.181H109.12C111.238 103.181 112.932 101.699 113.249 99.6871L119.073 69.8286C119.39 67.6051 117.908 65.4875 115.579 65.1698C115.367 65.064 115.155 65.064 114.943 65.064Z" fill="white"/>
<g filter="url(#filter4_d)">
<path d="M120.449 61.1465H96.732C94.5085 61.1465 92.1791 61.9935 90.485 63.37L84.1321 68.5582C82.3321 70.0405 80.1086 70.7817 77.8851 70.7817H50.6737C48.0267 70.7817 45.6973 72.8993 45.6973 75.7581C45.6973 75.9698 45.6973 76.2875 45.8031 76.4993L50.7796 102.864C51.2031 105.299 53.2148 107.205 55.756 107.205H113.461C115.896 107.205 118.014 105.405 118.438 102.97L125.32 66.8641C125.743 64.217 123.943 61.57 121.191 61.1465C120.979 61.1465 120.661 61.1465 120.449 61.1465Z" fill="url(#paint1_linear)"/>
</g>
<path d="M74.7086 88.8872C76.0851 88.8872 77.2498 87.7225 77.2498 86.3461C77.2498 84.9696 76.0851 83.8049 74.7086 83.8049C73.3322 83.8049 72.1675 84.9696 72.1675 86.3461C72.1675 87.7225 73.3322 88.8872 74.7086 88.8872Z" fill="#989FB0"/>
<path d="M94.5084 88.4639C95.8849 88.4639 97.0496 87.2992 97.0496 85.9227C97.0496 84.5463 95.8849 83.3816 94.5084 83.3816C93.132 83.3816 91.9673 84.5463 91.9673 85.9227C91.9673 87.2992 93.132 88.4639 94.5084 88.4639Z" fill="#989FB0"/>
<path d="M89.9555 92.6989H88.579C87.4143 90.3695 84.5556 89.4166 82.332 90.6872C81.3791 91.1107 80.6379 91.9578 80.3203 92.6989H78.9438C80.1085 89.6284 83.6026 88.0401 86.5673 89.2048C88.1555 89.8401 89.3202 91.1107 89.9555 92.6989Z" fill="#989FB0"/>
<path d="M130.084 115.781C128.92 115.781 129.343 115.887 120.343 106.887C111.661 113.346 99.5906 107.099 99.5906 96.5108C99.5906 89.4167 105.414 83.5933 112.508 83.5933C122.779 83.5933 129.131 95.1343 123.096 103.922L131.461 112.287C132.837 113.558 131.99 115.781 130.084 115.781ZM112.614 87.7226C107.743 87.7226 103.72 91.6402 103.72 96.6166C103.72 101.593 107.638 105.511 112.614 105.511C113.143 105.511 113.673 105.511 114.202 105.405C114.732 105.299 115.261 105.193 115.685 104.981C116.214 104.769 116.637 104.558 117.061 104.346C117.59 104.028 118.014 103.711 118.437 103.287C118.755 102.97 119.179 102.546 119.496 102.228C119.814 101.805 120.132 101.381 120.343 100.958C120.555 100.534 120.767 100.005 120.979 99.4754C121.19 98.946 121.296 98.4166 121.296 97.8872C121.296 97.4637 121.402 97.1461 121.402 96.7225C121.508 91.6402 117.484 87.7226 112.614 87.7226Z" fill="#989FB0"/>
<path d="M68.4617 82.0051L74.1793 78.9346" stroke="#989FB0" stroke-width="1.5" stroke-miterlimit="10"/>
<path d="M99.4849 80.5226L93.7673 77.3462" stroke="#989FB0" stroke-width="1.5" stroke-miterlimit="10"/>
<defs>
<filter id="filter0_d" x="73.2024" y="0.0175781" width="85.4466" height="93.5406" filterUnits="userSpaceOnUse" color-interpolation-filters="sRGB">
<feFlood flood-opacity="0" result="BackgroundImageFix"/>
<feColorMatrix in="SourceAlpha" type="matrix" values="0 0 0 0 0 0 0 0 0 0 0 0 0 0 0 0 0 0 127 0"/>
<feOffset dy="11"/>
<feGaussianBlur stdDeviation="11"/>
<feColorMatrix type="matrix" values="0 0 0 0 0.397708 0 0 0 0 0.47749 0 0 0 0 0.575 0 0 0 0.27 0"/>
<feBlend mode="normal" in2="BackgroundImageFix" result="effect1_dropShadow"/>
<feBlend mode="normal" in="SourceGraphic" in2="effect1_dropShadow" result="shape"/>
</filter>
<filter id="filter1_d" x="0.759766" y="12.0293" width="83.8396" height="79.4314" filterUnits="userSpaceOnUse" color-interpolation-filters="sRGB">
<feFlood flood-opacity="0" result="BackgroundImageFix"/>
<feColorMatrix in="SourceAlpha" type="matrix" values="0 0 0 0 0 0 0 0 0 0 0 0 0 0 0 0 0 0 127 0"/>
<feOffset dy="11"/>
<feGaussianBlur stdDeviation="11"/>
<feColorMatrix type="matrix" values="0 0 0 0 0.397708 0 0 0 0 0.47749 0 0 0 0 0.575 0 0 0 0.27 0"/>
<feBlend mode="normal" in2="BackgroundImageFix" result="effect1_dropShadow"/>
<feBlend mode="normal" in="SourceGraphic" in2="effect1_dropShadow" result="shape"/>
</filter>
<filter id="filter2_d" x="35.356" y="24.4292" width="74.7996" height="82.0935" filterUnits="userSpaceOnUse" color-interpolation-filters="sRGB">
<feFlood flood-opacity="0" result="BackgroundImageFix"/>
<feColorMatrix in="SourceAlpha" type="matrix" values="0 0 0 0 0 0 0 0 0 0 0 0 0 0 0 0 0 0 127 0"/>
<feOffset dy="11"/>
<feGaussianBlur stdDeviation="11"/>
<feColorMatrix type="matrix" values="0 0 0 0 0.397708 0 0 0 0 0.47749 0 0 0 0 0.575 0 0 0 0.27 0"/>
<feBlend mode="normal" in2="BackgroundImageFix" result="effect1_dropShadow"/>
<feBlend mode="normal" in="SourceGraphic" in2="effect1_dropShadow" result="shape"/>
</filter>
<filter id="filter3_d" x="84.3301" y="51.6975" width="80.7778" height="80.9208" filterUnits="userSpaceOnUse" color-interpolation-filters="sRGB">
<feFlood flood-opacity="0" result="BackgroundImageFix"/>
<feColorMatrix in="SourceAlpha" type="matrix" values="0 0 0 0 0 0 0 0 0 0 0 0 0 0 0 0 0 0 127 0"/>
<feOffset dy="11"/>
<feGaussianBlur stdDeviation="11"/>
<feColorMatrix type="matrix" values="0 0 0 0 0.397708 0 0 0 0 0.47749 0 0 0 0 0.575 0 0 0 0.27 0"/>
<feBlend mode="normal" in2="BackgroundImageFix" result="effect1_dropShadow"/>
<feBlend mode="normal" in="SourceGraphic" in2="effect1_dropShadow" result="shape"/>
</filter>
<filter id="filter4_d" x="23.6973" y="50.1465" width="123.684" height="90.0583" filterUnits="userSpaceOnUse" color-interpolation-filters="sRGB">
<feFlood flood-opacity="0" result="BackgroundImageFix"/>
<feColorMatrix in="SourceAlpha" type="matrix" values="0 0 0 0 0 0 0 0 0 0 0 0 0 0 0 0 0 0 127 0"/>
<feOffset dy="11"/>
<feGaussianBlur stdDeviation="11"/>
<feColorMatrix type="matrix" values="0 0 0 0 0.397708 0 0 0 0 0.47749 0 0 0 0 0.575 0 0 0 0.27 0"/>
<feBlend mode="normal" in2="BackgroundImageFix" result="effect1_dropShadow"/>
<feBlend mode="normal" in="SourceGraphic" in2="effect1_dropShadow" result="shape"/>
</filter>
<linearGradient id="paint0_linear" x1="83.8145" y1="56.6321" x2="83.8145" y2="73.1618" gradientUnits="userSpaceOnUse">
<stop stop-color="#B0BACC"/>
<stop offset="1" stop-color="#969EAE"/>
</linearGradient>
<linearGradient id="paint1_linear" x1="85.5134" y1="60.0811" x2="85.5134" y2="107.701" gradientUnits="userSpaceOnUse">
<stop stop-color="#FDFEFF"/>
<stop offset="0.9964" stop-color="#ECF0F5"/>
</linearGradient>
</defs>
</svg>
