<svg width="137" height="122" viewBox="0 0 137 122" fill="none" xmlns="http://www.w3.org/2000/svg">
<path d="M131.876 64.308C131.876 85.5054 120.113 104.373 103.574 113.807C103.574 113.807 103.458 113.924 103.341 113.924C101.245 115.205 98.5659 116.37 97.4012 116.952H97.2848C96.353 117.301 90.7625 119.631 89.8308 119.631C89.7143 119.631 89.5978 119.631 89.5978 119.747C89.4814 119.747 89.3649 119.747 89.2484 119.864C86.8026 120.563 83.3085 121.145 82.6097 121.261C82.6097 121.611 71.8945 122.659 62.81 120.679C61.6453 120.679 54.1913 118.699 47.669 115.438C29.2669 105.887 16.5718 86.5536 16.5718 64.308C16.5718 32.512 42.4279 6.77234 74.2239 6.77234C106.136 6.77234 131.876 32.512 131.876 64.308Z" fill="#EAEEF9"/>
<path d="M91.6942 87.8348V119.165C91.5777 119.165 90.0636 119.747 89.9472 119.747C89.8307 119.747 89.7142 119.747 89.7142 119.864C89.5977 119.864 89.4813 119.864 89.3648 119.98C86.919 120.679 83.4249 121.261 82.7261 121.378V87.8348H91.6942Z" fill="#4988FD"/>
<path d="M91.6942 87.8348V119.165C91.5777 119.165 90.0636 119.747 89.9472 119.747C89.8307 119.747 89.7142 119.747 89.7142 119.864C89.5977 119.864 89.4813 119.864 89.3648 119.98C86.919 120.679 83.4249 121.261 82.7261 121.378V87.8348H91.6942Z" fill="white"/>
<path d="M99.847 87.8348V115.904C99.2647 116.253 98.2164 116.603 97.4012 117.069H97.2847C95.7706 117.767 94.0236 118.466 90.9954 119.398V87.9513H99.847V87.8348Z" fill="#2767F4"/>
<path d="M99.847 87.8348V115.904C99.2647 116.253 98.2164 116.603 97.4012 117.069H97.2847C95.7706 117.767 94.0236 118.466 90.9954 119.398V87.9513H99.847V87.8348Z" fill="#D5DAE8"/>
<path opacity="0.1" d="M99.847 99.9475V113.924C98.6823 114.506 97.7506 114.972 97.7506 114.972H97.6341C95.6541 116.02 92.6259 116.952 91.3448 117.301C91.2283 117.301 91.1118 117.418 90.9954 117.418V114.39C92.393 110.197 94.7224 105.887 97.867 102.277C98.4494 101.462 99.1482 100.646 99.847 99.9475Z" fill="#062C78"/>
<path opacity="0.1" d="M99.847 87.8348H82.7261V97.7347H99.847V87.8348Z" fill="#062C78"/>
<path d="M136.302 52.6611V88.3006H108.466V88.4171H52.6771V24.3591H105.671C106.369 24.2427 107.068 24.2427 107.883 24.2427C108.815 24.2427 109.63 24.2427 110.562 24.3591C111.727 24.4756 112.775 24.5921 113.823 24.825C119.297 25.9897 124.189 28.785 127.916 32.512C133.157 37.7531 136.302 44.8577 136.302 52.6611Z" fill="url(#paint0_linear)"/>
<path d="M125.587 62.4445C129.081 62.4445 131.992 59.6493 131.992 56.0387C131.992 52.4282 129.081 49.6329 125.587 49.6329C122.093 49.6329 119.181 52.4282 119.181 56.0387C119.181 59.6493 121.976 62.4445 125.587 62.4445Z" fill="#737C90"/>
<path d="M126.635 61.6293C130.245 61.6293 133.274 58.8341 133.274 55.2235C133.274 51.613 130.362 48.8177 126.635 48.8177C123.024 48.8177 119.996 51.613 119.996 55.2235C119.996 58.8341 122.908 61.6293 126.635 61.6293Z" fill="#D5DAE8"/>
<path d="M126.984 61.6293C130.478 61.6293 133.39 58.8341 133.39 55.2235C133.39 51.613 130.478 48.8177 126.984 48.8177C123.49 48.8177 120.578 51.613 120.578 55.2235C120.578 58.8341 123.374 61.6293 126.984 61.6293Z" fill="#F5F7FB"/>
<path d="M126.984 57.6693C128.382 57.6693 129.43 56.6211 129.43 55.2234C129.43 53.8258 128.382 52.7776 126.984 52.7776C125.587 52.7776 124.538 53.8258 124.538 55.2234C124.538 56.6211 125.587 57.6693 126.984 57.6693Z" fill="#CED7E2"/>
<path d="M80.3967 49.866V88.4172H23.5598V49.866C23.5598 37.7532 32.1785 27.5039 43.476 24.9416C45.3395 24.4757 47.203 24.3593 49.183 24.3593H55.0064C67.818 24.3593 78.3002 33.6768 80.2802 45.906C80.2802 47.0707 80.3967 48.4683 80.3967 49.866Z" fill="#737C91"/>
<path opacity="0.7" d="M80.3967 55.573L80.0473 46.2555C78.0674 34.0263 67.4687 24.7087 54.7736 24.7087H48.9501C46.9701 24.7087 45.1066 24.9417 43.2431 25.2911L42.5443 25.8734L56.87 84.9232L80.1638 86.2044L80.3967 55.573Z" fill="url(#paint1_linear)"/>
<path d="M80.2802 45.906C78.3002 33.6768 67.7016 24.3593 55.0064 24.3593H49.183C47.203 24.3593 45.3395 24.4757 43.476 24.9416C32.0621 27.5039 23.5598 37.6367 23.5598 49.866V88.4172H80.3967V49.866C80.3967 48.4683 80.2802 47.0707 80.2802 45.906ZM78.0673 86.0878H25.8892V49.866C25.8892 39.1508 33.4597 29.6004 44.0584 27.271C45.5725 26.9216 47.0866 26.8051 49.183 26.8051H55.0064C66.4204 26.8051 76.0873 34.9579 77.9508 46.2554C77.9508 46.7213 77.9508 47.3036 77.9508 47.886C77.9508 48.5848 77.9508 49.2836 77.9508 49.9824V86.0878H78.0673Z" fill="#C3CAD6"/>
<path d="M67.1192 110.197C65.4886 112.643 63.5087 116.603 62.344 119.864C62.2275 120.097 62.111 120.446 62.111 120.679C61.2957 120.563 60.4805 120.33 59.6652 120.097C58.9664 118.466 58.5005 116.719 58.5005 116.719C58.9664 116.137 59.3158 115.671 59.7816 115.205C61.9946 112.526 64.3239 110.663 67.1192 110.197Z" fill="#C1C8D7"/>
<path d="M62.8098 120.795C62.5769 120.795 62.3439 120.679 62.111 120.679C61.2957 120.563 60.4804 120.33 59.6652 120.097C59.0828 119.98 58.6169 119.747 58.0346 119.631C57.8016 119.514 57.5687 119.514 57.3358 119.398C57.1028 119.281 56.8699 119.281 56.5205 119.165C53.4923 118.233 50.5806 116.952 47.7853 115.554C44.8736 110.663 43.243 104.723 40.4478 96.4535C40.4478 96.337 40.4478 96.337 40.3313 96.2205C40.3313 96.2205 40.5642 96.2205 41.1466 96.4535C41.496 96.6864 42.0783 96.9193 42.7772 97.3852C44.1748 98.317 46.3877 99.9475 49.6488 102.626C53.7252 106.004 57.2193 111.012 59.6652 115.088C60.7134 116.952 61.6451 118.583 62.3439 119.864C62.5769 120.097 62.6933 120.446 62.8098 120.795Z" fill="#D5DAE8"/>
<path d="M58.0347 119.514C57.8018 119.398 57.5688 119.398 57.3359 119.281C57.1029 119.165 56.87 119.165 56.5206 119.049C51.163 108.333 45.1066 101.462 41.6126 97.5018C41.2632 97.0359 40.9138 96.6865 40.5643 96.3371C40.5643 96.2206 40.5643 96.2206 40.4479 96.1041C40.4479 96.1041 40.6808 96.1041 41.2632 96.3371C41.6126 96.57 42.1949 96.8029 42.8937 97.2688C46.5043 101.462 52.6771 108.566 58.0347 119.514Z" fill="#EAEEF9"/>
<path d="M112.426 94.4735C112.426 94.4735 112.309 94.7064 112.076 95.1723C110.679 97.7346 106.02 106.237 103.807 113.691C103.69 113.691 103.69 113.807 103.574 113.807C103.574 113.807 103.458 113.924 103.341 113.924C101.245 115.205 98.5659 116.37 97.4012 116.952H97.2847C93.7906 118.583 90.0636 119.631 89.8307 119.631C91.5777 113.924 94.14 108.799 97.7506 104.49C98.4494 103.675 99.1482 102.859 99.847 102.16C99.9635 102.044 100.08 101.928 100.196 101.811C103.225 98.7829 106.369 96.8029 109.397 95.5217C109.747 95.4053 110.096 95.1723 110.446 95.0559C110.795 94.8229 111.377 94.7064 111.96 94.4735C112.193 94.59 112.309 94.4735 112.426 94.4735Z" fill="#D5DAE8"/>
<path d="M112.309 94.2406C112.309 94.2406 112.193 94.3571 112.076 94.7065C112.076 94.8229 111.96 94.823 111.96 94.9394C105.903 100.297 101.128 109.265 98.0999 116.719C97.867 116.836 97.6341 116.952 97.4011 117.069H97.2846C97.0517 117.185 96.7023 117.301 96.4694 117.418C96.5858 117.185 96.7023 117.069 96.7023 117.069C98.2164 113.342 102.293 102.743 109.397 95.6382C109.63 95.4053 109.863 95.1724 110.096 94.9394C110.912 94.7065 111.61 94.4735 112.309 94.2406Z" fill="#EAEEF9"/>
<path d="M80.7461 84.3408V88.4172H3.06129C1.8966 88.4172 0.964844 87.4854 0.964844 86.4372C0.964844 85.2725 1.8966 84.3408 3.06129 84.3408H80.7461Z" fill="#919AAC"/>
<path d="M96.7024 53.5929H127.334C128.265 53.5929 128.964 54.2917 128.964 55.2235C128.964 56.1552 128.265 56.854 127.334 56.854H96.7024V53.5929Z" fill="#CED7E2"/>
<path d="M95.6541 37.9862C96.0035 37.5203 96.8188 37.7532 96.8188 38.452V53.4765V56.9706H84.2401V38.452C84.2401 37.8697 84.9389 37.5203 85.4048 37.9862L89.4812 42.8778C90.0636 43.5767 91.1118 43.5767 91.6941 42.8778L95.6541 37.9862Z" fill="#F8F9FC"/>
<path d="M13.893 11.7807C12.3789 18.8853 11.5636 26.1064 11.4472 33.3275C11.3307 39.9662 11.3307 47.3037 13.3107 53.7095C15.7565 61.8624 23.327 70.0152 32.6445 67.5693C37.7691 66.1717 41.962 61.7459 43.1267 56.2718C43.8255 52.7778 42.7773 48.7014 39.9821 46.6049C36.9539 44.625 32.528 45.0908 29.8493 47.5367C26.9375 49.9825 25.7728 53.7095 25.8893 57.3201C26.0058 60.9306 27.4034 64.4247 29.034 67.5693C33.9257 76.5375 59.3159 71.7622 78.1839 69.5493" stroke="#C9D4E2" stroke-width="2" stroke-miterlimit="10" stroke-dasharray="4 4"/>
<path d="M4.80837 5.95712C5.39071 8.2865 7.95303 9.10178 10.5153 7.70415C13.3106 6.30653 15.1741 5.37477 14.5918 3.16186C14.0094 1.06542 11.4471 0.832484 8.53537 0.599546C4.92483 0.250139 4.22602 3.62774 4.80837 5.95712Z" fill="#DAE2EB"/>
<path d="M25.1905 8.05369C24.2587 10.0337 21.2305 11.1983 19.1341 9.21838C16.8047 7.12193 15.0577 5.72431 15.9894 3.5114C16.9212 1.53142 18.7847 2.11377 22.2787 2.69611C25.1905 3.39493 26.3551 5.95724 25.1905 8.05369Z" fill="#DAE2EB"/>
<path d="M15.8729 0.25018C14.3588 0.0172424 12.9612 0.832525 12.4953 2.23015C12.3789 2.57956 12.1459 3.1619 12.1459 3.74425C11.7965 6.65597 12.7283 9.21829 14.4753 9.45123C16.2224 9.68417 17.9694 7.47126 18.4353 4.79247C18.4353 3.97719 18.4353 3.39484 18.4353 2.8125C18.3188 1.41487 17.2706 0.483118 15.8729 0.25018C15.7565 0.25018 15.8729 0.25018 15.8729 0.25018Z" fill="#989FB0"/>
<path d="M84.9389 88.4172H83.5413C84.1237 89.8148 84.4731 92.0277 84.706 94.7065C83.0754 95.0559 80.0473 94.59 78.1838 93.1924C77.6014 91.096 77.1355 89.4654 76.6697 88.4172H75.1556C75.505 88.9995 76.0873 90.863 76.7861 93.5418C74.2238 95.9877 72.5932 95.0559 67.5851 92.6101C67.1192 92.3771 66.5369 92.0277 65.838 91.7948C64.6733 90.3971 63.7416 89.2325 62.8098 88.4172H60.5969C61.5287 88.9995 62.8098 90.1642 64.2075 91.7948C56.8699 97.3853 50.2312 94.9394 46.6207 93.6583C46.0383 93.4253 45.5724 93.3089 45.1066 93.1924C41.1466 91.096 37.5361 89.4654 34.5079 88.4172H29.8491V88.5337C35.5561 89.4654 48.95 96.3371 60.9463 104.14V104.257H61.0628C70.1474 110.197 78.4167 116.719 81.5613 121.494L82.726 121.378V121.494V121.378C82.959 121.378 83.3084 121.261 83.5413 121.261C83.7743 121.261 84.0072 121.145 84.1237 121.145C83.8907 120.097 83.0754 115.904 82.0272 110.779C82.6096 111.129 83.3084 111.478 84.2401 111.478C84.4731 111.478 84.706 111.478 84.8225 111.478C84.706 115.205 84.5895 118.699 84.3566 121.261C84.8225 121.145 85.2884 121.145 85.7542 121.028C86.1036 115.205 87.1519 95.5218 84.9389 88.4172ZM84.706 96.1041C84.8225 97.8512 84.9389 99.7147 84.9389 101.578C83.4249 102.277 82.4931 101.462 81.0955 99.9476C80.6296 99.3653 80.0473 98.7829 79.4649 98.4335C79.232 97.2688 78.8826 96.2206 78.6496 95.1724C80.5131 95.9877 82.959 96.3371 84.706 96.1041ZM78.4167 100.413C78.8826 102.626 79.4649 105.072 79.9308 107.518C79.5814 107.518 79.3484 107.751 79.1155 107.867C78.6496 108.217 77.9508 108.566 76.3202 108.1C75.7379 107.052 75.1556 106.004 74.5732 105.072C73.8744 103.791 73.0591 102.626 72.4768 101.578C75.1556 101.695 76.9026 101.345 78.4167 100.413ZM77.1355 95.0559C77.4849 96.2206 77.7179 97.5018 78.0673 98.8994C76.7861 99.9476 75.1556 100.413 71.545 99.9476C70.1474 97.8512 68.8662 95.8712 67.7015 94.2406C71.8944 96.3371 74.2238 97.3853 77.1355 95.0559ZM51.0465 96.4535C52.0947 96.6865 53.1429 96.8029 54.3076 96.8029C57.5687 96.8029 61.1793 95.8712 65.0228 92.9595C66.6533 95.0559 68.4004 97.6182 70.1474 100.413C68.0509 102.393 64.5569 102.626 61.5287 102.859C58.0346 100.53 54.4241 98.4335 51.0465 96.4535ZM63.3922 104.024C66.071 103.791 68.9827 103.325 70.8462 101.578C72.2438 103.791 73.6415 106.237 75.0391 108.566C74.4567 109.731 73.2921 109.964 70.7297 109.382C68.5168 107.518 65.9545 105.771 63.3922 104.024ZM73.0591 111.012C74.1073 111.012 75.1556 110.779 75.9708 109.847C77.4849 112.526 78.999 115.205 80.1637 117.301C78.1837 115.322 75.7379 113.225 73.0591 111.012ZM82.1437 118.466C80.8625 116.02 79.1155 112.759 77.252 109.615C78.5332 109.731 79.232 109.265 79.8143 109.032C79.9308 109.032 79.9308 108.916 80.0473 108.916C80.0473 108.916 80.1637 109.032 80.2802 109.149C80.979 112.293 81.5613 115.554 82.1437 118.466ZM84.8225 109.847C83.5413 110.197 82.4931 109.498 81.5613 108.566C81.0955 106.004 80.5131 103.442 79.9308 100.879L80.0473 100.996C81.2119 102.277 82.726 103.791 84.9389 103.209C84.9389 105.305 84.9389 107.635 84.8225 109.847Z" fill="#B4BDCF"/>
<path d="M123.281 107.716C125.545 107.716 127.381 105.881 127.381 103.616C127.381 101.352 125.545 99.5164 123.281 99.5164C121.017 99.5164 119.181 101.352 119.181 103.616C119.181 105.881 121.017 107.716 123.281 107.716Z" fill="#EAEEF9"/>
<path d="M115.7 20.5347C117.247 20.5347 118.5 19.2811 118.5 17.7347C118.5 16.1883 117.247 14.9347 115.7 14.9347C114.154 14.9347 112.9 16.1883 112.9 17.7347C112.9 19.2811 114.154 20.5347 115.7 20.5347Z" fill="#EAEEF9"/>
<path d="M10.1231 106.414C12.995 106.414 15.3231 104.086 15.3231 101.214C15.3231 98.3423 12.995 96.0142 10.1231 96.0142C7.25121 96.0142 4.9231 98.3423 4.9231 101.214C4.9231 104.086 7.25121 106.414 10.1231 106.414Z" fill="#EAEEF9"/>
<defs>
<linearGradient id="paint0_linear" x1="94.456" y1="24.9949" x2="94.456" y2="72.8964" gradientUnits="userSpaceOnUse">
<stop stop-color="#B0BACC"/>
<stop offset="1" stop-color="#969EAE"/>
</linearGradient>
<linearGradient id="paint1_linear" x1="78.9569" y1="54.7268" x2="54.9571" y2="55.8449" gradientUnits="userSpaceOnUse">
<stop stop-color="#42465A"/>
<stop offset="1" stop-color="#575E84" stop-opacity="0"/>
</linearGradient>
</defs>
</svg>
